{
.appVersion = "1291";
copyright = "Jingzhe, Chen Yuanhao";
customParameters = (
{
name = Axes;
value = (
{
Name = Weight;
Tag = wght;
}
);
},
{
name = "Variable Font Family Name";
value = "Hundred Xdi8 Variable";
},
{
name = variableStyleName;
value = "3";
},
{
name = "Variable Font File Name";
value = "Hundred Xdi8 Variable";
},
{
name = glyphOrder;
value = (
a,
o,
e,
E,
A,
Y,
L,
six,
two,
b,
p,
m,
w,
j,
q,
x,
y,
n,
z,
D,
s,
r,
H,
i,
one,
V,
three,
N,
l,
d,
t,
g,
k,
h,
four,
eight,
five,
v,
F,
seven,
B,
c,
f,
u,
T,
a.ss01,
o.ss01,
e.ss01,
E.ss01,
A.ss01,
Y.ss01,
L.ss01,
six.ss01,
two.ss01,
b.ss01,
p.ss01,
m.ss01,
w.ss01,
j.ss01,
q.ss01,
x.ss01,
y.ss01,
n.ss01,
z.ss01,
D.ss01,
s.ss01,
r.ss01,
H.ss01,
i.ss01,
one.ss01,
V.ss01,
three.ss01,
N.ss01,
l.ss01,
d.ss01,
t.ss01,
g.ss01,
k.ss01,
h.ss01,
four.ss01,
eight.ss01,
five.ss01,
v.ss01,
F.ss01,
seven.ss01,
B.ss01,
c.ss01,
f.ss01,
u.ss01,
T.ss01,
a.ss02,
o.ss02,
e.ss02,
E.ss02,
A.ss02,
Y.ss02,
L.ss02,
six.ss02,
two.ss02,
b.ss02,
p.ss02,
m.ss02,
w.ss02,
j.ss02,
q.ss02,
x.ss02,
y.ss02,
n.ss02,
z.ss02,
D.ss02,
s.ss02,
r.ss02,
H.ss02,
i.ss02,
one.ss02,
V.ss02,
three.ss02,
N.ss02,
l.ss02,
d.ss02,
t.ss02,
g.ss02,
k.ss02,
h.ss02,
four.ss02,
eight.ss02,
five.ss02,
v.ss02,
F.ss02,
seven.ss02,
B.ss02,
c.ss02,
f.ss02,
u.ss02,
T.ss02,
zero.ss03,
one.ss03,
two.ss03,
three.ss03,
four.ss03,
five.ss03,
six.ss03,
seven.ss03,
eight.ss03,
nine.ss03,
n.ss03,
T.ss03
);
}
);
date = "2021-01-31 08:00:57 +0000";
designer = "Jingzhe, Chen Yuanhao";
disablesNiceNames = 1;
familyName = "Hundred Xdi8";
featurePrefixes = (
{
automatic = 1;
code = "languagesystem DFLT dflt;\012";
name = Languagesystems;
}
);
features = (
{
automatic = 1;
code = "feature salt;\012feature ss01;\012feature ss02;\012feature ss03;\012feature case;\012";
name = aalt;
},
{
automatic = 1;

glyphs = (
{
glyphname = a;
lastChange = "2021-01-31 07:32:33 +0000";
layers = (
{
layerId = "19B6A511-96ED-40AF-BAB7-D1E16DFA4179";
paths = (
{
closed = 1;
nodes = (
"1143 2936 OFFCURVE",
"1148 2931 OFFCURVE",
"1148 2925 CURVE SMOOTH",
"1148 2919 OFFCURVE",
"1143 2914 OFFCURVE",
"1138 2914 CURVE SMOOTH",
"972 2914 OFFCURVE",
"818 2842 OFFCURVE",
"707 2713 CURVE SMOOTH",
"625 2614 OFFCURVE",
"580 2488 OFFCURVE",
"580 2356 CURVE SMOOTH",
"580 2351 OFFCURVE",
"575 2346 OFFCURVE",
"569 2345 CURVE",
"563 2346 OFFCURVE",
"558 2351 OFFCURVE",
"558 2356 CURVE SMOOTH",
"558 2510 OFFCURVE",
"619 2658 OFFCURVE",
"728 2766 CURVE SMOOTH",
"836 2875 OFFCURVE",
"984 2936 OFFCURVE",
"1138 2936 CURVE SMOOTH"
);
},
{
closed = 1;
nodes = (
"1712 580 OFFCURVE",
"1717 575 OFFCURVE",
"1717 569 CURVE SMOOTH",
"1717 485 OFFCURVE",
"1701 409 OFFCURVE",
"1664 326 CURVE SMOOTH",
"1573 122 OFFCURVE",
"1365 -11 OFFCURVE",
"1138 -11 CURVE SMOOTH",
"1133 -11 OFFCURVE",
"1127 -5 OFFCURVE",
"1127 0 CURVE SMOOTH",
"1127 5 OFFCURVE",
"1133 11 OFFCURVE",
"1138 11 CURVE SMOOTH",
"1286 11 OFFCURVE",
"1426 69 OFFCURVE",
"1532 174 CURVE SMOOTH",
"1637 279 OFFCURVE",
"1696 420 OFFCURVE",
"1696 569 CURVE SMOOTH",
"1696 575 OFFCURVE",
"1701 580 OFFCURVE",
"1707 580 CURVE SMOOTH"
);
},
{
closed = 1;
nodes = (
"1365 2936 OFFCURVE",
"1573 2803 OFFCURVE",
"1664 2599 CURVE SMOOTH",
"1701 2516 OFFCURVE",
"1717 2440 OFFCURVE",
"1717 2356 CURVE SMOOTH",
"1717 2351 OFFCURVE",
"1713 2346 OFFCURVE",
"1707 2345 CURVE",
"1701 2346 OFFCURVE",
"1696 2351 OFFCURVE",
"1696 2356 CURVE SMOOTH",
"1696 2505 OFFCURVE",
"1637 2646 OFFCURVE",
"1532 2751 CURVE SMOOTH",
"1426 2856 OFFCURVE",
"1286 2914 OFFCURVE",
"1138 2914 CURVE SMOOTH",
"1133 2914 OFFCURVE",
"1127 2920 OFFCURVE",
"1127 2925 CURVE SMOOTH",
"1127 2930 OFFCURVE",
"1133 2936 OFFCURVE",
"1138 2936 CURVE SMOOTH"
);
},
{
closed = 1;
nodes = (
"1712 2367 OFFCURVE",
"1717 2362 OFFCURVE",
"1717 2356 CURVE SMOOTH",
"1717 2002 OFFCURVE",
"1432 1742 OFFCURVE",
"1145 1454 CURVE SMOOTH",
"734 1044 OFFCURVE",
"580 804 OFFCURVE",
"580 569 CURVE SMOOTH",
"580 564 OFFCURVE",
"574 558 OFFCURVE",
"569 558 CURVE SMOOTH",
"564 558 OFFCURVE",
"558 564 OFFCURVE",
"558 569 CURVE SMOOTH",
"558 923 OFFCURVE",
"845 1182 OFFCURVE",
"1130 1471 CURVE SMOOTH",
"1543 1880 OFFCURVE",
"1696 2119 OFFCURVE",
"1696 2356 CURVE SMOOTH",
"1696 2362 OFFCURVE",
"1701 2367 OFFCURVE",
"1707 2367 CURVE SMOOTH"
);
},
{
closed = 1;
nodes = (
"574 580 OFFCURVE",
"580 574 OFFCURVE",
"580 569 CURVE SMOOTH",
"580 355 OFFCURVE",
"692 173 OFFCURVE",
"888 69 CURVE SMOOTH",
"962 33 OFFCURVE",
"1056 11 OFFCURVE",
"1138 11 CURVE SMOOTH",
"1143 11 OFFCURVE",
"1148 6 OFFCURVE",
"1148 0 CURVE SMOOTH",
"1148 -6 OFFCURVE",
"1143 -11 OFFCURVE",
"1138 -11 CURVE SMOOTH",
"984 -11 OFFCURVE",
"836 50 OFFCURVE",
"728 159 CURVE SMOOTH",
"619 267 OFFCURVE",
"558 415 OFFCURVE",
"558 569 CURVE SMOOTH",
"558 574 OFFCURVE",
"564 580 OFFCURVE",
"569 580 CURVE SMOOTH"
);
},
{
closed = 1;
nodes = (
"1712 2367 OFFCURVE",
"1717 2362 OFFCURVE",
"1717 2356 CURVE SMOOTH",
"1717 569 LINE SMOOTH",
"1717 563 OFFCURVE",
"1712 558 OFFCURVE",
"1707 558 CURVE SMOOTH",
"1701 558 OFFCURVE",
"1696 563 OFFCURVE",
"1696 569 CURVE SMOOTH",
"1696 2356 LINE SMOOTH",
"1696 2362 OFFCURVE",
"1701 2367 OFFCURVE",
"1707 2367 CURVE SMOOTH"
);
},
{
closed = 1;
nodes = (
"1696 575 OFFCURVE",
"1701 580 OFFCURVE",
"1707 580 CURVE SMOOTH",
"1712 580 OFFCURVE",
"1717 575 OFFCURVE",
"1717 569 CURVE SMOOTH",
"1717 363 OFFCURVE",
"1833 170 OFFCURVE",
"2014 76 CURVE SMOOTH",
"2094 33 OFFCURVE",
"2185 11 OFFCURVE",
"2276 11 CURVE SMOOTH",
"2281 11 OFFCURVE",
"2286 6 OFFCURVE",
"2286 0 CURVE SMOOTH",
"2286 -6 OFFCURVE",
"2281 -11 OFFCURVE",
"2276 -11 CURVE SMOOTH",
"2122 -11 OFFCURVE",
"1974 50 OFFCURVE",
"1866 159 CURVE SMOOTH",
"1757 267 OFFCURVE",
"1696 415 OFFCURVE",
"1696 569 CURVE SMOOTH"
);
}
);
width = 2276;
},
{
layerId = "A6394422-5114-4E65-BA08-40D408A20CD5";
paths = (
{
closed = 1;
nodes = (
"1383 3370 OFFCURVE",
"1582 3171 OFFCURVE",
"1582 2925 CURVE SMOOTH",
"1582 2679 OFFCURVE",
"1383 2480 OFFCURVE",
"1138 2480 CURVE SMOOTH",
"1098 2480 OFFCURVE",
"1067 2465 OFFCURVE",
"1039 2433 CURVE SMOOTH",
"1022 2412 OFFCURVE",
"1014 2388 OFFCURVE",
"1014 2356 CURVE SMOOTH",
"1014 2111 OFFCURVE",
"815 1912 OFFCURVE",
"569 1911 CURVE SMOOTH",
"323 1912 OFFCURVE",
"124 2111 OFFCURVE",
"124 2356 CURVE SMOOTH",
"124 2623 OFFCURVE",
"232 2884 OFFCURVE",
"421 3073 CURVE SMOOTH",
"610 3262 OFFCURVE",
"871 3370 OFFCURVE",
"1138 3370 CURVE SMOOTH"
);
},
{
closed = 1;
nodes = (
"1952 1014 OFFCURVE",
"2151 815 OFFCURVE",
"2151 569 CURVE SMOOTH",
"2151 428 OFFCURVE",
"2120 285 OFFCURVE",
"2061 151 CURVE SMOOTH",
"1901 -210 OFFCURVE",
"1537 -445 OFFCURVE",
"1138 -445 CURVE SMOOTH",
"893 -445 OFFCURVE",
"693 -244 OFFCURVE",
"693 0 CURVE SMOOTH",
"693 245 OFFCURVE",
"894 445 OFFCURVE",
"1138 445 CURVE SMOOTH",
"1172 445 OFFCURVE",
"1201 457 OFFCURVE",
"1225 481 CURVE SMOOTH",
"1250 506 OFFCURVE",
"1262 534 OFFCURVE",
"1262 569 CURVE SMOOTH",
"1262 814 OFFCURVE",
"1461 1014 OFFCURVE",
"1707 1014 CURVE SMOOTH"
);
},
{
closed = 1;
nodes = (
"1537 3370 OFFCURVE",
"1901 3135 OFFCURVE",
"2061 2774 CURVE SMOOTH",
"2120 2640 OFFCURVE",
"2151 2497 OFFCURVE",
"2151 2356 CURVE SMOOTH",
"2151 2111 OFFCURVE",
"1952 1912 OFFCURVE",
"1707 1911 CURVE SMOOTH",
"1461 1912 OFFCURVE",
"1262 2111 OFFCURVE",
"1262 2356 CURVE SMOOTH",
"1262 2391 OFFCURVE",
"1250 2419 OFFCURVE",
"1225 2444 CURVE SMOOTH",
"1201 2468 OFFCURVE",
"1172 2480 OFFCURVE",
"1138 2480 CURVE SMOOTH",
"893 2480 OFFCURVE",
"693 2681 OFFCURVE",
"693 2925 CURVE SMOOTH",
"693 3170 OFFCURVE",
"894 3370 OFFCURVE",
"1138 3370 CURVE SMOOTH"
);
},
{
closed = 1;
nodes = (
"1952 2801 OFFCURVE",
"2151 2602 OFFCURVE",
"2151 2356 CURVE SMOOTH",
"2151 1811 OFFCURVE",
"1732 1428 OFFCURVE",
"1452 1147 CURVE SMOOTH",
"1155 852 OFFCURVE",
"1014 660 OFFCURVE",
"1014 569 CURVE SMOOTH",
"1014 324 OFFCURVE",
"813 124 OFFCURVE",
"569 124 CURVE SMOOTH",
"324 124 OFFCURVE",
"124 325 OFFCURVE",
"124 569 CURVE SMOOTH",
"124 1115 OFFCURVE",
"545 1497 OFFCURVE",
"823 1778 CURVE SMOOTH",
"1125 2077 OFFCURVE",
"1262 2265 OFFCURVE",
"1262 2356 CURVE SMOOTH",
"1262 2601 OFFCURVE",
"1461 2801 OFFCURVE",
"1707 2801 CURVE SMOOTH"
);
},
{
closed = 1;
nodes = (
"814 1014 OFFCURVE",
"1014 813 OFFCURVE",
"1014 569 CURVE SMOOTH",
"1014 516 OFFCURVE",
"1036 484 OFFCURVE",
"1084 456 CURVE",
"1101 449 OFFCURVE",
"1118 445 OFFCURVE",
"1138 445 CURVE SMOOTH",
"1383 445 OFFCURVE",
"1582 246 OFFCURVE",
"1582 0 CURVE SMOOTH",
"1582 -246 OFFCURVE",
"1383 -445 OFFCURVE",
"1138 -445 CURVE SMOOTH",
"871 -445 OFFCURVE",
"610 -337 OFFCURVE",
"421 -148 CURVE SMOOTH",
"232 41 OFFCURVE",
"124 302 OFFCURVE",
"124 569 CURVE SMOOTH",
"124 814 OFFCURVE",
"325 1014 OFFCURVE",
"569 1014 CURVE SMOOTH"
);
},
{
closed = 1;
nodes = (
"1952 2801 OFFCURVE",
"2151 2602 OFFCURVE",
"2151 2356 CURVE SMOOTH",
"2151 569 LINE SMOOTH",
"2151 323 OFFCURVE",
"1952 124 OFFCURVE",
"1707 124 CURVE SMOOTH",
"1462 124 OFFCURVE",
"1262 323 OFFCURVE",
"1262 569 CURVE SMOOTH",
"1262 2356 LINE SMOOTH",
"1262 2601 OFFCURVE",
"1461 2801 OFFCURVE",
"1707 2801 CURVE SMOOTH"
);
},
{
closed = 1;
nodes = (
"1262 814 OFFCURVE",
"1461 1014 OFFCURVE",
"1707 1014 CURVE SMOOTH",
"1952 1014 OFFCURVE",
"2151 815 OFFCURVE",
"2151 569 CURVE SMOOTH",
"2151 536 OFFCURVE",
"2164 505 OFFCURVE",
"2186 482 CURVE SMOOTH",
"2213 456 OFFCURVE",
"2241 445 OFFCURVE",
"2276 445 CURVE SMOOTH",
"2521 445 OFFCURVE",
"2720 246 OFFCURVE",
"2720 0 CURVE SMOOTH",
"2720 -246 OFFCURVE",
"2521 -445 OFFCURVE",
"2276 -445 CURVE SMOOTH",
"2009 -445 OFFCURVE",
"1748 -337 OFFCURVE",
"1559 -148 CURVE SMOOTH",
"1370 41 OFFCURVE",
"1262 302 OFFCURVE",
"1262 569 CURVE SMOOTH"
);
}
);
width = 2276;
}
);
leftKerningGroup = c;
unicode = 0061;
},
{
glyphname = o;
lastChange = "2021-01-31 07:32:33 +0000";
layers = (
{
layerId = "19B6A511-96ED-40AF-BAB7-D1E16DFA4179";
paths = (
{
closed = 1;
nodes = (
"574 2367 OFFCURVE",
"580 2361 OFFCURVE",
"580 2356 CURVE SMOOTH",
"580 569 LINE SMOOTH",
"580 564 OFFCURVE",
"574 558 OFFCURVE",
"569 558 CURVE SMOOTH",
"564 558 OFFCURVE",
"558 564 OFFCURVE",
"558 569 CURVE SMOOTH",
"558 2356 LINE SMOOTH",
"558 2361 OFFCURVE",
"564 2367 OFFCURVE",
"569 2367 CURVE SMOOTH"
);
},
{
closed = 1;
nodes = (
"1143 2936 OFFCURVE",
"1148 2931 OFFCURVE",
"1148 2925 CURVE SMOOTH",
"1148 2919 OFFCURVE",
"1143 2914 OFFCURVE",
"1138 2914 CURVE SMOOTH",
"972 2914 OFFCURVE",
"818 2842 OFFCURVE",
"707 2713 CURVE SMOOTH",
"625 2614 OFFCURVE",
"580 2488 OFFCURVE",
"580 2356 CURVE SMOOTH",
"580 2351 OFFCURVE",
"575 2346 OFFCURVE",
"569 2345 CURVE",
"563 2346 OFFCURVE",
"558 2351 OFFCURVE",
"558 2356 CURVE SMOOTH",
"558 2510 OFFCURVE",
"619 2658 OFFCURVE",
"728 2766 CURVE SMOOTH",
"836 2875 OFFCURVE",
"984 2936 OFFCURVE",
"1138 2936 CURVE SMOOTH"
);
},
{
closed = 1;
nodes = (
"1712 580 OFFCURVE",
"1717 575 OFFCURVE",
"1717 569 CURVE SMOOTH",
"1717 485 OFFCURVE",
"1701 409 OFFCURVE",
"1664 326 CURVE SMOOTH",
"1573 122 OFFCURVE",
"1365 -11 OFFCURVE",
"1138 -11 CURVE SMOOTH",
"1133 -11 OFFCURVE",
"1127 -5 OFFCURVE",
"1127 0 CURVE SMOOTH",
"1127 5 OFFCURVE",
"1133 11 OFFCURVE",
"1138 11 CURVE SMOOTH",
"1286 11 OFFCURVE",
"1426 69 OFFCURVE",
"1532 174 CURVE SMOOTH",
"1637 279 OFFCURVE",
"1696 420 OFFCURVE",
"1696 569 CURVE SMOOTH",
"1696 575 OFFCURVE",
"1701 580 OFFCURVE",
"1707 580 CURVE SMOOTH"
);
},
{
closed = 1;
nodes = (
"1365 2936 OFFCURVE",
"1573 2803 OFFCURVE",
"1664 2599 CURVE SMOOTH",
"1701 2516 OFFCURVE",
"1717 2440 OFFCURVE",
"1717 2356 CURVE SMOOTH",
"1717 2351 OFFCURVE",
"1713 2346 OFFCURVE",
"1707 2345 CURVE",
"1701 2346 OFFCURVE",
"1696 2351 OFFCURVE",
"1696 2356 CURVE SMOOTH",
"1696 2505 OFFCURVE",
"1637 2646 OFFCURVE",
"1532 2751 CURVE SMOOTH",
"1426 2856 OFFCURVE",
"1286 2914 OFFCURVE",
"1138 2914 CURVE SMOOTH",
"1133 2914 OFFCURVE",
"1127 2920 OFFCURVE",
"1127 2925 CURVE SMOOTH",
"1127 2930 OFFCURVE",
"1133 2936 OFFCURVE",
"1138 2936 CURVE SMOOTH"
);
},
{
closed = 1;
nodes = (
"574 580 OFFCURVE",
"580 574 OFFCURVE",
"580 569 CURVE SMOOTH",
"580 355 OFFCURVE",
"692 173 OFFCURVE",
"888 69 CURVE SMOOTH",
"962 33 OFFCURVE",
"1056 11 OFFCURVE",
"1138 11 CURVE SMOOTH",
"1143 11 OFFCURVE",
"1148 6 OFFCURVE",
"1148 0 CURVE SMOOTH",
"1148 -6 OFFCURVE",
"1143 -11 OFFCURVE",
"1138 -11 CURVE SMOOTH",
"984 -11 OFFCURVE",
"836 50 OFFCURVE",
"728 159 CURVE SMOOTH",
"619 267 OFFCURVE",
"558 415 OFFCURVE",
"558 569 CURVE SMOOTH",
"558 574 OFFCURVE",
"564 580 OFFCURVE",
"569 580 CURVE SMOOTH"
);
},
{
closed = 1;
nodes = (
"1696 2356 LINE SMOOTH",
"1696 2362 OFFCURVE",
"1701 2367 OFFCURVE",
"1707 2367 CURVE SMOOTH",
"1712 2367 OFFCURVE",
"1717 2362 OFFCURVE",
"1717 2356 CURVE SMOOTH",
"1717 569 LINE SMOOTH",
"1717 563 OFFCURVE",
"1712 558 OFFCURVE",
"1707 558 CURVE SMOOTH",
"1701 558 OFFCURVE",
"1696 563 OFFCURVE",
"1696 569 CURVE SMOOTH"
);
}
);
width = 2275;
},
{
layerId = "A6394422-5114-4E65-BA08-40D408A20CD5";
paths = (
{
closed = 1;
nodes = (
"814 2801 OFFCURVE",
"1014 2600 OFFCURVE",
"1014 2356 CURVE SMOOTH",
"1014 569 LINE SMOOTH",
"1014 324 OFFCURVE",
"813 124 OFFCURVE",
"569 124 CURVE SMOOTH",
"324 124 OFFCURVE",
"124 325 OFFCURVE",
"124 569 CURVE SMOOTH",
"124 2356 LINE SMOOTH",
"124 2601 OFFCURVE",
"325 2801 OFFCURVE",
"569 2801 CURVE SMOOTH"
);
},
{
closed = 1;
nodes = (
"1383 3370 OFFCURVE",
"1582 3171 OFFCURVE",
"1582 2925 CURVE SMOOTH",
"1582 2679 OFFCURVE",
"1383 2480 OFFCURVE",
"1138 2480 CURVE SMOOTH",
"1098 2480 OFFCURVE",
"1067 2465 OFFCURVE",
"1039 2433 CURVE SMOOTH",
"1022 2412 OFFCURVE",
"1014 2388 OFFCURVE",
"1014 2356 CURVE SMOOTH",
"1014 2111 OFFCURVE",
"815 1912 OFFCURVE",
"569 1911 CURVE SMOOTH",
"323 1912 OFFCURVE",
"124 2111 OFFCURVE",
"124 2356 CURVE SMOOTH",
"124 2623 OFFCURVE",
"232 2884 OFFCURVE",
"421 3073 CURVE SMOOTH",
"610 3262 OFFCURVE",
"871 3370 OFFCURVE",
"1138 3370 CURVE SMOOTH"
);
},
{
closed = 1;
nodes = (
"1952 1014 OFFCURVE",
"2151 815 OFFCURVE",
"2151 569 CURVE SMOOTH",
"2151 428 OFFCURVE",
"2120 285 OFFCURVE",
"2061 151 CURVE SMOOTH",
"1901 -210 OFFCURVE",
"1537 -445 OFFCURVE",
"1138 -445 CURVE SMOOTH",
"893 -445 OFFCURVE",
"693 -244 OFFCURVE",
"693 0 CURVE SMOOTH",
"693 245 OFFCURVE",
"894 445 OFFCURVE",
"1138 445 CURVE SMOOTH",
"1172 445 OFFCURVE",
"1201 457 OFFCURVE",
"1225 481 CURVE SMOOTH",
"1250 506 OFFCURVE",
"1262 534 OFFCURVE",
"1262 569 CURVE SMOOTH",
"1262 814 OFFCURVE",
"1461 1014 OFFCURVE",
"1707 1014 CURVE SMOOTH"
);
},
{
closed = 1;
nodes = (
"1537 3370 OFFCURVE",
"1901 3135 OFFCURVE",
"2061 2774 CURVE SMOOTH",
"2120 2640 OFFCURVE",
"2151 2497 OFFCURVE",
"2151 2356 CURVE SMOOTH",
"2151 2111 OFFCURVE",
"1952 1912 OFFCURVE",
"1707 1911 CURVE SMOOTH",
"1461 1912 OFFCURVE",
"1262 2111 OFFCURVE",
"1262 2356 CURVE SMOOTH",
"1262 2391 OFFCURVE",
"1250 2419 OFFCURVE",
"1225 2444 CURVE SMOOTH",
"1201 2468 OFFCURVE",
"1172 2480 OFFCURVE",
"1138 2480 CURVE SMOOTH",
"893 2480 OFFCURVE",
"693 2681 OFFCURVE",
"693 2925 CURVE SMOOTH",
"693 3170 OFFCURVE",
"894 3370 OFFCURVE",
"1138 3370 CURVE SMOOTH"
);
},
{
closed = 1;
nodes = (
"814 1014 OFFCURVE",
"1014 813 OFFCURVE",
"1014 569 CURVE SMOOTH",
"1014 516 OFFCURVE",
"1036 484 OFFCURVE",
"1084 456 CURVE",
"1101 449 OFFCURVE",
"1118 445 OFFCURVE",
"1138 445 CURVE SMOOTH",
"1383 445 OFFCURVE",
"1582 246 OFFCURVE",
"1582 0 CURVE SMOOTH",
"1582 -246 OFFCURVE",
"1383 -445 OFFCURVE",
"1138 -445 CURVE SMOOTH",
"871 -445 OFFCURVE",
"610 -337 OFFCURVE",
"421 -148 CURVE SMOOTH",
"232 41 OFFCURVE",
"124 302 OFFCURVE",
"124 569 CURVE SMOOTH",
"124 814 OFFCURVE",
"325 1014 OFFCURVE",
"569 1014 CURVE SMOOTH"
);
},
{
closed = 1;
nodes = (
"1262 2356 LINE SMOOTH",
"1262 2601 OFFCURVE",
"1461 2801 OFFCURVE",
"1707 2801 CURVE SMOOTH",
"1952 2801 OFFCURVE",
"2151 2602 OFFCURVE",
"2151 2356 CURVE SMOOTH",
"2151 569 LINE SMOOTH",
"2151 323 OFFCURVE",
"1952 124 OFFCURVE",
"1707 124 CURVE SMOOTH",
"1462 124 OFFCURVE",
"1262 323 OFFCURVE",
"1262 569 CURVE SMOOTH"
);
}
);
width = 2275;
}
);
leftKerningGroup = c;
rightKerningGroup = c;
unicode = 006F;
},
{
glyphname = e;
lastChange = "2021-01-31 07:32:33 +0000";
layers = (
{
layerId = "19B6A511-96ED-40AF-BAB7-D1E16DFA4179";
paths = (
{
closed = 1;
nodes = (
"574 2367 OFFCURVE",
"580 2361 OFFCURVE",
"580 2356 CURVE SMOOTH",
"580 569 LINE SMOOTH",
"580 564 OFFCURVE",
"574 558 OFFCURVE",
"569 558 CURVE SMOOTH",
"564 558 OFFCURVE",
"558 564 OFFCURVE",
"558 569 CURVE SMOOTH",
"558 2356 LINE SMOOTH",
"558 2361 OFFCURVE",
"564 2367 OFFCURVE",
"569 2367 CURVE SMOOTH"
);
},
{
closed = 1;
nodes = (
"1143 2936 OFFCURVE",
"1148 2931 OFFCURVE",
"1148 2925 CURVE SMOOTH",
"1148 2919 OFFCURVE",
"1143 2914 OFFCURVE",
"1138 2914 CURVE SMOOTH",
"972 2914 OFFCURVE",
"818 2842 OFFCURVE",
"707 2713 CURVE SMOOTH",
"625 2614 OFFCURVE",
"580 2488 OFFCURVE",
"580 2356 CURVE SMOOTH",
"580 2351 OFFCURVE",
"575 2346 OFFCURVE",
"569 2345 CURVE",
"563 2346 OFFCURVE",
"558 2351 OFFCURVE",
"558 2356 CURVE SMOOTH",
"558 2510 OFFCURVE",
"619 2658 OFFCURVE",
"728 2766 CURVE SMOOTH",
"836 2875 OFFCURVE",
"984 2936 OFFCURVE",
"1138 2936 CURVE SMOOTH"
);
},
{
closed = 1;
nodes = (
"1712 580 OFFCURVE",
"1717 575 OFFCURVE",
"1717 569 CURVE SMOOTH",
"1717 485 OFFCURVE",
"1701 409 OFFCURVE",
"1664 326 CURVE SMOOTH",
"1573 122 OFFCURVE",
"1365 -11 OFFCURVE",
"1138 -11 CURVE SMOOTH",
"1133 -11 OFFCURVE",
"1127 -5 OFFCURVE",
"1127 0 CURVE SMOOTH",
"1127 5 OFFCURVE",
"1133 11 OFFCURVE",
"1138 11 CURVE SMOOTH",
"1286 11 OFFCURVE",
"1426 69 OFFCURVE",
"1532 174 CURVE SMOOTH",
"1637 279 OFFCURVE",
"1696 420 OFFCURVE",
"1696 569 CURVE SMOOTH",
"1696 575 OFFCURVE",
"1701 580 OFFCURVE",
"1707 580 CURVE SMOOTH"
);
},
{
closed = 1;
nodes = (
"1365 2936 OFFCURVE",
"1573 2803 OFFCURVE",
"1664 2599 CURVE SMOOTH",
"1701 2516 OFFCURVE",
"1717 2440 OFFCURVE",
"1717 2356 CURVE SMOOTH",
"1717 2351 OFFCURVE",
"1713 2346 OFFCURVE",
"1707 2345 CURVE",
"1701 2346 OFFCURVE",
"1696 2351 OFFCURVE",
"1696 2356 CURVE SMOOTH",
"1696 2505 OFFCURVE",
"1637 2646 OFFCURVE",
"1532 2751 CURVE SMOOTH",
"1426 2856 OFFCURVE",
"1286 2914 OFFCURVE",
"1138 2914 CURVE SMOOTH",
"1133 2914 OFFCURVE",
"1127 2920 OFFCURVE",
"1127 2925 CURVE SMOOTH",
"1127 2930 OFFCURVE",
"1133 2936 OFFCURVE",
"1138 2936 CURVE SMOOTH"
);
},
{
closed = 1;
nodes = (
"1712 2367 OFFCURVE",
"1717 2362 OFFCURVE",
"1717 2356 CURVE SMOOTH",
"1717 2002 OFFCURVE",
"1432 1742 OFFCURVE",
"1145 1454 CURVE SMOOTH",
"734 1044 OFFCURVE",
"580 804 OFFCURVE",
"580 569 CURVE SMOOTH",
"580 564 OFFCURVE",
"574 558 OFFCURVE",
"569 558 CURVE SMOOTH",
"564 558 OFFCURVE",
"558 564 OFFCURVE",
"558 569 CURVE SMOOTH",
"558 923 OFFCURVE",
"845 1182 OFFCURVE",
"1130 1471 CURVE SMOOTH",
"1543 1880 OFFCURVE",
"1696 2119 OFFCURVE",
"1696 2356 CURVE SMOOTH",
"1696 2362 OFFCURVE",
"1701 2367 OFFCURVE",
"1707 2367 CURVE SMOOTH"
);
},
{
closed = 1;
nodes = (
"558 574 OFFCURVE",
"564 580 OFFCURVE",
"569 580 CURVE SMOOTH",
"574 580 OFFCURVE",
"580 574 OFFCURVE",
"580 569 CURVE SMOOTH",
"580 355 OFFCURVE",
"692 173 OFFCURVE",
"888 69 CURVE SMOOTH",
"962 33 OFFCURVE",
"1056 11 OFFCURVE",
"1138 11 CURVE SMOOTH",
"1143 11 OFFCURVE",
"1148 6 OFFCURVE",
"1148 0 CURVE SMOOTH",
"1148 -6 OFFCURVE",
"1143 -11 OFFCURVE",
"1138 -11 CURVE SMOOTH",
"984 -11 OFFCURVE",
"836 50 OFFCURVE",
"728 159 CURVE SMOOTH",
"619 267 OFFCURVE",
"558 415 OFFCURVE",
"558 569 CURVE SMOOTH"
);
}
);
width = 2275;
},
{
layerId = "A6394422-5114-4E65-BA08-40D408A20CD5";
paths = (
{
closed = 1;
nodes = (
"814 2801 OFFCURVE",
"1014 2600 OFFCURVE",
"1014 2356 CURVE SMOOTH",
"1014 569 LINE SMOOTH",
"1014 324 OFFCURVE",
"813 124 OFFCURVE",
"569 124 CURVE SMOOTH",
"324 124 OFFCURVE",
"124 325 OFFCURVE",
"124 569 CURVE SMOOTH",
"124 2356 LINE SMOOTH",
"124 2601 OFFCURVE",
"325 2801 OFFCURVE",
"569 2801 CURVE SMOOTH"
);
},
{
closed = 1;
nodes = (
"1383 3370 OFFCURVE",
"1582 3171 OFFCURVE",
"1582 2925 CURVE SMOOTH",
"1582 2679 OFFCURVE",
"1383 2480 OFFCURVE",
"1138 2480 CURVE SMOOTH",
"1098 2480 OFFCURVE",
"1067 2465 OFFCURVE",
"1039 2433 CURVE SMOOTH",
"1022 2412 OFFCURVE",
"1014 2388 OFFCURVE",
"1014 2356 CURVE SMOOTH",
"1014 2111 OFFCURVE",
"815 1912 OFFCURVE",
"569 1911 CURVE SMOOTH",
"323 1912 OFFCURVE",
"124 2111 OFFCURVE",
"124 2356 CURVE SMOOTH",
"124 2623 OFFCURVE",
"232 2884 OFFCURVE",
"421 3073 CURVE SMOOTH",
"610 3262 OFFCURVE",
"871 3370 OFFCURVE",
"1138 3370 CURVE SMOOTH"
);
},
{
closed = 1;
nodes = (
"1952 1014 OFFCURVE",
"2151 815 OFFCURVE",
"2151 569 CURVE SMOOTH",
"2151 428 OFFCURVE",
"2120 285 OFFCURVE",
"2061 151 CURVE SMOOTH",
"1901 -210 OFFCURVE",
"1537 -445 OFFCURVE",
"1138 -445 CURVE SMOOTH",
"893 -445 OFFCURVE",
"693 -244 OFFCURVE",
"693 0 CURVE SMOOTH",
"693 245 OFFCURVE",
"894 445 OFFCURVE",
"1138 445 CURVE SMOOTH",
"1172 445 OFFCURVE",
"1201 457 OFFCURVE",
"1225 481 CURVE SMOOTH",
"1250 506 OFFCURVE",
"1262 534 OFFCURVE",
"1262 569 CURVE SMOOTH",
"1262 814 OFFCURVE",
"1461 1014 OFFCURVE",
"1707 1014 CURVE SMOOTH"
);
},
{
closed = 1;
nodes = (
"1537 3370 OFFCURVE",
"1901 3135 OFFCURVE",
"2061 2774 CURVE SMOOTH",
"2120 2640 OFFCURVE",
"2151 2497 OFFCURVE",
"2151 2356 CURVE SMOOTH",
"2151 2111 OFFCURVE",
"1952 1912 OFFCURVE",
"1707 1911 CURVE SMOOTH",
"1461 1912 OFFCURVE",
"1262 2111 OFFCURVE",
"1262 2356 CURVE SMOOTH",
"1262 2391 OFFCURVE",
"1250 2419 OFFCURVE",
"1225 2444 CURVE SMOOTH",
"1201 2468 OFFCURVE",
"1172 2480 OFFCURVE",
"1138 2480 CURVE SMOOTH",
"893 2480 OFFCURVE",
"693 2681 OFFCURVE",
"693 2925 CURVE SMOOTH",
"693 3170 OFFCURVE",
"894 3370 OFFCURVE",
"1138 3370 CURVE SMOOTH"
);
},
{
closed = 1;
nodes = (
"1952 2801 OFFCURVE",
"2151 2602 OFFCURVE",
"2151 2356 CURVE SMOOTH",
"2151 1811 OFFCURVE",
"1732 1428 OFFCURVE",
"1452 1147 CURVE SMOOTH",
"1155 852 OFFCURVE",
"1014 660 OFFCURVE",
"1014 569 CURVE SMOOTH",
"1014 324 OFFCURVE",
"813 124 OFFCURVE",
"569 124 CURVE SMOOTH",
"324 124 OFFCURVE",
"124 325 OFFCURVE",
"124 569 CURVE SMOOTH",
"124 1115 OFFCURVE",
"545 1497 OFFCURVE",
"823 1778 CURVE SMOOTH",
"1125 2077 OFFCURVE",
"1262 2265 OFFCURVE",
"1262 2356 CURVE SMOOTH",
"1262 2601 OFFCURVE",
"1461 2801 OFFCURVE",
"1707 2801 CURVE SMOOTH"
);
},
{
closed = 1;
nodes = (
"124 814 OFFCURVE",
"325 1014 OFFCURVE",
"569 1014 CURVE SMOOTH",
"814 1014 OFFCURVE",
"1014 813 OFFCURVE",
"1014 569 CURVE SMOOTH",
"1014 516 OFFCURVE",
"1036 484 OFFCURVE",
"1084 456 CURVE",
"1101 449 OFFCURVE",
"1118 445 OFFCURVE",
"1138 445 CURVE SMOOTH",
"1383 445 OFFCURVE",
"1582 246 OFFCURVE",
"1582 0 CURVE SMOOTH",
"1582 -246 OFFCURVE",
"1383 -445 OFFCURVE",
"1138 -445 CURVE SMOOTH",
"871 -445 OFFCURVE",
"610 -337 OFFCURVE",
"421 -148 CURVE SMOOTH",
"232 41 OFFCURVE",
"124 302 OFFCURVE",
"124 569 CURVE SMOOTH"
);
}
);
width = 2275;
}
);
leftKerningGroup = c;
rightKerningGroup = c;
unicode = 0065;
},
{
glyphname = E;
lastChange = "2021-01-31 07:32:33 +0000";
layers = (
{
layerId = "19B6A511-96ED-40AF-BAB7-D1E16DFA4179";
paths = (
{
closed = 1;
nodes = (
"574 2367 OFFCURVE",
"580 2361 OFFCURVE",
"580 2356 CURVE SMOOTH",
"580 569 LINE SMOOTH",
"580 564 OFFCURVE",
"574 558 OFFCURVE",
"569 558 CURVE SMOOTH",
"564 558 OFFCURVE",
"558 564 OFFCURVE",
"558 569 CURVE SMOOTH",
"558 2356 LINE SMOOTH",
"558 2361 OFFCURVE",
"564 2367 OFFCURVE",
"569 2367 CURVE SMOOTH"
);
},
{
closed = 1;
nodes = (
"1143 2936 OFFCURVE",
"1148 2931 OFFCURVE",
"1148 2925 CURVE SMOOTH",
"1148 2919 OFFCURVE",
"1143 2914 OFFCURVE",
"1138 2914 CURVE SMOOTH",
"972 2914 OFFCURVE",
"818 2842 OFFCURVE",
"707 2713 CURVE SMOOTH",
"625 2614 OFFCURVE",
"580 2488 OFFCURVE",
"580 2356 CURVE SMOOTH",
"580 2351 OFFCURVE",
"575 2346 OFFCURVE",
"569 2345 CURVE",
"563 2346 OFFCURVE",
"558 2351 OFFCURVE",
"558 2356 CURVE SMOOTH",
"558 2510 OFFCURVE",
"619 2658 OFFCURVE",
"728 2766 CURVE SMOOTH",
"836 2875 OFFCURVE",
"984 2936 OFFCURVE",
"1138 2936 CURVE SMOOTH"
);
},
{
closed = 1;
nodes = (
"1712 580 OFFCURVE",
"1717 575 OFFCURVE",
"1717 569 CURVE SMOOTH",
"1717 485 OFFCURVE",
"1701 409 OFFCURVE",
"1664 326 CURVE SMOOTH",
"1573 122 OFFCURVE",
"1365 -11 OFFCURVE",
"1138 -11 CURVE SMOOTH",
"1133 -11 OFFCURVE",
"1127 -5 OFFCURVE",
"1127 0 CURVE SMOOTH",
"1127 5 OFFCURVE",
"1133 11 OFFCURVE",
"1138 11 CURVE SMOOTH",
"1286 11 OFFCURVE",
"1426 69 OFFCURVE",
"1532 174 CURVE SMOOTH",
"1637 279 OFFCURVE",
"1696 420 OFFCURVE",
"1696 569 CURVE SMOOTH",
"1696 575 OFFCURVE",
"1701 580 OFFCURVE",
"1707 580 CURVE SMOOTH"
);
},
{
closed = 1;
nodes = (
"1365 2936 OFFCURVE",
"1573 2803 OFFCURVE",
"1664 2599 CURVE SMOOTH",
"1701 2516 OFFCURVE",
"1717 2440 OFFCURVE",
"1717 2356 CURVE SMOOTH",
"1717 2351 OFFCURVE",
"1713 2346 OFFCURVE",
"1707 2345 CURVE",
"1701 2346 OFFCURVE",
"1696 2351 OFFCURVE",
"1696 2356 CURVE SMOOTH",
"1696 2505 OFFCURVE",
"1637 2646 OFFCURVE",
"1532 2751 CURVE SMOOTH",
"1426 2856 OFFCURVE",
"1286 2914 OFFCURVE",
"1138 2914 CURVE SMOOTH",
"1133 2914 OFFCURVE",
"1127 2920 OFFCURVE",
"1127 2925 CURVE SMOOTH",
"1127 2930 OFFCURVE",
"1133 2936 OFFCURVE",
"1138 2936 CURVE SMOOTH"
);
},
{
closed = 1;
nodes = (
"574 580 OFFCURVE",
"580 574 OFFCURVE",
"580 569 CURVE SMOOTH",
"580 355 OFFCURVE",
"692 173 OFFCURVE",
"888 69 CURVE SMOOTH",
"962 33 OFFCURVE",
"1056 11 OFFCURVE",
"1138 11 CURVE SMOOTH",
"1143 11 OFFCURVE",
"1148 6 OFFCURVE",
"1148 0 CURVE SMOOTH",
"1148 -6 OFFCURVE",
"1143 -11 OFFCURVE",
"1138 -11 CURVE SMOOTH",
"984 -11 OFFCURVE",
"836 50 OFFCURVE",
"728 159 CURVE SMOOTH",
"619 267 OFFCURVE",
"558 415 OFFCURVE",
"558 569 CURVE SMOOTH",
"558 574 OFFCURVE",
"564 580 OFFCURVE",
"569 580 CURVE SMOOTH"
);
},
{
closed = 1;
nodes = (
"558 1468 OFFCURVE",
"563 1473 OFFCURVE",
"569 1473 CURVE SMOOTH",
"1138 1473 LINE SMOOTH",
"1143 1473 OFFCURVE",
"1148 1468 OFFCURVE",
"1148 1463 CURVE SMOOTH",
"1148 1456 OFFCURVE",
"1144 1452 OFFCURVE",
"1138 1452 CURVE SMOOTH",
"569 1452 LINE SMOOTH",
"563 1452 OFFCURVE",
"558 1457 OFFCURVE",
"558 1463 CURVE SMOOTH"
);
}
);
width = 2275;
},
{
layerId = "A6394422-5114-4E65-BA08-40D408A20CD5";
paths = (
{
closed = 1;
nodes = (
"814 2801 OFFCURVE",
"1014 2600 OFFCURVE",
"1014 2356 CURVE SMOOTH",
"1014 569 LINE SMOOTH",
"1014 324 OFFCURVE",
"813 124 OFFCURVE",
"569 124 CURVE SMOOTH",
"324 124 OFFCURVE",
"124 325 OFFCURVE",
"124 569 CURVE SMOOTH",
"124 2356 LINE SMOOTH",
"124 2601 OFFCURVE",
"325 2801 OFFCURVE",
"569 2801 CURVE SMOOTH"
);
},
{
closed = 1;
nodes = (
"1383 3370 OFFCURVE",
"1582 3171 OFFCURVE",
"1582 2925 CURVE SMOOTH",
"1582 2679 OFFCURVE",
"1383 2480 OFFCURVE",
"1138 2480 CURVE SMOOTH",
"1098 2480 OFFCURVE",
"1067 2465 OFFCURVE",
"1039 2433 CURVE SMOOTH",
"1022 2412 OFFCURVE",
"1014 2388 OFFCURVE",
"1014 2356 CURVE SMOOTH",
"1014 2111 OFFCURVE",
"815 1912 OFFCURVE",
"569 1911 CURVE SMOOTH",
"323 1912 OFFCURVE",
"124 2111 OFFCURVE",
"124 2356 CURVE SMOOTH",
"124 2623 OFFCURVE",
"232 2884 OFFCURVE",
"421 3073 CURVE SMOOTH",
"610 3262 OFFCURVE",
"871 3370 OFFCURVE",
"1138 3370 CURVE SMOOTH"
);
},
{
closed = 1;
nodes = (
"1952 1014 OFFCURVE",
"2151 815 OFFCURVE",
"2151 569 CURVE SMOOTH",
"2151 428 OFFCURVE",
"2120 285 OFFCURVE",
"2061 151 CURVE SMOOTH",
"1901 -210 OFFCURVE",
"1537 -445 OFFCURVE",
"1138 -445 CURVE SMOOTH",
"893 -445 OFFCURVE",
"693 -244 OFFCURVE",
"693 0 CURVE SMOOTH",
"693 245 OFFCURVE",
"894 445 OFFCURVE",
"1138 445 CURVE SMOOTH",
"1172 445 OFFCURVE",
"1201 457 OFFCURVE",
"1225 481 CURVE SMOOTH",
"1250 506 OFFCURVE",
"1262 534 OFFCURVE",
"1262 569 CURVE SMOOTH",
"1262 814 OFFCURVE",
"1461 1014 OFFCURVE",
"1707 1014 CURVE SMOOTH"
);
},
{
closed = 1;
nodes = (
"1537 3370 OFFCURVE",
"1901 3135 OFFCURVE",
"2061 2774 CURVE SMOOTH",
"2120 2640 OFFCURVE",
"2151 2497 OFFCURVE",
"2151 2356 CURVE SMOOTH",
"2151 2111 OFFCURVE",
"1952 1912 OFFCURVE",
"1707 1911 CURVE SMOOTH",
"1461 1912 OFFCURVE",
"1262 2111 OFFCURVE",
"1262 2356 CURVE SMOOTH",
"1262 2391 OFFCURVE",
"1250 2419 OFFCURVE",
"1225 2444 CURVE SMOOTH",
"1201 2468 OFFCURVE",
"1172 2480 OFFCURVE",
"1138 2480 CURVE SMOOTH",
"893 2480 OFFCURVE",
"693 2681 OFFCURVE",
"693 2925 CURVE SMOOTH",
"693 3170 OFFCURVE",
"894 3370 OFFCURVE",
"1138 3370 CURVE SMOOTH"
);
},
{
closed = 1;
nodes = (
"814 1014 OFFCURVE",
"1014 813 OFFCURVE",
"1014 569 CURVE SMOOTH",
"1014 516 OFFCURVE",
"1036 484 OFFCURVE",
"1084 456 CURVE",
"1101 449 OFFCURVE",
"1118 445 OFFCURVE",
"1138 445 CURVE SMOOTH",
"1383 445 OFFCURVE",
"1582 246 OFFCURVE",
"1582 0 CURVE SMOOTH",
"1582 -246 OFFCURVE",
"1383 -445 OFFCURVE",
"1138 -445 CURVE SMOOTH",
"871 -445 OFFCURVE",
"610 -337 OFFCURVE",
"421 -148 CURVE SMOOTH",
"232 41 OFFCURVE",
"124 302 OFFCURVE",
"124 569 CURVE SMOOTH",
"124 814 OFFCURVE",
"325 1014 OFFCURVE",
"569 1014 CURVE SMOOTH"
);
},
{
closed = 1;
nodes = (
"124 1708 OFFCURVE",
"323 1907 OFFCURVE",
"569 1907 CURVE SMOOTH",
"1138 1907 LINE SMOOTH",
"1383 1907 OFFCURVE",
"1582 1707 OFFCURVE",
"1582 1463 CURVE SMOOTH",
"1582 1216 OFFCURVE",
"1384 1018 OFFCURVE",
"1138 1018 CURVE SMOOTH",
"569 1018 LINE SMOOTH",
"324 1018 OFFCURVE",
"124 1217 OFFCURVE",
"124 1463 CURVE SMOOTH"
);
}
);
width = 2275;
}
);
leftKerningGroup = c;
rightKerningGroup = c;
unicode = 0045;
},
{
glyphname = A;
lastChange = "2021-01-31 07:32:33 +0000";
layers = (
{
layerId = "19B6A511-96ED-40AF-BAB7-D1E16DFA4179";
paths = (
{
closed = 1;
nodes = (
"558 2925 LINE SMOOTH",
"558 2930 OFFCURVE",
"564 2936 OFFCURVE",
"569 2936 CURVE SMOOTH",
"574 2936 OFFCURVE",
"580 2930 OFFCURVE",
"580 2925 CURVE SMOOTH",
"580 1473 LINE",
"1696 1473 LINE",
"1696 2925 LINE SMOOTH",
"1696 2931 OFFCURVE",
"1701 2936 OFFCURVE",
"1707 2936 CURVE SMOOTH",
"1712 2936 OFFCURVE",
"1717 2931 OFFCURVE",
"1717 2925 CURVE SMOOTH",
"1717 569 LINE SMOOTH",
"1717 485 OFFCURVE",
"1701 409 OFFCURVE",
"1664 326 CURVE SMOOTH",
"1573 122 OFFCURVE",
"1365 -11 OFFCURVE",
"1138 -11 CURVE SMOOTH",
"984 -11 OFFCURVE",
"836 50 OFFCURVE",
"728 159 CURVE SMOOTH",
"619 267 OFFCURVE",
"558 415 OFFCURVE",
"558 569 CURVE SMOOTH"
);
},
{
closed = 1;
nodes = (
"580 355 OFFCURVE",
"692 173 OFFCURVE",
"888 69 CURVE SMOOTH",
"962 33 OFFCURVE",
"1056 11 OFFCURVE",
"1138 11 CURVE SMOOTH",
"1286 11 OFFCURVE",
"1426 69 OFFCURVE",
"1532 174 CURVE SMOOTH",
"1637 279 OFFCURVE",
"1696 420 OFFCURVE",
"1696 569 CURVE SMOOTH",
"1696 1452 LINE",
"580 1452 LINE",
"580 569 LINE SMOOTH"
);
}
);
width = 2275;
},
{
layerId = "A6394422-5114-4E65-BA08-40D408A20CD5";
paths = (
{
closed = 1;
nodes = (
"124 2925 LINE SMOOTH",
"124 3170 OFFCURVE",
"325 3370 OFFCURVE",
"569 3370 CURVE SMOOTH",
"814 3370 OFFCURVE",
"1014 3169 OFFCURVE",
"1014 2925 CURVE SMOOTH",
"1014 1907 LINE",
"1262 1907 LINE",
"1262 2925 LINE SMOOTH",
"1262 3170 OFFCURVE",
"1461 3370 OFFCURVE",
"1707 3370 CURVE SMOOTH",
"1952 3370 OFFCURVE",
"2151 3171 OFFCURVE",
"2151 2925 CURVE SMOOTH",
"2151 569 LINE SMOOTH",
"2151 428 OFFCURVE",
"2120 285 OFFCURVE",
"2061 151 CURVE SMOOTH",
"1901 -210 OFFCURVE",
"1537 -445 OFFCURVE",
"1138 -445 CURVE SMOOTH",
"871 -445 OFFCURVE",
"610 -337 OFFCURVE",
"421 -148 CURVE SMOOTH",
"232 41 OFFCURVE",
"124 302 OFFCURVE",
"124 569 CURVE SMOOTH"
);
},
{
closed = 1;
nodes = (
"1014 516 OFFCURVE",
"1036 484 OFFCURVE",
"1084 456 CURVE",
"1101 449 OFFCURVE",
"1118 445 OFFCURVE",
"1138 445 CURVE SMOOTH",
"1172 445 OFFCURVE",
"1201 457 OFFCURVE",
"1225 481 CURVE SMOOTH",
"1250 506 OFFCURVE",
"1262 534 OFFCURVE",
"1262 569 CURVE SMOOTH",
"1262 1018 LINE",
"1014 1018 LINE",
"1014 569 LINE SMOOTH"
);
}
);
width = 2275;
}
);
leftKerningGroup = c;
rightKerningGroup = c;
unicode = 0041;
},
{
glyphname = Y;
lastChange = "2021-01-31 07:32:33 +0000";
layers = (
{
layerId = "19B6A511-96ED-40AF-BAB7-D1E16DFA4179";
paths = (
{
closed = 1;
nodes = (
"574 2936 OFFCURVE",
"580 2930 OFFCURVE",
"580 2925 CURVE SMOOTH",
"580 2356 LINE SMOOTH",
"580 2351 OFFCURVE",
"575 2346 OFFCURVE",
"569 2345 CURVE",
"563 2346 OFFCURVE",
"558 2351 OFFCURVE",
"558 2356 CURVE SMOOTH",
"558 2925 LINE SMOOTH",
"558 2930 OFFCURVE",
"564 2936 OFFCURVE",
"569 2936 CURVE SMOOTH"
);
},
{
closed = 1;
nodes = (
"574 2367 OFFCURVE",
"580 2361 OFFCURVE",
"580 2356 CURVE SMOOTH",
"580 2121 OFFCURVE",
"734 1881 OFFCURVE",
"1145 1471 CURVE SMOOTH",
"1432 1183 OFFCURVE",
"1717 923 OFFCURVE",
"1717 569 CURVE SMOOTH",
"1717 563 OFFCURVE",
"1712 558 OFFCURVE",
"1707 558 CURVE SMOOTH",
"1701 558 OFFCURVE",
"1696 563 OFFCURVE",
"1696 569 CURVE SMOOTH",
"1696 806 OFFCURVE",
"1543 1045 OFFCURVE",
"1130 1454 CURVE SMOOTH",
"845 1743 OFFCURVE",
"558 2002 OFFCURVE",
"558 2356 CURVE SMOOTH",
"558 2361 OFFCURVE",
"564 2367 OFFCURVE",
"569 2367 CURVE SMOOTH"
);
},
{
closed = 1;
nodes = (
"1712 580 OFFCURVE",
"1717 575 OFFCURVE",
"1717 569 CURVE SMOOTH",
"1717 485 OFFCURVE",
"1701 409 OFFCURVE",
"1664 326 CURVE SMOOTH",
"1573 122 OFFCURVE",
"1365 -11 OFFCURVE",
"1138 -11 CURVE SMOOTH",
"1133 -11 OFFCURVE",
"1127 -5 OFFCURVE",
"1127 0 CURVE SMOOTH",
"1127 5 OFFCURVE",
"1133 11 OFFCURVE",
"1138 11 CURVE SMOOTH",
"1286 11 OFFCURVE",
"1426 69 OFFCURVE",
"1532 174 CURVE SMOOTH",
"1637 279 OFFCURVE",
"1696 420 OFFCURVE",
"1696 569 CURVE SMOOTH",
"1696 575 OFFCURVE",
"1701 580 OFFCURVE",
"1707 580 CURVE SMOOTH"
);
},
{
closed = 1;
nodes = (
"1712 2367 OFFCURVE",
"1717 2362 OFFCURVE",
"1717 2356 CURVE SMOOTH",
"1717 2002 OFFCURVE",
"1432 1742 OFFCURVE",
"1145 1454 CURVE SMOOTH",
"734 1044 OFFCURVE",
"580 804 OFFCURVE",
"580 569 CURVE SMOOTH",
"580 564 OFFCURVE",
"574 558 OFFCURVE",
"569 558 CURVE SMOOTH",
"564 558 OFFCURVE",
"558 564 OFFCURVE",
"558 569 CURVE SMOOTH",
"558 923 OFFCURVE",
"845 1182 OFFCURVE",
"1130 1471 CURVE SMOOTH",
"1543 1880 OFFCURVE",
"1696 2119 OFFCURVE",
"1696 2356 CURVE SMOOTH",
"1696 2362 OFFCURVE",
"1701 2367 OFFCURVE",
"1707 2367 CURVE SMOOTH"
);
},
{
closed = 1;
nodes = (
"574 580 OFFCURVE",
"580 574 OFFCURVE",
"580 569 CURVE SMOOTH",
"580 355 OFFCURVE",
"692 173 OFFCURVE",
"888 69 CURVE SMOOTH",
"962 33 OFFCURVE",
"1056 11 OFFCURVE",
"1138 11 CURVE SMOOTH",
"1143 11 OFFCURVE",
"1148 6 OFFCURVE",
"1148 0 CURVE SMOOTH",
"1148 -6 OFFCURVE",
"1143 -11 OFFCURVE",
"1138 -11 CURVE SMOOTH",
"984 -11 OFFCURVE",
"836 50 OFFCURVE",
"728 159 CURVE SMOOTH",
"619 267 OFFCURVE",
"558 415 OFFCURVE",
"558 569 CURVE SMOOTH",
"558 574 OFFCURVE",
"564 580 OFFCURVE",
"569 580 CURVE SMOOTH"
);
},
{
closed = 1;
nodes = (
"1696 2925 LINE SMOOTH",
"1696 2931 OFFCURVE",
"1701 2936 OFFCURVE",
"1707 2936 CURVE SMOOTH",
"1712 2936 OFFCURVE",
"1717 2931 OFFCURVE",
"1717 2925 CURVE SMOOTH",
"1717 2356 LINE SMOOTH",
"1717 2351 OFFCURVE",
"1713 2346 OFFCURVE",
"1707 2345 CURVE",
"1701 2346 OFFCURVE",
"1696 2351 OFFCURVE",
"1696 2356 CURVE SMOOTH"
);
}
);
width = 2275;
},
{
layerId = "A6394422-5114-4E65-BA08-40D408A20CD5";
paths = (
{
closed = 1;
nodes = (
"814 3370 OFFCURVE",
"1014 3169 OFFCURVE",
"1014 2925 CURVE SMOOTH",
"1014 2356 LINE SMOOTH",
"1014 2111 OFFCURVE",
"815 1912 OFFCURVE",
"569 1911 CURVE SMOOTH",
"323 1912 OFFCURVE",
"124 2111 OFFCURVE",
"124 2356 CURVE SMOOTH",
"124 2925 LINE SMOOTH",
"124 3170 OFFCURVE",
"325 3370 OFFCURVE",
"569 3370 CURVE SMOOTH"
);
},
{
closed = 1;
nodes = (
"814 2801 OFFCURVE",
"1014 2600 OFFCURVE",
"1014 2356 CURVE SMOOTH",
"1014 2265 OFFCURVE",
"1155 2073 OFFCURVE",
"1452 1778 CURVE SMOOTH",
"1732 1497 OFFCURVE",
"2151 1114 OFFCURVE",
"2151 569 CURVE SMOOTH",
"2151 323 OFFCURVE",
"1952 124 OFFCURVE",
"1707 124 CURVE SMOOTH",
"1462 124 OFFCURVE",
"1262 323 OFFCURVE",
"1262 569 CURVE SMOOTH",
"1262 660 OFFCURVE",
"1125 848 OFFCURVE",
"823 1147 CURVE SMOOTH",
"545 1428 OFFCURVE",
"124 1810 OFFCURVE",
"124 2356 CURVE SMOOTH",
"124 2601 OFFCURVE",
"325 2801 OFFCURVE",
"569 2801 CURVE SMOOTH"
);
},
{
closed = 1;
nodes = (
"1952 1014 OFFCURVE",
"2151 815 OFFCURVE",
"2151 569 CURVE SMOOTH",
"2151 428 OFFCURVE",
"2120 285 OFFCURVE",
"2061 151 CURVE SMOOTH",
"1901 -210 OFFCURVE",
"1537 -445 OFFCURVE",
"1138 -445 CURVE SMOOTH",
"893 -445 OFFCURVE",
"693 -244 OFFCURVE",
"693 0 CURVE SMOOTH",
"693 245 OFFCURVE",
"894 445 OFFCURVE",
"1138 445 CURVE SMOOTH",
"1172 445 OFFCURVE",
"1201 457 OFFCURVE",
"1225 481 CURVE SMOOTH",
"1250 506 OFFCURVE",
"1262 534 OFFCURVE",
"1262 569 CURVE SMOOTH",
"1262 814 OFFCURVE",
"1461 1014 OFFCURVE",
"1707 1014 CURVE SMOOTH"
);
},
{
closed = 1;
nodes = (
"1952 2801 OFFCURVE",
"2151 2602 OFFCURVE",
"2151 2356 CURVE SMOOTH",
"2151 1811 OFFCURVE",
"1732 1428 OFFCURVE",
"1452 1147 CURVE SMOOTH",
"1155 852 OFFCURVE",
"1014 660 OFFCURVE",
"1014 569 CURVE SMOOTH",
"1014 324 OFFCURVE",
"813 124 OFFCURVE",
"569 124 CURVE SMOOTH",
"324 124 OFFCURVE",
"124 325 OFFCURVE",
"124 569 CURVE SMOOTH",
"124 1115 OFFCURVE",
"545 1497 OFFCURVE",
"823 1778 CURVE SMOOTH",
"1125 2077 OFFCURVE",
"1262 2265 OFFCURVE",
"1262 2356 CURVE SMOOTH",
"1262 2601 OFFCURVE",
"1461 2801 OFFCURVE",
"1707 2801 CURVE SMOOTH"
);
},
{
closed = 1;
nodes = (
"814 1014 OFFCURVE",
"1014 813 OFFCURVE",
"1014 569 CURVE SMOOTH",
"1014 516 OFFCURVE",
"1036 484 OFFCURVE",
"1084 456 CURVE",
"1101 449 OFFCURVE",
"1118 445 OFFCURVE",
"1138 445 CURVE SMOOTH",
"1383 445 OFFCURVE",
"1582 246 OFFCURVE",
"1582 0 CURVE SMOOTH",
"1582 -246 OFFCURVE",
"1383 -445 OFFCURVE",
"1138 -445 CURVE SMOOTH",
"871 -445 OFFCURVE",
"610 -337 OFFCURVE",
"421 -148 CURVE SMOOTH",
"232 41 OFFCURVE",
"124 302 OFFCURVE",
"124 569 CURVE SMOOTH",
"124 814 OFFCURVE",
"325 1014 OFFCURVE",
"569 1014 CURVE SMOOTH"
);
},
{
closed = 1;
nodes = (
"1262 2925 LINE SMOOTH",
"1262 3170 OFFCURVE",
"1461 3370 OFFCURVE",
"1707 3370 CURVE SMOOTH",
"1952 3370 OFFCURVE",
"2151 3171 OFFCURVE",
"2151 2925 CURVE SMOOTH",
"2151 2356 LINE SMOOTH",
"2151 2111 OFFCURVE",
"1952 1912 OFFCURVE",
"1707 1911 CURVE SMOOTH",
"1461 1912 OFFCURVE",
"1262 2111 OFFCURVE",
"1262 2356 CURVE SMOOTH"
);
}
);
width = 2275;
}
);
leftKerningGroup = c;
rightKerningGroup = c;
unicode = 0059;
},
{
glyphname = L;
lastChange = "2021-01-31 07:32:33 +0000";
layers = (
{
layerId = "19B6A511-96ED-40AF-BAB7-D1E16DFA4179";
paths = (
{
closed = 1;
nodes = (
"574 580 OFFCURVE",
"580 574 OFFCURVE",
"580 569 CURVE SMOOTH",
"580 0 LINE SMOOTH",
"580 -5 OFFCURVE",
"574 -11 OFFCURVE",
"569 -11 CURVE SMOOTH",
"564 -11 OFFCURVE",
"558 -5 OFFCURVE",
"558 0 CURVE SMOOTH",
"558 569 LINE SMOOTH",
"558 574 OFFCURVE",
"564 580 OFFCURVE",
"569 580 CURVE SMOOTH"
);
},
{
closed = 1;
nodes = (
"1143 2936 OFFCURVE",
"1148 2931 OFFCURVE",
"1148 2925 CURVE SMOOTH",
"1148 2919 OFFCURVE",
"1143 2914 OFFCURVE",
"1138 2914 CURVE SMOOTH",
"972 2914 OFFCURVE",
"818 2842 OFFCURVE",
"707 2713 CURVE SMOOTH",
"625 2614 OFFCURVE",
"580 2488 OFFCURVE",
"580 2356 CURVE SMOOTH",
"580 2351 OFFCURVE",
"575 2346 OFFCURVE",
"569 2345 CURVE",
"563 2346 OFFCURVE",
"558 2351 OFFCURVE",
"558 2356 CURVE SMOOTH",
"558 2510 OFFCURVE",
"619 2658 OFFCURVE",
"728 2766 CURVE SMOOTH",
"836 2875 OFFCURVE",
"984 2936 OFFCURVE",
"1138 2936 CURVE SMOOTH"
);
},
{
closed = 1;
nodes = (
"1365 2936 OFFCURVE",
"1573 2803 OFFCURVE",
"1664 2599 CURVE SMOOTH",
"1701 2516 OFFCURVE",
"1717 2440 OFFCURVE",
"1717 2356 CURVE SMOOTH",
"1717 2351 OFFCURVE",
"1713 2346 OFFCURVE",
"1707 2345 CURVE",
"1701 2346 OFFCURVE",
"1696 2351 OFFCURVE",
"1696 2356 CURVE SMOOTH",
"1696 2505 OFFCURVE",
"1637 2646 OFFCURVE",
"1532 2751 CURVE SMOOTH",
"1426 2856 OFFCURVE",
"1286 2914 OFFCURVE",
"1138 2914 CURVE SMOOTH",
"1133 2914 OFFCURVE",
"1127 2920 OFFCURVE",
"1127 2925 CURVE SMOOTH",
"1127 2930 OFFCURVE",
"1133 2936 OFFCURVE",
"1138 2936 CURVE SMOOTH"
);
},
{
closed = 1;
nodes = (
"1712 2367 OFFCURVE",
"1717 2362 OFFCURVE",
"1717 2356 CURVE SMOOTH",
"1717 2002 OFFCURVE",
"1432 1742 OFFCURVE",
"1145 1454 CURVE SMOOTH",
"734 1044 OFFCURVE",
"580 804 OFFCURVE",
"580 569 CURVE SMOOTH",
"580 564 OFFCURVE",
"574 558 OFFCURVE",
"569 558 CURVE SMOOTH",
"564 558 OFFCURVE",
"558 564 OFFCURVE",
"558 569 CURVE SMOOTH",
"558 923 OFFCURVE",
"845 1182 OFFCURVE",
"1130 1471 CURVE SMOOTH",
"1543 1880 OFFCURVE",
"1696 2119 OFFCURVE",
"1696 2356 CURVE SMOOTH",
"1696 2362 OFFCURVE",
"1701 2367 OFFCURVE",
"1707 2367 CURVE SMOOTH"
);
},
{
closed = 1;
nodes = (
"1712 2367 OFFCURVE",
"1717 2362 OFFCURVE",
"1717 2356 CURVE SMOOTH",
"1717 569 LINE SMOOTH",
"1717 563 OFFCURVE",
"1712 558 OFFCURVE",
"1707 558 CURVE SMOOTH",
"1701 558 OFFCURVE",
"1696 563 OFFCURVE",
"1696 569 CURVE SMOOTH",
"1696 2356 LINE SMOOTH",
"1696 2362 OFFCURVE",
"1701 2367 OFFCURVE",
"1707 2367 CURVE SMOOTH"
);
},
{
closed = 1;
nodes = (
"1696 569 LINE SMOOTH",
"1696 575 OFFCURVE",
"1701 580 OFFCURVE",
"1707 580 CURVE SMOOTH",
"1712 580 OFFCURVE",
"1717 575 OFFCURVE",
"1717 569 CURVE SMOOTH",
"1717 0 LINE SMOOTH",
"1717 -6 OFFCURVE",
"1712 -11 OFFCURVE",
"1707 -11 CURVE SMOOTH",
"1701 -11 OFFCURVE",
"1696 -6 OFFCURVE",
"1696 0 CURVE SMOOTH"
);
}
);
width = 2275;
},
{
layerId = "A6394422-5114-4E65-BA08-40D408A20CD5";
paths = (
{
closed = 1;
nodes = (
"814 1014 OFFCURVE",
"1014 813 OFFCURVE",
"1014 569 CURVE SMOOTH",
"1014 0 LINE SMOOTH",
"1014 -245 OFFCURVE",
"813 -445 OFFCURVE",
"569 -445 CURVE SMOOTH",
"324 -445 OFFCURVE",
"124 -244 OFFCURVE",
"124 0 CURVE SMOOTH",
"124 569 LINE SMOOTH",
"124 814 OFFCURVE",
"325 1014 OFFCURVE",
"569 1014 CURVE SMOOTH"
);
},
{
closed = 1;
nodes = (
"1383 3370 OFFCURVE",
"1582 3171 OFFCURVE",
"1582 2925 CURVE SMOOTH",
"1582 2679 OFFCURVE",
"1383 2480 OFFCURVE",
"1138 2480 CURVE SMOOTH",
"1098 2480 OFFCURVE",
"1067 2465 OFFCURVE",
"1039 2433 CURVE SMOOTH",
"1022 2412 OFFCURVE",
"1014 2388 OFFCURVE",
"1014 2356 CURVE SMOOTH",
"1014 2111 OFFCURVE",
"815 1912 OFFCURVE",
"569 1911 CURVE SMOOTH",
"323 1912 OFFCURVE",
"124 2111 OFFCURVE",
"124 2356 CURVE SMOOTH",
"124 2623 OFFCURVE",
"232 2884 OFFCURVE",
"421 3073 CURVE SMOOTH",
"610 3262 OFFCURVE",
"871 3370 OFFCURVE",
"1138 3370 CURVE SMOOTH"
);
},
{
closed = 1;
nodes = (
"1537 3370 OFFCURVE",
"1901 3135 OFFCURVE",
"2061 2774 CURVE SMOOTH",
"2120 2640 OFFCURVE",
"2151 2497 OFFCURVE",
"2151 2356 CURVE SMOOTH",
"2151 2111 OFFCURVE",
"1952 1912 OFFCURVE",
"1707 1911 CURVE SMOOTH",
"1461 1912 OFFCURVE",
"1262 2111 OFFCURVE",
"1262 2356 CURVE SMOOTH",
"1262 2391 OFFCURVE",
"1250 2419 OFFCURVE",
"1225 2444 CURVE SMOOTH",
"1201 2468 OFFCURVE",
"1172 2480 OFFCURVE",
"1138 2480 CURVE SMOOTH",
"893 2480 OFFCURVE",
"693 2681 OFFCURVE",
"693 2925 CURVE SMOOTH",
"693 3170 OFFCURVE",
"894 3370 OFFCURVE",
"1138 3370 CURVE SMOOTH"
);
},
{
closed = 1;
nodes = (
"1952 2801 OFFCURVE",
"2151 2602 OFFCURVE",
"2151 2356 CURVE SMOOTH",
"2151 1811 OFFCURVE",
"1732 1428 OFFCURVE",
"1452 1147 CURVE SMOOTH",
"1155 852 OFFCURVE",
"1014 660 OFFCURVE",
"1014 569 CURVE SMOOTH",
"1014 324 OFFCURVE",
"813 124 OFFCURVE",
"569 124 CURVE SMOOTH",
"324 124 OFFCURVE",
"124 325 OFFCURVE",
"124 569 CURVE SMOOTH",
"124 1115 OFFCURVE",
"545 1497 OFFCURVE",
"823 1778 CURVE SMOOTH",
"1125 2077 OFFCURVE",
"1262 2265 OFFCURVE",
"1262 2356 CURVE SMOOTH",
"1262 2601 OFFCURVE",
"1461 2801 OFFCURVE",
"1707 2801 CURVE SMOOTH"
);
},
{
closed = 1;
nodes = (
"1952 2801 OFFCURVE",
"2151 2602 OFFCURVE",
"2151 2356 CURVE SMOOTH",
"2151 569 LINE SMOOTH",
"2151 323 OFFCURVE",
"1952 124 OFFCURVE",
"1707 124 CURVE SMOOTH",
"1462 124 OFFCURVE",
"1262 323 OFFCURVE",
"1262 569 CURVE SMOOTH",
"1262 2356 LINE SMOOTH",
"1262 2601 OFFCURVE",
"1461 2801 OFFCURVE",
"1707 2801 CURVE SMOOTH"
);
},
{
closed = 1;
nodes = (
"1262 569 LINE SMOOTH",
"1262 814 OFFCURVE",
"1461 1014 OFFCURVE",
"1707 1014 CURVE SMOOTH",
"1952 1014 OFFCURVE",
"2151 815 OFFCURVE",
"2151 569 CURVE SMOOTH",
"2151 0 LINE SMOOTH",
"2151 -246 OFFCURVE",
"1952 -445 OFFCURVE",
"1707 -445 CURVE SMOOTH",
"1462 -445 OFFCURVE",
"1262 -246 OFFCURVE",
"1262 0 CURVE SMOOTH"
);
}
);
width = 2275;
}
);
leftKerningGroup = h;
rightKerningGroup = h;
unicode = 004C;
},
{
glyphname = six;
lastChange = "2021-01-31 07:32:33 +0000";
layers = (
{
layerId = "19B6A511-96ED-40AF-BAB7-D1E16DFA4179";
paths = (
{
closed = 1;
nodes = (
"574 2367 OFFCURVE",
"580 2361 OFFCURVE",
"580 2356 CURVE SMOOTH",
"580 569 LINE SMOOTH",
"580 564 OFFCURVE",
"574 558 OFFCURVE",
"569 558 CURVE SMOOTH",
"564 558 OFFCURVE",
"558 564 OFFCURVE",
"558 569 CURVE SMOOTH",
"558 2356 LINE SMOOTH",
"558 2361 OFFCURVE",
"564 2367 OFFCURVE",
"569 2367 CURVE SMOOTH"
);
},
{
closed = 1;
nodes = (
"1143 2936 OFFCURVE",
"1148 2931 OFFCURVE",
"1148 2925 CURVE SMOOTH",
"1148 2919 OFFCURVE",
"1143 2914 OFFCURVE",
"1138 2914 CURVE SMOOTH",
"972 2914 OFFCURVE",
"818 2842 OFFCURVE",
"707 2713 CURVE SMOOTH",
"625 2614 OFFCURVE",
"580 2488 OFFCURVE",
"580 2356 CURVE SMOOTH",
"580 2351 OFFCURVE",
"575 2346 OFFCURVE",
"569 2345 CURVE",
"563 2346 OFFCURVE",
"558 2351 OFFCURVE",
"558 2356 CURVE SMOOTH",
"558 2510 OFFCURVE",
"619 2658 OFFCURVE",
"728 2766 CURVE SMOOTH",
"836 2875 OFFCURVE",
"984 2936 OFFCURVE",
"1138 2936 CURVE SMOOTH"
);
},
{
closed = 1;
nodes = (
"574 2367 OFFCURVE",
"580 2361 OFFCURVE",
"580 2356 CURVE SMOOTH",
"580 2121 OFFCURVE",
"734 1881 OFFCURVE",
"1145 1471 CURVE SMOOTH",
"1432 1183 OFFCURVE",
"1717 923 OFFCURVE",
"1717 569 CURVE SMOOTH",
"1717 563 OFFCURVE",
"1712 558 OFFCURVE",
"1707 558 CURVE SMOOTH",
"1701 558 OFFCURVE",
"1696 563 OFFCURVE",
"1696 569 CURVE SMOOTH",
"1696 806 OFFCURVE",
"1543 1045 OFFCURVE",
"1130 1454 CURVE SMOOTH",
"845 1743 OFFCURVE",
"558 2002 OFFCURVE",
"558 2356 CURVE SMOOTH",
"558 2361 OFFCURVE",
"564 2367 OFFCURVE",
"569 2367 CURVE SMOOTH"
);
},
{
closed = 1;
nodes = (
"1712 580 OFFCURVE",
"1717 575 OFFCURVE",
"1717 569 CURVE SMOOTH",
"1717 485 OFFCURVE",
"1701 409 OFFCURVE",
"1664 326 CURVE SMOOTH",
"1573 122 OFFCURVE",
"1365 -11 OFFCURVE",
"1138 -11 CURVE SMOOTH",
"1133 -11 OFFCURVE",
"1127 -5 OFFCURVE",
"1127 0 CURVE SMOOTH",
"1127 5 OFFCURVE",
"1133 11 OFFCURVE",
"1138 11 CURVE SMOOTH",
"1286 11 OFFCURVE",
"1426 69 OFFCURVE",
"1532 174 CURVE SMOOTH",
"1637 279 OFFCURVE",
"1696 420 OFFCURVE",
"1696 569 CURVE SMOOTH",
"1696 575 OFFCURVE",
"1701 580 OFFCURVE",
"1707 580 CURVE SMOOTH"
);
},
{
closed = 1;
nodes = (
"1365 2936 OFFCURVE",
"1573 2803 OFFCURVE",
"1664 2599 CURVE SMOOTH",
"1701 2516 OFFCURVE",
"1717 2440 OFFCURVE",
"1717 2356 CURVE SMOOTH",
"1717 2351 OFFCURVE",
"1713 2346 OFFCURVE",
"1707 2345 CURVE",
"1701 2346 OFFCURVE",
"1696 2351 OFFCURVE",
"1696 2356 CURVE SMOOTH",
"1696 2505 OFFCURVE",
"1637 2646 OFFCURVE",
"1532 2751 CURVE SMOOTH",
"1426 2856 OFFCURVE",
"1286 2914 OFFCURVE",
"1138 2914 CURVE SMOOTH",
"1133 2914 OFFCURVE",
"1127 2920 OFFCURVE",
"1127 2925 CURVE SMOOTH",
"1127 2930 OFFCURVE",
"1133 2936 OFFCURVE",
"1138 2936 CURVE SMOOTH"
);
},
{
closed = 1;
nodes = (
"558 574 OFFCURVE",
"564 580 OFFCURVE",
"569 580 CURVE SMOOTH",
"574 580 OFFCURVE",
"580 574 OFFCURVE",
"580 569 CURVE SMOOTH",
"580 355 OFFCURVE",
"692 173 OFFCURVE",
"888 69 CURVE SMOOTH",
"962 33 OFFCURVE",
"1056 11 OFFCURVE",
"1138 11 CURVE SMOOTH",
"1143 11 OFFCURVE",
"1148 6 OFFCURVE",
"1148 0 CURVE SMOOTH",
"1148 -6 OFFCURVE",
"1143 -11 OFFCURVE",
"1138 -11 CURVE SMOOTH",
"984 -11 OFFCURVE",
"836 50 OFFCURVE",
"728 159 CURVE SMOOTH",
"619 267 OFFCURVE",
"558 415 OFFCURVE",
"558 569 CURVE SMOOTH"
);
}
);
width = 2275;
},
{
layerId = "A6394422-5114-4E65-BA08-40D408A20CD5";
paths = (
{
closed = 1;
nodes = (
"814 2801 OFFCURVE",
"1014 2600 OFFCURVE",
"1014 2356 CURVE SMOOTH",
"1014 569 LINE SMOOTH",
"1014 324 OFFCURVE",
"813 124 OFFCURVE",
"569 124 CURVE SMOOTH",
"324 124 OFFCURVE",
"124 325 OFFCURVE",
"124 569 CURVE SMOOTH",
"124 2356 LINE SMOOTH",
"124 2601 OFFCURVE",
"325 2801 OFFCURVE",
"569 2801 CURVE SMOOTH"
);
},
{
closed = 1;
nodes = (
"1383 3370 OFFCURVE",
"1582 3171 OFFCURVE",
"1582 2925 CURVE SMOOTH",
"1582 2679 OFFCURVE",
"1383 2480 OFFCURVE",
"1138 2480 CURVE SMOOTH",
"1098 2480 OFFCURVE",
"1067 2465 OFFCURVE",
"1039 2433 CURVE SMOOTH",
"1022 2412 OFFCURVE",
"1014 2388 OFFCURVE",
"1014 2356 CURVE SMOOTH",
"1014 2111 OFFCURVE",
"815 1912 OFFCURVE",
"569 1911 CURVE SMOOTH",
"323 1912 OFFCURVE",
"124 2111 OFFCURVE",
"124 2356 CURVE SMOOTH",
"124 2623 OFFCURVE",
"232 2884 OFFCURVE",
"421 3073 CURVE SMOOTH",
"610 3262 OFFCURVE",
"871 3370 OFFCURVE",
"1138 3370 CURVE SMOOTH"
);
},
{
closed = 1;
nodes = (
"814 2801 OFFCURVE",
"1014 2600 OFFCURVE",
"1014 2356 CURVE SMOOTH",
"1014 2265 OFFCURVE",
"1155 2073 OFFCURVE",
"1452 1778 CURVE SMOOTH",
"1732 1497 OFFCURVE",
"2151 1114 OFFCURVE",
"2151 569 CURVE SMOOTH",
"2151 323 OFFCURVE",
"1952 124 OFFCURVE",
"1707 124 CURVE SMOOTH",
"1462 124 OFFCURVE",
"1262 323 OFFCURVE",
"1262 569 CURVE SMOOTH",
"1262 660 OFFCURVE",
"1125 848 OFFCURVE",
"823 1147 CURVE SMOOTH",
"545 1428 OFFCURVE",
"124 1810 OFFCURVE",
"124 2356 CURVE SMOOTH",
"124 2601 OFFCURVE",
"325 2801 OFFCURVE",
"569 2801 CURVE SMOOTH"
);
},
{
closed = 1;
nodes = (
"1952 1014 OFFCURVE",
"2151 815 OFFCURVE",
"2151 569 CURVE SMOOTH",
"2151 428 OFFCURVE",
"2120 285 OFFCURVE",
"2061 151 CURVE SMOOTH",
"1901 -210 OFFCURVE",
"1537 -445 OFFCURVE",
"1138 -445 CURVE SMOOTH",
"893 -445 OFFCURVE",
"693 -244 OFFCURVE",
"693 0 CURVE SMOOTH",
"693 245 OFFCURVE",
"894 445 OFFCURVE",
"1138 445 CURVE SMOOTH",
"1172 445 OFFCURVE",
"1201 457 OFFCURVE",
"1225 481 CURVE SMOOTH",
"1250 506 OFFCURVE",
"1262 534 OFFCURVE",
"1262 569 CURVE SMOOTH",
"1262 814 OFFCURVE",
"1461 1014 OFFCURVE",
"1707 1014 CURVE SMOOTH"
);
},
{
closed = 1;
nodes = (
"1537 3370 OFFCURVE",
"1901 3135 OFFCURVE",
"2061 2774 CURVE SMOOTH",
"2120 2640 OFFCURVE",
"2151 2497 OFFCURVE",
"2151 2356 CURVE SMOOTH",
"2151 2111 OFFCURVE",
"1952 1912 OFFCURVE",
"1707 1911 CURVE SMOOTH",
"1461 1912 OFFCURVE",
"1262 2111 OFFCURVE",
"1262 2356 CURVE SMOOTH",
"1262 2391 OFFCURVE",
"1250 2419 OFFCURVE",
"1225 2444 CURVE SMOOTH",
"1201 2468 OFFCURVE",
"1172 2480 OFFCURVE",
"1138 2480 CURVE SMOOTH",
"893 2480 OFFCURVE",
"693 2681 OFFCURVE",
"693 2925 CURVE SMOOTH",
"693 3170 OFFCURVE",
"894 3370 OFFCURVE",
"1138 3370 CURVE SMOOTH"
);
},
{
closed = 1;
nodes = (
"124 814 OFFCURVE",
"325 1014 OFFCURVE",
"569 1014 CURVE SMOOTH",
"814 1014 OFFCURVE",
"1014 813 OFFCURVE",
"1014 569 CURVE SMOOTH",
"1014 516 OFFCURVE",
"1036 484 OFFCURVE",
"1084 456 CURVE",
"1101 449 OFFCURVE",
"1118 445 OFFCURVE",
"1138 445 CURVE SMOOTH",
"1383 445 OFFCURVE",
"1582 246 OFFCURVE",
"1582 0 CURVE SMOOTH",
"1582 -246 OFFCURVE",
"1383 -445 OFFCURVE",
"1138 -445 CURVE SMOOTH",
"871 -445 OFFCURVE",
"610 -337 OFFCURVE",
"421 -148 CURVE SMOOTH",
"232 41 OFFCURVE",
"124 302 OFFCURVE",
"124 569 CURVE SMOOTH"
);
}
);
width = 2275;
}
);
unicode = 0036;
},
{
glyphname = two;
lastChange = "2021-01-31 07:32:33 +0000";
layers = (
{
layerId = "19B6A511-96ED-40AF-BAB7-D1E16DFA4179";
paths = (
{
closed = 1;
nodes = (
"1143 2936 OFFCURVE",
"1148 2931 OFFCURVE",
"1148 2925 CURVE SMOOTH",
"1148 2919 OFFCURVE",
"1143 2914 OFFCURVE",
"1138 2914 CURVE SMOOTH",
"972 2914 OFFCURVE",
"818 2842 OFFCURVE",
"707 2713 CURVE SMOOTH",
"625 2614 OFFCURVE",
"580 2488 OFFCURVE",
"580 2356 CURVE SMOOTH",
"580 2351 OFFCURVE",
"575 2346 OFFCURVE",
"569 2345 CURVE",
"563 2346 OFFCURVE",
"558 2351 OFFCURVE",
"558 2356 CURVE SMOOTH",
"558 2510 OFFCURVE",
"619 2658 OFFCURVE",
"728 2766 CURVE SMOOTH",
"836 2875 OFFCURVE",
"984 2936 OFFCURVE",
"1138 2936 CURVE SMOOTH"
);
},
{
closed = 1;
nodes = (
"1712 580 OFFCURVE",
"1717 575 OFFCURVE",
"1717 569 CURVE SMOOTH",
"1717 485 OFFCURVE",
"1701 409 OFFCURVE",
"1664 326 CURVE SMOOTH",
"1573 122 OFFCURVE",
"1365 -11 OFFCURVE",
"1138 -11 CURVE SMOOTH",
"1133 -11 OFFCURVE",
"1127 -5 OFFCURVE",
"1127 0 CURVE SMOOTH",
"1127 5 OFFCURVE",
"1133 11 OFFCURVE",
"1138 11 CURVE SMOOTH",
"1286 11 OFFCURVE",
"1426 69 OFFCURVE",
"1532 174 CURVE SMOOTH",
"1637 279 OFFCURVE",
"1696 420 OFFCURVE",
"1696 569 CURVE SMOOTH",
"1696 575 OFFCURVE",
"1701 580 OFFCURVE",
"1707 580 CURVE SMOOTH"
);
},
{
closed = 1;
nodes = (
"1365 2936 OFFCURVE",
"1573 2803 OFFCURVE",
"1664 2599 CURVE SMOOTH",
"1701 2516 OFFCURVE",
"1717 2440 OFFCURVE",
"1717 2356 CURVE SMOOTH",
"1717 2351 OFFCURVE",
"1713 2346 OFFCURVE",
"1707 2345 CURVE",
"1701 2346 OFFCURVE",
"1696 2351 OFFCURVE",
"1696 2356 CURVE SMOOTH",
"1696 2505 OFFCURVE",
"1637 2646 OFFCURVE",
"1532 2751 CURVE SMOOTH",
"1426 2856 OFFCURVE",
"1286 2914 OFFCURVE",
"1138 2914 CURVE SMOOTH",
"1133 2914 OFFCURVE",
"1127 2920 OFFCURVE",
"1127 2925 CURVE SMOOTH",
"1127 2930 OFFCURVE",
"1133 2936 OFFCURVE",
"1138 2936 CURVE SMOOTH"
);
},
{
closed = 1;
nodes = (
"1712 2367 OFFCURVE",
"1717 2362 OFFCURVE",
"1717 2356 CURVE SMOOTH",
"1717 2002 OFFCURVE",
"1432 1742 OFFCURVE",
"1145 1454 CURVE SMOOTH",
"734 1044 OFFCURVE",
"580 804 OFFCURVE",
"580 569 CURVE SMOOTH",
"580 564 OFFCURVE",
"574 558 OFFCURVE",
"569 558 CURVE SMOOTH",
"564 558 OFFCURVE",
"558 564 OFFCURVE",
"558 569 CURVE SMOOTH",
"558 923 OFFCURVE",
"845 1182 OFFCURVE",
"1130 1471 CURVE SMOOTH",
"1543 1880 OFFCURVE",
"1696 2119 OFFCURVE",
"1696 2356 CURVE SMOOTH",
"1696 2362 OFFCURVE",
"1701 2367 OFFCURVE",
"1707 2367 CURVE SMOOTH"
);
},
{
closed = 1;
nodes = (
"574 580 OFFCURVE",
"580 574 OFFCURVE",
"580 569 CURVE SMOOTH",
"580 355 OFFCURVE",
"692 173 OFFCURVE",
"888 69 CURVE SMOOTH",
"962 33 OFFCURVE",
"1056 11 OFFCURVE",
"1138 11 CURVE SMOOTH",
"1143 11 OFFCURVE",
"1148 6 OFFCURVE",
"1148 0 CURVE SMOOTH",
"1148 -6 OFFCURVE",
"1143 -11 OFFCURVE",
"1138 -11 CURVE SMOOTH",
"984 -11 OFFCURVE",
"836 50 OFFCURVE",
"728 159 CURVE SMOOTH",
"619 267 OFFCURVE",
"558 415 OFFCURVE",
"558 569 CURVE SMOOTH",
"558 574 OFFCURVE",
"564 580 OFFCURVE",
"569 580 CURVE SMOOTH"
);
},
{
closed = 1;
nodes = (
"1696 2356 LINE SMOOTH",
"1696 2362 OFFCURVE",
"1701 2367 OFFCURVE",
"1707 2367 CURVE SMOOTH",
"1712 2367 OFFCURVE",
"1717 2362 OFFCURVE",
"1717 2356 CURVE SMOOTH",
"1717 569 LINE SMOOTH",
"1717 563 OFFCURVE",
"1712 558 OFFCURVE",
"1707 558 CURVE SMOOTH",
"1701 558 OFFCURVE",
"1696 563 OFFCURVE",
"1696 569 CURVE SMOOTH"
);
}
);
width = 2275;
},
{
layerId = "A6394422-5114-4E65-BA08-40D408A20CD5";
paths = (
{
closed = 1;
nodes = (
"1383 3370 OFFCURVE",
"1582 3171 OFFCURVE",
"1582 2925 CURVE SMOOTH",
"1582 2679 OFFCURVE",
"1383 2480 OFFCURVE",
"1138 2480 CURVE SMOOTH",
"1098 2480 OFFCURVE",
"1067 2465 OFFCURVE",
"1039 2433 CURVE SMOOTH",
"1022 2412 OFFCURVE",
"1014 2388 OFFCURVE",
"1014 2356 CURVE SMOOTH",
"1014 2111 OFFCURVE",
"815 1912 OFFCURVE",
"569 1911 CURVE SMOOTH",
"323 1912 OFFCURVE",
"124 2111 OFFCURVE",
"124 2356 CURVE SMOOTH",
"124 2623 OFFCURVE",
"232 2884 OFFCURVE",
"421 3073 CURVE SMOOTH",
"610 3262 OFFCURVE",
"871 3370 OFFCURVE",
"1138 3370 CURVE SMOOTH"
);
},
{
closed = 1;
nodes = (
"1952 1014 OFFCURVE",
"2151 815 OFFCURVE",
"2151 569 CURVE SMOOTH",
"2151 428 OFFCURVE",
"2120 285 OFFCURVE",
"2061 151 CURVE SMOOTH",
"1901 -210 OFFCURVE",
"1537 -445 OFFCURVE",
"1138 -445 CURVE SMOOTH",
"893 -445 OFFCURVE",
"693 -244 OFFCURVE",
"693 0 CURVE SMOOTH",
"693 245 OFFCURVE",
"894 445 OFFCURVE",
"1138 445 CURVE SMOOTH",
"1172 445 OFFCURVE",
"1201 457 OFFCURVE",
"1225 481 CURVE SMOOTH",
"1250 506 OFFCURVE",
"1262 534 OFFCURVE",
"1262 569 CURVE SMOOTH",
"1262 814 OFFCURVE",
"1461 1014 OFFCURVE",
"1707 1014 CURVE SMOOTH"
);
},
{
closed = 1;
nodes = (
"1537 3370 OFFCURVE",
"1901 3135 OFFCURVE",
"2061 2774 CURVE SMOOTH",
"2120 2640 OFFCURVE",
"2151 2497 OFFCURVE",
"2151 2356 CURVE SMOOTH",
"2151 2111 OFFCURVE",
"1952 1912 OFFCURVE",
"1707 1911 CURVE SMOOTH",
"1461 1912 OFFCURVE",
"1262 2111 OFFCURVE",
"1262 2356 CURVE SMOOTH",
"1262 2391 OFFCURVE",
"1250 2419 OFFCURVE",
"1225 2444 CURVE SMOOTH",
"1201 2468 OFFCURVE",
"1172 2480 OFFCURVE",
"1138 2480 CURVE SMOOTH",
"893 2480 OFFCURVE",
"693 2681 OFFCURVE",
"693 2925 CURVE SMOOTH",
"693 3170 OFFCURVE",
"894 3370 OFFCURVE",
"1138 3370 CURVE SMOOTH"
);
},
{
closed = 1;
nodes = (
"1952 2801 OFFCURVE",
"2151 2602 OFFCURVE",
"2151 2356 CURVE SMOOTH",
"2151 1811 OFFCURVE",
"1732 1428 OFFCURVE",
"1452 1147 CURVE SMOOTH",
"1155 852 OFFCURVE",
"1014 660 OFFCURVE",
"1014 569 CURVE SMOOTH",
"1014 324 OFFCURVE",
"813 124 OFFCURVE",
"569 124 CURVE SMOOTH",
"324 124 OFFCURVE",
"124 325 OFFCURVE",
"124 569 CURVE SMOOTH",
"124 1115 OFFCURVE",
"545 1497 OFFCURVE",
"823 1778 CURVE SMOOTH",
"1125 2077 OFFCURVE",
"1262 2265 OFFCURVE",
"1262 2356 CURVE SMOOTH",
"1262 2601 OFFCURVE",
"1461 2801 OFFCURVE",
"1707 2801 CURVE SMOOTH"
);
},
{
closed = 1;
nodes = (
"814 1014 OFFCURVE",
"1014 813 OFFCURVE",
"1014 569 CURVE SMOOTH",
"1014 516 OFFCURVE",
"1036 484 OFFCURVE",
"1084 456 CURVE",
"1101 449 OFFCURVE",
"1118 445 OFFCURVE",
"1138 445 CURVE SMOOTH",
"1383 445 OFFCURVE",
"1582 246 OFFCURVE",
"1582 0 CURVE SMOOTH",
"1582 -246 OFFCURVE",
"1383 -445 OFFCURVE",
"1138 -445 CURVE SMOOTH",
"871 -445 OFFCURVE",
"610 -337 OFFCURVE",
"421 -148 CURVE SMOOTH",
"232 41 OFFCURVE",
"124 302 OFFCURVE",
"124 569 CURVE SMOOTH",
"124 814 OFFCURVE",
"325 1014 OFFCURVE",
"569 1014 CURVE SMOOTH"
);
},
{
closed = 1;
nodes = (
"1262 2356 LINE SMOOTH",
"1262 2601 OFFCURVE",
"1461 2801 OFFCURVE",
"1707 2801 CURVE SMOOTH",
"1952 2801 OFFCURVE",
"2151 2602 OFFCURVE",
"2151 2356 CURVE SMOOTH",
"2151 569 LINE SMOOTH",
"2151 323 OFFCURVE",
"1952 124 OFFCURVE",
"1707 124 CURVE SMOOTH",
"1462 124 OFFCURVE",
"1262 323 OFFCURVE",
"1262 569 CURVE SMOOTH"
);
}
);
width = 2275;
}
);
unicode = 0032;
},
{
glyphname = b;
lastChange = "2021-01-31 07:32:33 +0000";
layers = (
{
layerId = "19B6A511-96ED-40AF-BAB7-D1E16DFA4179";
paths = (
{
closed = 1;
nodes = (
"574 5861 OFFCURVE",
"580 5855 OFFCURVE",
"580 5850 CURVE SMOOTH",
"580 5281 LINE SMOOTH",
"580 5276 OFFCURVE",
"575 5271 OFFCURVE",
"569 5270 CURVE",
"563 5271 OFFCURVE",
"558 5276 OFFCURVE",
"558 5281 CURVE SMOOTH",
"558 5850 LINE SMOOTH",
"558 5855 OFFCURVE",
"564 5861 OFFCURVE",
"569 5861 CURVE SMOOTH"
);
},
{
closed = 1;
nodes = (
"574 5292 OFFCURVE",
"580 5286 OFFCURVE",
"580 5281 CURVE SMOOTH",
"580 3494 LINE SMOOTH",
"580 3489 OFFCURVE",
"574 3483 OFFCURVE",
"569 3483 CURVE SMOOTH",
"564 3483 OFFCURVE",
"558 3489 OFFCURVE",
"558 3494 CURVE SMOOTH",
"558 5281 LINE SMOOTH",
"558 5286 OFFCURVE",
"564 5292 OFFCURVE",
"569 5292 CURVE SMOOTH"
);
},
{
closed = 1;
nodes = (
"574 3505 OFFCURVE",
"580 3499 OFFCURVE",
"580 3494 CURVE SMOOTH",
"580 2925 LINE SMOOTH",
"580 2920 OFFCURVE",
"574 2914 OFFCURVE",
"569 2914 CURVE SMOOTH",
"564 2914 OFFCURVE",
"558 2920 OFFCURVE",
"558 2925 CURVE SMOOTH",
"558 3494 LINE SMOOTH",
"558 3499 OFFCURVE",
"564 3505 OFFCURVE",
"569 3505 CURVE SMOOTH"
);
},
{
closed = 1;
nodes = (
"574 2936 OFFCURVE",
"580 2930 OFFCURVE",
"580 2925 CURVE SMOOTH",
"580 2356 LINE SMOOTH",
"580 2351 OFFCURVE",
"575 2346 OFFCURVE",
"569 2345 CURVE",
"563 2346 OFFCURVE",
"558 2351 OFFCURVE",
"558 2356 CURVE SMOOTH",
"558 2925 LINE SMOOTH",
"558 2930 OFFCURVE",
"564 2936 OFFCURVE",
"569 2936 CURVE SMOOTH"
);
},
{
closed = 1;
nodes = (
"574 2367 OFFCURVE",
"580 2361 OFFCURVE",
"580 2356 CURVE SMOOTH",
"580 569 LINE SMOOTH",
"580 564 OFFCURVE",
"574 558 OFFCURVE",
"569 558 CURVE SMOOTH",
"564 558 OFFCURVE",
"558 564 OFFCURVE",
"558 569 CURVE SMOOTH",
"558 2356 LINE SMOOTH",
"558 2361 OFFCURVE",
"564 2367 OFFCURVE",
"569 2367 CURVE SMOOTH"
);
},
{
closed = 1;
nodes = (
"1143 2936 OFFCURVE",
"1148 2931 OFFCURVE",
"1148 2925 CURVE SMOOTH",
"1148 2919 OFFCURVE",
"1143 2914 OFFCURVE",
"1138 2914 CURVE SMOOTH",
"972 2914 OFFCURVE",
"818 2842 OFFCURVE",
"707 2713 CURVE SMOOTH",
"625 2614 OFFCURVE",
"580 2488 OFFCURVE",
"580 2356 CURVE SMOOTH",
"580 2351 OFFCURVE",
"575 2346 OFFCURVE",
"569 2345 CURVE",
"563 2346 OFFCURVE",
"558 2351 OFFCURVE",
"558 2356 CURVE SMOOTH",
"558 2510 OFFCURVE",
"619 2658 OFFCURVE",
"728 2766 CURVE SMOOTH",
"836 2875 OFFCURVE",
"984 2936 OFFCURVE",
"1138 2936 CURVE SMOOTH"
);
},
{
closed = 1;
nodes = (
"1712 580 OFFCURVE",
"1717 575 OFFCURVE",
"1717 569 CURVE SMOOTH",
"1717 485 OFFCURVE",
"1701 409 OFFCURVE",
"1664 326 CURVE SMOOTH",
"1573 122 OFFCURVE",
"1365 -11 OFFCURVE",
"1138 -11 CURVE SMOOTH",
"1133 -11 OFFCURVE",
"1127 -5 OFFCURVE",
"1127 0 CURVE SMOOTH",
"1127 5 OFFCURVE",
"1133 11 OFFCURVE",
"1138 11 CURVE SMOOTH",
"1286 11 OFFCURVE",
"1426 69 OFFCURVE",
"1532 174 CURVE SMOOTH",
"1637 279 OFFCURVE",
"1696 420 OFFCURVE",
"1696 569 CURVE SMOOTH",
"1696 575 OFFCURVE",
"1701 580 OFFCURVE",
"1707 580 CURVE SMOOTH"
);
},
{
closed = 1;
nodes = (
"1365 2936 OFFCURVE",
"1573 2803 OFFCURVE",
"1664 2599 CURVE SMOOTH",
"1701 2516 OFFCURVE",
"1717 2440 OFFCURVE",
"1717 2356 CURVE SMOOTH",
"1717 2351 OFFCURVE",
"1713 2346 OFFCURVE",
"1707 2345 CURVE",
"1701 2346 OFFCURVE",
"1696 2351 OFFCURVE",
"1696 2356 CURVE SMOOTH",
"1696 2505 OFFCURVE",
"1637 2646 OFFCURVE",
"1532 2751 CURVE SMOOTH",
"1426 2856 OFFCURVE",
"1286 2914 OFFCURVE",
"1138 2914 CURVE SMOOTH",
"1133 2914 OFFCURVE",
"1127 2920 OFFCURVE",
"1127 2925 CURVE SMOOTH",
"1127 2930 OFFCURVE",
"1133 2936 OFFCURVE",
"1138 2936 CURVE SMOOTH"
);
},
{
closed = 1;
nodes = (
"574 580 OFFCURVE",
"580 574 OFFCURVE",
"580 569 CURVE SMOOTH",
"580 355 OFFCURVE",
"692 173 OFFCURVE",
"888 69 CURVE SMOOTH",
"962 33 OFFCURVE",
"1056 11 OFFCURVE",
"1138 11 CURVE SMOOTH",
"1143 11 OFFCURVE",
"1148 6 OFFCURVE",
"1148 0 CURVE SMOOTH",
"1148 -6 OFFCURVE",
"1143 -11 OFFCURVE",
"1138 -11 CURVE SMOOTH",
"984 -11 OFFCURVE",
"836 50 OFFCURVE",
"728 159 CURVE SMOOTH",
"619 267 OFFCURVE",
"558 415 OFFCURVE",
"558 569 CURVE SMOOTH",
"558 574 OFFCURVE",
"564 580 OFFCURVE",
"569 580 CURVE SMOOTH"
);
},
{
closed = 1;
nodes = (
"1696 2356 LINE SMOOTH",
"1696 2362 OFFCURVE",
"1701 2367 OFFCURVE",
"1707 2367 CURVE SMOOTH",
"1712 2367 OFFCURVE",
"1717 2362 OFFCURVE",
"1717 2356 CURVE SMOOTH",
"1717 569 LINE SMOOTH",
"1717 563 OFFCURVE",
"1712 558 OFFCURVE",
"1707 558 CURVE SMOOTH",
"1701 558 OFFCURVE",
"1696 563 OFFCURVE",
"1696 569 CURVE SMOOTH"
);
}
);
width = 2275;
},
{
layerId = "A6394422-5114-4E65-BA08-40D408A20CD5";
paths = (
{
closed = 1;
nodes = (
"814 6295 OFFCURVE",
"1014 6094 OFFCURVE",
"1014 5850 CURVE SMOOTH",
"1014 5281 LINE SMOOTH",
"1014 5036 OFFCURVE",
"815 4837 OFFCURVE",
"569 4836 CURVE SMOOTH",
"323 4837 OFFCURVE",
"124 5036 OFFCURVE",
"124 5281 CURVE SMOOTH",
"124 5850 LINE SMOOTH",
"124 6095 OFFCURVE",
"325 6295 OFFCURVE",
"569 6295 CURVE SMOOTH"
);
},
{
closed = 1;
nodes = (
"814 5726 OFFCURVE",
"1014 5525 OFFCURVE",
"1014 5281 CURVE SMOOTH",
"1014 3494 LINE SMOOTH",
"1014 3249 OFFCURVE",
"813 3049 OFFCURVE",
"569 3049 CURVE SMOOTH",
"324 3049 OFFCURVE",
"124 3250 OFFCURVE",
"124 3494 CURVE SMOOTH",
"124 5281 LINE SMOOTH",
"124 5526 OFFCURVE",
"325 5726 OFFCURVE",
"569 5726 CURVE SMOOTH"
);
},
{
closed = 1;
nodes = (
"814 3939 OFFCURVE",
"1014 3738 OFFCURVE",
"1014 3494 CURVE SMOOTH",
"1014 2925 LINE SMOOTH",
"1014 2680 OFFCURVE",
"813 2480 OFFCURVE",
"569 2480 CURVE SMOOTH",
"324 2480 OFFCURVE",
"124 2681 OFFCURVE",
"124 2925 CURVE SMOOTH",
"124 3494 LINE SMOOTH",
"124 3739 OFFCURVE",
"325 3939 OFFCURVE",
"569 3939 CURVE SMOOTH"
);
},
{
closed = 1;
nodes = (
"814 3370 OFFCURVE",
"1014 3169 OFFCURVE",
"1014 2925 CURVE SMOOTH",
"1014 2356 LINE SMOOTH",
"1014 2111 OFFCURVE",
"815 1912 OFFCURVE",
"569 1911 CURVE SMOOTH",
"323 1912 OFFCURVE",
"124 2111 OFFCURVE",
"124 2356 CURVE SMOOTH",
"124 2925 LINE SMOOTH",
"124 3170 OFFCURVE",
"325 3370 OFFCURVE",
"569 3370 CURVE SMOOTH"
);
},
{
closed = 1;
nodes = (
"814 2801 OFFCURVE",
"1014 2600 OFFCURVE",
"1014 2356 CURVE SMOOTH",
"1014 569 LINE SMOOTH",
"1014 324 OFFCURVE",
"813 124 OFFCURVE",
"569 124 CURVE SMOOTH",
"324 124 OFFCURVE",
"124 325 OFFCURVE",
"124 569 CURVE SMOOTH",
"124 2356 LINE SMOOTH",
"124 2601 OFFCURVE",
"325 2801 OFFCURVE",
"569 2801 CURVE SMOOTH"
);
},
{
closed = 1;
nodes = (
"1383 3370 OFFCURVE",
"1582 3171 OFFCURVE",
"1582 2925 CURVE SMOOTH",
"1582 2679 OFFCURVE",
"1383 2480 OFFCURVE",
"1138 2480 CURVE SMOOTH",
"1098 2480 OFFCURVE",
"1067 2465 OFFCURVE",
"1039 2433 CURVE SMOOTH",
"1022 2412 OFFCURVE",
"1014 2388 OFFCURVE",
"1014 2356 CURVE SMOOTH",
"1014 2111 OFFCURVE",
"815 1912 OFFCURVE",
"569 1911 CURVE SMOOTH",
"323 1912 OFFCURVE",
"124 2111 OFFCURVE",
"124 2356 CURVE SMOOTH",
"124 2623 OFFCURVE",
"232 2884 OFFCURVE",
"421 3073 CURVE SMOOTH",
"610 3262 OFFCURVE",
"871 3370 OFFCURVE",
"1138 3370 CURVE SMOOTH"
);
},
{
closed = 1;
nodes = (
"1952 1014 OFFCURVE",
"2151 815 OFFCURVE",
"2151 569 CURVE SMOOTH",
"2151 428 OFFCURVE",
"2120 285 OFFCURVE",
"2061 151 CURVE SMOOTH",
"1901 -210 OFFCURVE",
"1537 -445 OFFCURVE",
"1138 -445 CURVE SMOOTH",
"893 -445 OFFCURVE",
"693 -244 OFFCURVE",
"693 0 CURVE SMOOTH",
"693 245 OFFCURVE",
"894 445 OFFCURVE",
"1138 445 CURVE SMOOTH",
"1172 445 OFFCURVE",
"1201 457 OFFCURVE",
"1225 481 CURVE SMOOTH",
"1250 506 OFFCURVE",
"1262 534 OFFCURVE",
"1262 569 CURVE SMOOTH",
"1262 814 OFFCURVE",
"1461 1014 OFFCURVE",
"1707 1014 CURVE SMOOTH"
);
},
{
closed = 1;
nodes = (
"1537 3370 OFFCURVE",
"1901 3135 OFFCURVE",
"2061 2774 CURVE SMOOTH",
"2120 2640 OFFCURVE",
"2151 2497 OFFCURVE",
"2151 2356 CURVE SMOOTH",
"2151 2111 OFFCURVE",
"1952 1912 OFFCURVE",
"1707 1911 CURVE SMOOTH",
"1461 1912 OFFCURVE",
"1262 2111 OFFCURVE",
"1262 2356 CURVE SMOOTH",
"1262 2391 OFFCURVE",
"1250 2419 OFFCURVE",
"1225 2444 CURVE SMOOTH",
"1201 2468 OFFCURVE",
"1172 2480 OFFCURVE",
"1138 2480 CURVE SMOOTH",
"893 2480 OFFCURVE",
"693 2681 OFFCURVE",
"693 2925 CURVE SMOOTH",
"693 3170 OFFCURVE",
"894 3370 OFFCURVE",
"1138 3370 CURVE SMOOTH"
);
},
{
closed = 1;
nodes = (
"814 1014 OFFCURVE",
"1014 813 OFFCURVE",
"1014 569 CURVE SMOOTH",
"1014 516 OFFCURVE",
"1036 484 OFFCURVE",
"1084 456 CURVE",
"1101 449 OFFCURVE",
"1118 445 OFFCURVE",
"1138 445 CURVE SMOOTH",
"1383 445 OFFCURVE",
"1582 246 OFFCURVE",
"1582 0 CURVE SMOOTH",
"1582 -246 OFFCURVE",
"1383 -445 OFFCURVE",
"1138 -445 CURVE SMOOTH",
"871 -445 OFFCURVE",
"610 -337 OFFCURVE",
"421 -148 CURVE SMOOTH",
"232 41 OFFCURVE",
"124 302 OFFCURVE",
"124 569 CURVE SMOOTH",
"124 814 OFFCURVE",
"325 1014 OFFCURVE",
"569 1014 CURVE SMOOTH"
);
},
{
closed = 1;
nodes = (
"1262 2356 LINE SMOOTH",
"1262 2601 OFFCURVE",
"1461 2801 OFFCURVE",
"1707 2801 CURVE SMOOTH",
"1952 2801 OFFCURVE",
"2151 2602 OFFCURVE",
"2151 2356 CURVE SMOOTH",
"2151 569 LINE SMOOTH",
"2151 323 OFFCURVE",
"1952 124 OFFCURVE",
"1707 124 CURVE SMOOTH",
"1462 124 OFFCURVE",
"1262 323 OFFCURVE",
"1262 569 CURVE SMOOTH"
);
}
);
width = 2275;
}
);
leftKerningGroup = c;
rightKerningGroup = c;
unicode = 0062;
},
{
glyphname = p;
lastChange = "2021-01-31 07:32:33 +0000";
layers = (
{
layerId = "19B6A511-96ED-40AF-BAB7-D1E16DFA4179";
paths = (
{
closed = 1;
nodes = (
"574 2367 OFFCURVE",
"580 2361 OFFCURVE",
"580 2356 CURVE SMOOTH",
"580 569 LINE SMOOTH",
"580 564 OFFCURVE",
"574 558 OFFCURVE",
"569 558 CURVE SMOOTH",
"564 558 OFFCURVE",
"558 564 OFFCURVE",
"558 569 CURVE SMOOTH",
"558 2356 LINE SMOOTH",
"558 2361 OFFCURVE",
"564 2367 OFFCURVE",
"569 2367 CURVE SMOOTH"
);
},
{
closed = 1;
nodes = (
"574 580 OFFCURVE",
"580 574 OFFCURVE",
"580 569 CURVE SMOOTH",
"580 0 LINE SMOOTH",
"580 -5 OFFCURVE",
"574 -11 OFFCURVE",
"569 -11 CURVE SMOOTH",
"564 -11 OFFCURVE",
"558 -5 OFFCURVE",
"558 0 CURVE SMOOTH",
"558 569 LINE SMOOTH",
"558 574 OFFCURVE",
"564 580 OFFCURVE",
"569 580 CURVE SMOOTH"
);
},
{
closed = 1;
nodes = (
"574 11 OFFCURVE",
"580 5 OFFCURVE",
"580 0 CURVE SMOOTH",
"580 -569 LINE SMOOTH",
"580 -574 OFFCURVE",
"575 -579 OFFCURVE",
"569 -580 CURVE",
"563 -579 OFFCURVE",
"558 -574 OFFCURVE",
"558 -569 CURVE SMOOTH",
"558 0 LINE SMOOTH",
"558 5 OFFCURVE",
"564 11 OFFCURVE",
"569 11 CURVE SMOOTH"
);
},
{
closed = 1;
nodes = (
"574 -558 OFFCURVE",
"580 -564 OFFCURVE",
"580 -569 CURVE SMOOTH",
"580 -2356 LINE SMOOTH",
"580 -2361 OFFCURVE",
"574 -2367 OFFCURVE",
"569 -2367 CURVE SMOOTH",
"564 -2367 OFFCURVE",
"558 -2361 OFFCURVE",
"558 -2356 CURVE SMOOTH",
"558 -569 LINE SMOOTH",
"558 -564 OFFCURVE",
"564 -558 OFFCURVE",
"569 -558 CURVE SMOOTH"
);
},
{
closed = 1;
nodes = (
"574 -2345 OFFCURVE",
"580 -2351 OFFCURVE",
"580 -2356 CURVE SMOOTH",
"580 -2925 LINE SMOOTH",
"580 -2930 OFFCURVE",
"574 -2936 OFFCURVE",
"569 -2936 CURVE SMOOTH",
"564 -2936 OFFCURVE",
"558 -2930 OFFCURVE",
"558 -2925 CURVE SMOOTH",
"558 -2356 LINE SMOOTH",
"558 -2351 OFFCURVE",
"564 -2345 OFFCURVE",
"569 -2345 CURVE SMOOTH"
);
},
{
closed = 1;
nodes = (
"1143 2936 OFFCURVE",
"1148 2931 OFFCURVE",
"1148 2925 CURVE SMOOTH",
"1148 2919 OFFCURVE",
"1143 2914 OFFCURVE",
"1138 2914 CURVE SMOOTH",
"972 2914 OFFCURVE",
"818 2842 OFFCURVE",
"707 2713 CURVE SMOOTH",
"625 2614 OFFCURVE",
"580 2488 OFFCURVE",
"580 2356 CURVE SMOOTH",
"580 2351 OFFCURVE",
"575 2346 OFFCURVE",
"569 2345 CURVE",
"563 2346 OFFCURVE",
"558 2351 OFFCURVE",
"558 2356 CURVE SMOOTH",
"558 2510 OFFCURVE",
"619 2658 OFFCURVE",
"728 2766 CURVE SMOOTH",
"836 2875 OFFCURVE",
"984 2936 OFFCURVE",
"1138 2936 CURVE SMOOTH"
);
},
{
closed = 1;
nodes = (
"1712 580 OFFCURVE",
"1717 575 OFFCURVE",
"1717 569 CURVE SMOOTH",
"1717 485 OFFCURVE",
"1701 409 OFFCURVE",
"1664 326 CURVE SMOOTH",
"1573 122 OFFCURVE",
"1365 -11 OFFCURVE",
"1138 -11 CURVE SMOOTH",
"1133 -11 OFFCURVE",
"1127 -5 OFFCURVE",
"1127 0 CURVE SMOOTH",
"1127 5 OFFCURVE",
"1133 11 OFFCURVE",
"1138 11 CURVE SMOOTH",
"1286 11 OFFCURVE",
"1426 69 OFFCURVE",
"1532 174 CURVE SMOOTH",
"1637 279 OFFCURVE",
"1696 420 OFFCURVE",
"1696 569 CURVE SMOOTH",
"1696 575 OFFCURVE",
"1701 580 OFFCURVE",
"1707 580 CURVE SMOOTH"
);
},
{
closed = 1;
nodes = (
"1365 2936 OFFCURVE",
"1573 2803 OFFCURVE",
"1664 2599 CURVE SMOOTH",
"1701 2516 OFFCURVE",
"1717 2440 OFFCURVE",
"1717 2356 CURVE SMOOTH",
"1717 2351 OFFCURVE",
"1713 2346 OFFCURVE",
"1707 2345 CURVE",
"1701 2346 OFFCURVE",
"1696 2351 OFFCURVE",
"1696 2356 CURVE SMOOTH",
"1696 2505 OFFCURVE",
"1637 2646 OFFCURVE",
"1532 2751 CURVE SMOOTH",
"1426 2856 OFFCURVE",
"1286 2914 OFFCURVE",
"1138 2914 CURVE SMOOTH",
"1133 2914 OFFCURVE",
"1127 2920 OFFCURVE",
"1127 2925 CURVE SMOOTH",
"1127 2930 OFFCURVE",
"1133 2936 OFFCURVE",
"1138 2936 CURVE SMOOTH"
);
},
{
closed = 1;
nodes = (
"574 580 OFFCURVE",
"580 574 OFFCURVE",
"580 569 CURVE SMOOTH",
"580 355 OFFCURVE",
"692 173 OFFCURVE",
"888 69 CURVE SMOOTH",
"962 33 OFFCURVE",
"1056 11 OFFCURVE",
"1138 11 CURVE SMOOTH",
"1143 11 OFFCURVE",
"1148 6 OFFCURVE",
"1148 0 CURVE SMOOTH",
"1148 -6 OFFCURVE",
"1143 -11 OFFCURVE",
"1138 -11 CURVE SMOOTH",
"984 -11 OFFCURVE",
"836 50 OFFCURVE",
"728 159 CURVE SMOOTH",
"619 267 OFFCURVE",
"558 415 OFFCURVE",
"558 569 CURVE SMOOTH",
"558 574 OFFCURVE",
"564 580 OFFCURVE",
"569 580 CURVE SMOOTH"
);
},
{
closed = 1;
nodes = (
"1696 2356 LINE SMOOTH",
"1696 2362 OFFCURVE",
"1701 2367 OFFCURVE",
"1707 2367 CURVE SMOOTH",
"1712 2367 OFFCURVE",
"1717 2362 OFFCURVE",
"1717 2356 CURVE SMOOTH",
"1717 569 LINE SMOOTH",
"1717 563 OFFCURVE",
"1712 558 OFFCURVE",
"1707 558 CURVE SMOOTH",
"1701 558 OFFCURVE",
"1696 563 OFFCURVE",
"1696 569 CURVE SMOOTH"
);
}
);
width = 2275;
},
{
layerId = "A6394422-5114-4E65-BA08-40D408A20CD5";
paths = (
{
closed = 1;
nodes = (
"814 2801 OFFCURVE",
"1014 2600 OFFCURVE",
"1014 2356 CURVE SMOOTH",
"1014 569 LINE SMOOTH",
"1014 324 OFFCURVE",
"813 124 OFFCURVE",
"569 124 CURVE SMOOTH",
"324 124 OFFCURVE",
"124 325 OFFCURVE",
"124 569 CURVE SMOOTH",
"124 2356 LINE SMOOTH",
"124 2601 OFFCURVE",
"325 2801 OFFCURVE",
"569 2801 CURVE SMOOTH"
);
},
{
closed = 1;
nodes = (
"814 1014 OFFCURVE",
"1014 813 OFFCURVE",
"1014 569 CURVE SMOOTH",
"1014 0 LINE SMOOTH",
"1014 -245 OFFCURVE",
"813 -445 OFFCURVE",
"569 -445 CURVE SMOOTH",
"324 -445 OFFCURVE",
"124 -244 OFFCURVE",
"124 0 CURVE SMOOTH",
"124 569 LINE SMOOTH",
"124 814 OFFCURVE",
"325 1014 OFFCURVE",
"569 1014 CURVE SMOOTH"
);
},
{
closed = 1;
nodes = (
"814 445 OFFCURVE",
"1014 244 OFFCURVE",
"1014 0 CURVE SMOOTH",
"1014 -569 LINE SMOOTH",
"1014 -814 OFFCURVE",
"815 -1013 OFFCURVE",
"569 -1014 CURVE SMOOTH",
"323 -1013 OFFCURVE",
"124 -814 OFFCURVE",
"124 -569 CURVE SMOOTH",
"124 0 LINE SMOOTH",
"124 245 OFFCURVE",
"325 445 OFFCURVE",
"569 445 CURVE SMOOTH"
);
},
{
closed = 1;
nodes = (
"814 -124 OFFCURVE",
"1014 -325 OFFCURVE",
"1014 -569 CURVE SMOOTH",
"1014 -2356 LINE SMOOTH",
"1014 -2601 OFFCURVE",
"813 -2801 OFFCURVE",
"569 -2801 CURVE SMOOTH",
"324 -2801 OFFCURVE",
"124 -2600 OFFCURVE",
"124 -2356 CURVE SMOOTH",
"124 -569 LINE SMOOTH",
"124 -324 OFFCURVE",
"325 -124 OFFCURVE",
"569 -124 CURVE SMOOTH"
);
},
{
closed = 1;
nodes = (
"814 -1911 OFFCURVE",
"1014 -2112 OFFCURVE",
"1014 -2356 CURVE SMOOTH",
"1014 -2925 LINE SMOOTH",
"1014 -3170 OFFCURVE",
"813 -3370 OFFCURVE",
"569 -3370 CURVE SMOOTH",
"324 -3370 OFFCURVE",
"124 -3169 OFFCURVE",
"124 -2925 CURVE SMOOTH",
"124 -2356 LINE SMOOTH",
"124 -2111 OFFCURVE",
"325 -1911 OFFCURVE",
"569 -1911 CURVE SMOOTH"
);
},
{
closed = 1;
nodes = (
"1383 3370 OFFCURVE",
"1582 3171 OFFCURVE",
"1582 2925 CURVE SMOOTH",
"1582 2679 OFFCURVE",
"1383 2480 OFFCURVE",
"1138 2480 CURVE SMOOTH",
"1098 2480 OFFCURVE",
"1067 2465 OFFCURVE",
"1039 2433 CURVE SMOOTH",
"1022 2412 OFFCURVE",
"1014 2388 OFFCURVE",
"1014 2356 CURVE SMOOTH",
"1014 2111 OFFCURVE",
"815 1912 OFFCURVE",
"569 1911 CURVE SMOOTH",
"323 1912 OFFCURVE",
"124 2111 OFFCURVE",
"124 2356 CURVE SMOOTH",
"124 2623 OFFCURVE",
"232 2884 OFFCURVE",
"421 3073 CURVE SMOOTH",
"610 3262 OFFCURVE",
"871 3370 OFFCURVE",
"1138 3370 CURVE SMOOTH"
);
},
{
closed = 1;
nodes = (
"1952 1014 OFFCURVE",
"2151 815 OFFCURVE",
"2151 569 CURVE SMOOTH",
"2151 428 OFFCURVE",
"2120 285 OFFCURVE",
"2061 151 CURVE SMOOTH",
"1901 -210 OFFCURVE",
"1537 -445 OFFCURVE",
"1138 -445 CURVE SMOOTH",
"893 -445 OFFCURVE",
"693 -244 OFFCURVE",
"693 0 CURVE SMOOTH",
"693 245 OFFCURVE",
"894 445 OFFCURVE",
"1138 445 CURVE SMOOTH",
"1172 445 OFFCURVE",
"1201 457 OFFCURVE",
"1225 481 CURVE SMOOTH",
"1250 506 OFFCURVE",
"1262 534 OFFCURVE",
"1262 569 CURVE SMOOTH",
"1262 814 OFFCURVE",
"1461 1014 OFFCURVE",
"1707 1014 CURVE SMOOTH"
);
},
{
closed = 1;
nodes = (
"1537 3370 OFFCURVE",
"1901 3135 OFFCURVE",
"2061 2774 CURVE SMOOTH",
"2120 2640 OFFCURVE",
"2151 2497 OFFCURVE",
"2151 2356 CURVE SMOOTH",
"2151 2111 OFFCURVE",
"1952 1912 OFFCURVE",
"1707 1911 CURVE SMOOTH",
"1461 1912 OFFCURVE",
"1262 2111 OFFCURVE",
"1262 2356 CURVE SMOOTH",
"1262 2391 OFFCURVE",
"1250 2419 OFFCURVE",
"1225 2444 CURVE SMOOTH",
"1201 2468 OFFCURVE",
"1172 2480 OFFCURVE",
"1138 2480 CURVE SMOOTH",
"893 2480 OFFCURVE",
"693 2681 OFFCURVE",
"693 2925 CURVE SMOOTH",
"693 3170 OFFCURVE",
"894 3370 OFFCURVE",
"1138 3370 CURVE SMOOTH"
);
},
{
closed = 1;
nodes = (
"814 1014 OFFCURVE",
"1014 813 OFFCURVE",
"1014 569 CURVE SMOOTH",
"1014 516 OFFCURVE",
"1036 484 OFFCURVE",
"1084 456 CURVE",
"1101 449 OFFCURVE",
"1118 445 OFFCURVE",
"1138 445 CURVE SMOOTH",
"1383 445 OFFCURVE",
"1582 246 OFFCURVE",
"1582 0 CURVE SMOOTH",
"1582 -246 OFFCURVE",
"1383 -445 OFFCURVE",
"1138 -445 CURVE SMOOTH",
"871 -445 OFFCURVE",
"610 -337 OFFCURVE",
"421 -148 CURVE SMOOTH",
"232 41 OFFCURVE",
"124 302 OFFCURVE",
"124 569 CURVE SMOOTH",
"124 814 OFFCURVE",
"325 1014 OFFCURVE",
"569 1014 CURVE SMOOTH"
);
},
{
closed = 1;
nodes = (
"1262 2356 LINE SMOOTH",
"1262 2601 OFFCURVE",
"1461 2801 OFFCURVE",
"1707 2801 CURVE SMOOTH",
"1952 2801 OFFCURVE",
"2151 2602 OFFCURVE",
"2151 2356 CURVE SMOOTH",
"2151 569 LINE SMOOTH",
"2151 323 OFFCURVE",
"1952 124 OFFCURVE",
"1707 124 CURVE SMOOTH",
"1462 124 OFFCURVE",
"1262 323 OFFCURVE",
"1262 569 CURVE SMOOTH"
);
}
);
width = 2275;
}
);
rightKerningGroup = c;
unicode = 0070;
},
{
glyphname = m;
lastChange = "2021-01-31 07:32:33 +0000";
layers = (
{
layerId = "19B6A511-96ED-40AF-BAB7-D1E16DFA4179";
paths = (
{
closed = 1;
nodes = (
"574 2367 OFFCURVE",
"580 2361 OFFCURVE",
"580 2356 CURVE SMOOTH",
"580 569 LINE SMOOTH",
"580 564 OFFCURVE",
"574 558 OFFCURVE",
"569 558 CURVE SMOOTH",
"564 558 OFFCURVE",
"558 564 OFFCURVE",
"558 569 CURVE SMOOTH",
"558 2356 LINE SMOOTH",
"558 2361 OFFCURVE",
"564 2367 OFFCURVE",
"569 2367 CURVE SMOOTH"
);
},
{
closed = 1;
nodes = (
"574 580 OFFCURVE",
"580 574 OFFCURVE",
"580 569 CURVE SMOOTH",
"580 0 LINE SMOOTH",
"580 -5 OFFCURVE",
"574 -11 OFFCURVE",
"569 -11 CURVE SMOOTH",
"564 -11 OFFCURVE",
"558 -5 OFFCURVE",
"558 0 CURVE SMOOTH",
"558 569 LINE SMOOTH",
"558 574 OFFCURVE",
"564 580 OFFCURVE",
"569 580 CURVE SMOOTH"
);
},
{
closed = 1;
nodes = (
"1143 2936 OFFCURVE",
"1148 2931 OFFCURVE",
"1148 2925 CURVE SMOOTH",
"1148 2919 OFFCURVE",
"1143 2914 OFFCURVE",
"1138 2914 CURVE SMOOTH",
"972 2914 OFFCURVE",
"818 2842 OFFCURVE",
"707 2713 CURVE SMOOTH",
"625 2614 OFFCURVE",
"580 2488 OFFCURVE",
"580 2356 CURVE SMOOTH",
"580 2351 OFFCURVE",
"575 2346 OFFCURVE",
"569 2345 CURVE",
"563 2346 OFFCURVE",
"558 2351 OFFCURVE",
"558 2356 CURVE SMOOTH",
"558 2510 OFFCURVE",
"619 2658 OFFCURVE",
"728 2766 CURVE SMOOTH",
"836 2875 OFFCURVE",
"984 2936 OFFCURVE",
"1138 2936 CURVE SMOOTH"
);
},
{
closed = 1;
nodes = (
"1365 2936 OFFCURVE",
"1573 2803 OFFCURVE",
"1664 2599 CURVE SMOOTH",
"1701 2516 OFFCURVE",
"1717 2440 OFFCURVE",
"1717 2356 CURVE SMOOTH",
"1717 2351 OFFCURVE",
"1713 2346 OFFCURVE",
"1707 2345 CURVE",
"1701 2346 OFFCURVE",
"1696 2351 OFFCURVE",
"1696 2356 CURVE SMOOTH",
"1696 2505 OFFCURVE",
"1637 2646 OFFCURVE",
"1532 2751 CURVE SMOOTH",
"1426 2856 OFFCURVE",
"1286 2914 OFFCURVE",
"1138 2914 CURVE SMOOTH",
"1133 2914 OFFCURVE",
"1127 2920 OFFCURVE",
"1127 2925 CURVE SMOOTH",
"1127 2930 OFFCURVE",
"1133 2936 OFFCURVE",
"1138 2936 CURVE SMOOTH"
);
},
{
closed = 1;
nodes = (
"1712 2367 OFFCURVE",
"1717 2362 OFFCURVE",
"1717 2356 CURVE SMOOTH",
"1717 569 LINE SMOOTH",
"1717 563 OFFCURVE",
"1712 558 OFFCURVE",
"1707 558 CURVE SMOOTH",
"1701 558 OFFCURVE",
"1696 563 OFFCURVE",
"1696 569 CURVE SMOOTH",
"1696 2356 LINE SMOOTH",
"1696 2362 OFFCURVE",
"1701 2367 OFFCURVE",
"1707 2367 CURVE SMOOTH"
);
},
{
closed = 1;
nodes = (
"1712 580 OFFCURVE",
"1717 575 OFFCURVE",
"1717 569 CURVE SMOOTH",
"1717 0 LINE SMOOTH",
"1717 -6 OFFCURVE",
"1712 -11 OFFCURVE",
"1707 -11 CURVE SMOOTH",
"1701 -11 OFFCURVE",
"1696 -6 OFFCURVE",
"1696 0 CURVE SMOOTH",
"1696 569 LINE SMOOTH",
"1696 575 OFFCURVE",
"1701 580 OFFCURVE",
"1707 580 CURVE SMOOTH"
);
},
{
closed = 1;
nodes = (
"2281 2936 OFFCURVE",
"2286 2931 OFFCURVE",
"2286 2925 CURVE SMOOTH",
"2286 2919 OFFCURVE",
"2281 2914 OFFCURVE",
"2276 2914 CURVE SMOOTH",
"2185 2914 OFFCURVE",
"2094 2892 OFFCURVE",
"2014 2849 CURVE SMOOTH",
"1833 2755 OFFCURVE",
"1717 2562 OFFCURVE",
"1717 2356 CURVE SMOOTH",
"1717 2351 OFFCURVE",
"1713 2346 OFFCURVE",
"1707 2345 CURVE",
"1701 2346 OFFCURVE",
"1696 2351 OFFCURVE",
"1696 2356 CURVE SMOOTH",
"1696 2510 OFFCURVE",
"1757 2658 OFFCURVE",
"1866 2766 CURVE SMOOTH",
"1974 2875 OFFCURVE",
"2122 2936 OFFCURVE",
"2276 2936 CURVE SMOOTH"
);
},
{
closed = 1;
nodes = (
"2429 2936 OFFCURVE",
"2577 2875 OFFCURVE",
"2685 2766 CURVE SMOOTH",
"2794 2658 OFFCURVE",
"2855 2510 OFFCURVE",
"2855 2356 CURVE SMOOTH",
"2855 2351 OFFCURVE",
"2850 2346 OFFCURVE",
"2844 2345 CURVE",
"2838 2346 OFFCURVE",
"2834 2351 OFFCURVE",
"2834 2356 CURVE SMOOTH",
"2834 2503 OFFCURVE",
"2777 2642 OFFCURVE",
"2672 2751 CURVE SMOOTH",
"2563 2856 OFFCURVE",
"2422 2914 OFFCURVE",
"2276 2914 CURVE SMOOTH",
"2270 2914 OFFCURVE",
"2265 2919 OFFCURVE",
"2265 2925 CURVE SMOOTH",
"2265 2931 OFFCURVE",
"2270 2936 OFFCURVE",
"2276 2936 CURVE SMOOTH"
);
},
{
closed = 1;
nodes = (
"2850 2367 OFFCURVE",
"2855 2362 OFFCURVE",
"2855 2356 CURVE SMOOTH",
"2855 569 LINE SMOOTH",
"2855 563 OFFCURVE",
"2850 558 OFFCURVE",
"2844 558 CURVE SMOOTH",
"2839 558 OFFCURVE",
"2834 563 OFFCURVE",
"2834 569 CURVE SMOOTH",
"2834 2356 LINE SMOOTH",
"2834 2362 OFFCURVE",
"2839 2367 OFFCURVE",
"2844 2367 CURVE SMOOTH"
);
},
{
closed = 1;
nodes = (
"2834 569 LINE SMOOTH",
"2834 575 OFFCURVE",
"2839 580 OFFCURVE",
"2844 580 CURVE SMOOTH",
"2850 580 OFFCURVE",
"2855 575 OFFCURVE",
"2855 569 CURVE SMOOTH",
"2855 0 LINE SMOOTH",
"2855 -6 OFFCURVE",
"2850 -11 OFFCURVE",
"2844 -11 CURVE SMOOTH",
"2839 -11 OFFCURVE",
"2834 -6 OFFCURVE",
"2834 0 CURVE SMOOTH"
);
}
);
width = 3413;
},
{
layerId = "A6394422-5114-4E65-BA08-40D408A20CD5";
paths = (
{
closed = 1;
nodes = (
"814 2801 OFFCURVE",
"1014 2600 OFFCURVE",
"1014 2356 CURVE SMOOTH",
"1014 569 LINE SMOOTH",
"1014 324 OFFCURVE",
"813 124 OFFCURVE",
"569 124 CURVE SMOOTH",
"324 124 OFFCURVE",
"124 325 OFFCURVE",
"124 569 CURVE SMOOTH",
"124 2356 LINE SMOOTH",
"124 2601 OFFCURVE",
"325 2801 OFFCURVE",
"569 2801 CURVE SMOOTH"
);
},
{
closed = 1;
nodes = (
"814 1014 OFFCURVE",
"1014 813 OFFCURVE",
"1014 569 CURVE SMOOTH",
"1014 0 LINE SMOOTH",
"1014 -245 OFFCURVE",
"813 -445 OFFCURVE",
"569 -445 CURVE SMOOTH",
"324 -445 OFFCURVE",
"124 -244 OFFCURVE",
"124 0 CURVE SMOOTH",
"124 569 LINE SMOOTH",
"124 814 OFFCURVE",
"325 1014 OFFCURVE",
"569 1014 CURVE SMOOTH"
);
},
{
closed = 1;
nodes = (
"1383 3370 OFFCURVE",
"1582 3171 OFFCURVE",
"1582 2925 CURVE SMOOTH",
"1582 2679 OFFCURVE",
"1383 2480 OFFCURVE",
"1138 2480 CURVE SMOOTH",
"1098 2480 OFFCURVE",
"1067 2465 OFFCURVE",
"1039 2433 CURVE SMOOTH",
"1022 2412 OFFCURVE",
"1014 2388 OFFCURVE",
"1014 2356 CURVE SMOOTH",
"1014 2111 OFFCURVE",
"815 1912 OFFCURVE",
"569 1911 CURVE SMOOTH",
"323 1912 OFFCURVE",
"124 2111 OFFCURVE",
"124 2356 CURVE SMOOTH",
"124 2623 OFFCURVE",
"232 2884 OFFCURVE",
"421 3073 CURVE SMOOTH",
"610 3262 OFFCURVE",
"871 3370 OFFCURVE",
"1138 3370 CURVE SMOOTH"
);
},
{
closed = 1;
nodes = (
"1537 3370 OFFCURVE",
"1901 3135 OFFCURVE",
"2061 2774 CURVE SMOOTH",
"2120 2640 OFFCURVE",
"2151 2497 OFFCURVE",
"2151 2356 CURVE SMOOTH",
"2151 2111 OFFCURVE",
"1952 1912 OFFCURVE",
"1707 1911 CURVE SMOOTH",
"1461 1912 OFFCURVE",
"1262 2111 OFFCURVE",
"1262 2356 CURVE SMOOTH",
"1262 2391 OFFCURVE",
"1250 2419 OFFCURVE",
"1225 2444 CURVE SMOOTH",
"1201 2468 OFFCURVE",
"1172 2480 OFFCURVE",
"1138 2480 CURVE SMOOTH",
"893 2480 OFFCURVE",
"693 2681 OFFCURVE",
"693 2925 CURVE SMOOTH",
"693 3170 OFFCURVE",
"894 3370 OFFCURVE",
"1138 3370 CURVE SMOOTH"
);
},
{
closed = 1;
nodes = (
"1952 2801 OFFCURVE",
"2151 2602 OFFCURVE",
"2151 2356 CURVE SMOOTH",
"2151 569 LINE SMOOTH",
"2151 323 OFFCURVE",
"1952 124 OFFCURVE",
"1707 124 CURVE SMOOTH",
"1462 124 OFFCURVE",
"1262 323 OFFCURVE",
"1262 569 CURVE SMOOTH",
"1262 2356 LINE SMOOTH",
"1262 2601 OFFCURVE",
"1461 2801 OFFCURVE",
"1707 2801 CURVE SMOOTH"
);
},
{
closed = 1;
nodes = (
"1952 1014 OFFCURVE",
"2151 815 OFFCURVE",
"2151 569 CURVE SMOOTH",
"2151 0 LINE SMOOTH",
"2151 -246 OFFCURVE",
"1952 -445 OFFCURVE",
"1707 -445 CURVE SMOOTH",
"1462 -445 OFFCURVE",
"1262 -246 OFFCURVE",
"1262 0 CURVE SMOOTH",
"1262 569 LINE SMOOTH",
"1262 814 OFFCURVE",
"1461 1014 OFFCURVE",
"1707 1014 CURVE SMOOTH"
);
},
{
closed = 1;
nodes = (
"2521 3370 OFFCURVE",
"2720 3171 OFFCURVE",
"2720 2925 CURVE SMOOTH",
"2720 2679 OFFCURVE",
"2521 2480 OFFCURVE",
"2276 2480 CURVE SMOOTH",
"2241 2480 OFFCURVE",
"2213 2469 OFFCURVE",
"2186 2443 CURVE SMOOTH",
"2164 2420 OFFCURVE",
"2151 2389 OFFCURVE",
"2151 2356 CURVE SMOOTH",
"2151 2111 OFFCURVE",
"1952 1912 OFFCURVE",
"1707 1911 CURVE SMOOTH",
"1461 1912 OFFCURVE",
"1262 2111 OFFCURVE",
"1262 2356 CURVE SMOOTH",
"1262 2623 OFFCURVE",
"1370 2884 OFFCURVE",
"1559 3073 CURVE SMOOTH",
"1748 3262 OFFCURVE",
"2009 3370 OFFCURVE",
"2276 3370 CURVE SMOOTH"
);
},
{
closed = 1;
nodes = (
"2542 3370 OFFCURVE",
"2803 3262 OFFCURVE",
"2992 3073 CURVE SMOOTH",
"3181 2884 OFFCURVE",
"3289 2623 OFFCURVE",
"3289 2356 CURVE SMOOTH",
"3289 2111 OFFCURVE",
"3090 1912 OFFCURVE",
"2844 1911 CURVE SMOOTH",
"2599 1912 OFFCURVE",
"2400 2111 OFFCURVE",
"2400 2356 CURVE SMOOTH",
"2400 2389 OFFCURVE",
"2389 2417 OFFCURVE",
"2365 2444 CURVE",
"2338 2468 OFFCURVE",
"2309 2480 OFFCURVE",
"2276 2480 CURVE SMOOTH",
"2031 2480 OFFCURVE",
"1831 2679 OFFCURVE",
"1831 2925 CURVE SMOOTH",
"1831 3170 OFFCURVE",
"2030 3370 OFFCURVE",
"2276 3370 CURVE SMOOTH"
);
},
{
closed = 1;
nodes = (
"3089 2801 OFFCURVE",
"3289 2602 OFFCURVE",
"3289 2356 CURVE SMOOTH",
"3289 569 LINE SMOOTH",
"3289 324 OFFCURVE",
"3090 124 OFFCURVE",
"2844 124 CURVE SMOOTH",
"2599 124 OFFCURVE",
"2400 323 OFFCURVE",
"2400 569 CURVE SMOOTH",
"2400 2356 LINE SMOOTH",
"2400 2602 OFFCURVE",
"2599 2801 OFFCURVE",
"2844 2801 CURVE SMOOTH"
);
},
{
closed = 1;
nodes = (
"2400 569 LINE SMOOTH",
"2400 815 OFFCURVE",
"2599 1014 OFFCURVE",
"2844 1014 CURVE SMOOTH",
"3089 1014 OFFCURVE",
"3289 815 OFFCURVE",
"3289 569 CURVE SMOOTH",
"3289 0 LINE SMOOTH",
"3289 -245 OFFCURVE",
"3090 -445 OFFCURVE",
"2844 -445 CURVE SMOOTH",
"2599 -445 OFFCURVE",
"2400 -246 OFFCURVE",
"2400 0 CURVE SMOOTH"
);
}
);
width = 3413;
}
);
leftKerningGroup = h;
rightKerningGroup = h;
unicode = 006D;
},
{
glyphname = w;
lastChange = "2021-01-31 07:32:33 +0000";
layers = (
{
layerId = "19B6A511-96ED-40AF-BAB7-D1E16DFA4179";
paths = (
{
closed = 1;
nodes = (
"574 2936 OFFCURVE",
"580 2930 OFFCURVE",
"580 2925 CURVE SMOOTH",
"580 2356 LINE SMOOTH",
"580 2351 OFFCURVE",
"575 2346 OFFCURVE",
"569 2345 CURVE",
"563 2346 OFFCURVE",
"558 2351 OFFCURVE",
"558 2356 CURVE SMOOTH",
"558 2925 LINE SMOOTH",
"558 2930 OFFCURVE",
"564 2936 OFFCURVE",
"569 2936 CURVE SMOOTH"
);
},
{
closed = 1;
nodes = (
"574 2367 OFFCURVE",
"580 2361 OFFCURVE",
"580 2356 CURVE SMOOTH",
"580 569 LINE SMOOTH",
"580 564 OFFCURVE",
"574 558 OFFCURVE",
"569 558 CURVE SMOOTH",
"564 558 OFFCURVE",
"558 564 OFFCURVE",
"558 569 CURVE SMOOTH",
"558 2356 LINE SMOOTH",
"558 2361 OFFCURVE",
"564 2367 OFFCURVE",
"569 2367 CURVE SMOOTH"
);
},
{
closed = 1;
nodes = (
"1712 580 OFFCURVE",
"1717 575 OFFCURVE",
"1717 569 CURVE SMOOTH",
"1717 485 OFFCURVE",
"1701 409 OFFCURVE",
"1664 326 CURVE SMOOTH",
"1573 122 OFFCURVE",
"1365 -11 OFFCURVE",
"1138 -11 CURVE SMOOTH",
"1133 -11 OFFCURVE",
"1127 -5 OFFCURVE",
"1127 0 CURVE SMOOTH",
"1127 5 OFFCURVE",
"1133 11 OFFCURVE",
"1138 11 CURVE SMOOTH",
"1286 11 OFFCURVE",
"1426 69 OFFCURVE",
"1532 174 CURVE SMOOTH",
"1637 279 OFFCURVE",
"1696 420 OFFCURVE",
"1696 569 CURVE SMOOTH",
"1696 575 OFFCURVE",
"1701 580 OFFCURVE",
"1707 580 CURVE SMOOTH"
);
},
{
closed = 1;
nodes = (
"574 580 OFFCURVE",
"580 574 OFFCURVE",
"580 569 CURVE SMOOTH",
"580 355 OFFCURVE",
"692 173 OFFCURVE",
"888 69 CURVE SMOOTH",
"962 33 OFFCURVE",
"1056 11 OFFCURVE",
"1138 11 CURVE SMOOTH",
"1143 11 OFFCURVE",
"1148 6 OFFCURVE",
"1148 0 CURVE SMOOTH",
"1148 -6 OFFCURVE",
"1143 -11 OFFCURVE",
"1138 -11 CURVE SMOOTH",
"984 -11 OFFCURVE",
"836 50 OFFCURVE",
"728 159 CURVE SMOOTH",
"619 267 OFFCURVE",
"558 415 OFFCURVE",
"558 569 CURVE SMOOTH",
"558 574 OFFCURVE",
"564 580 OFFCURVE",
"569 580 CURVE SMOOTH"
);
},
{
closed = 1;
nodes = (
"1712 2936 OFFCURVE",
"1717 2931 OFFCURVE",
"1717 2925 CURVE SMOOTH",
"1717 2356 LINE SMOOTH",
"1717 2351 OFFCURVE",
"1713 2346 OFFCURVE",
"1707 2345 CURVE",
"1701 2346 OFFCURVE",
"1696 2351 OFFCURVE",
"1696 2356 CURVE SMOOTH",
"1696 2925 LINE SMOOTH",
"1696 2931 OFFCURVE",
"1701 2936 OFFCURVE",
"1707 2936 CURVE SMOOTH"
);
},
{
closed = 1;
nodes = (
"1712 2367 OFFCURVE",
"1717 2362 OFFCURVE",
"1717 2356 CURVE SMOOTH",
"1717 569 LINE SMOOTH",
"1717 563 OFFCURVE",
"1712 558 OFFCURVE",
"1707 558 CURVE SMOOTH",
"1701 558 OFFCURVE",
"1696 563 OFFCURVE",
"1696 569 CURVE SMOOTH",
"1696 2356 LINE SMOOTH",
"1696 2362 OFFCURVE",
"1701 2367 OFFCURVE",
"1707 2367 CURVE SMOOTH"
);
},
{
closed = 1;
nodes = (
"2850 580 OFFCURVE",
"2855 575 OFFCURVE",
"2855 569 CURVE SMOOTH",
"2855 415 OFFCURVE",
"2794 267 OFFCURVE",
"2685 159 CURVE SMOOTH",
"2577 50 OFFCURVE",
"2429 -11 OFFCURVE",
"2276 -11 CURVE SMOOTH",
"2270 -11 OFFCURVE",
"2265 -6 OFFCURVE",
"2265 0 CURVE SMOOTH",
"2265 6 OFFCURVE",
"2270 11 OFFCURVE",
"2276 11 CURVE SMOOTH",
"2422 11 OFFCURVE",
"2563 69 OFFCURVE",
"2672 174 CURVE SMOOTH",
"2777 283 OFFCURVE",
"2834 422 OFFCURVE",
"2834 569 CURVE SMOOTH",
"2834 575 OFFCURVE",
"2839 580 OFFCURVE",
"2844 580 CURVE SMOOTH"
);
},
{
closed = 1;
nodes = (
"1712 580 OFFCURVE",
"1717 575 OFFCURVE",
"1717 569 CURVE SMOOTH",
"1717 363 OFFCURVE",
"1833 170 OFFCURVE",
"2014 76 CURVE SMOOTH",
"2094 33 OFFCURVE",
"2185 11 OFFCURVE",
"2276 11 CURVE SMOOTH",
"2281 11 OFFCURVE",
"2286 6 OFFCURVE",
"2286 0 CURVE SMOOTH",
"2286 -6 OFFCURVE",
"2281 -11 OFFCURVE",
"2276 -11 CURVE SMOOTH",
"2122 -11 OFFCURVE",
"1974 50 OFFCURVE",
"1866 159 CURVE SMOOTH",
"1757 267 OFFCURVE",
"1696 415 OFFCURVE",
"1696 569 CURVE SMOOTH",
"1696 575 OFFCURVE",
"1701 580 OFFCURVE",
"1707 580 CURVE SMOOTH"
);
},
{
closed = 1;
nodes = (
"2850 2936 OFFCURVE",
"2855 2931 OFFCURVE",
"2855 2925 CURVE SMOOTH",
"2855 2356 LINE SMOOTH",
"2855 2351 OFFCURVE",
"2850 2346 OFFCURVE",
"2844 2345 CURVE",
"2838 2346 OFFCURVE",
"2834 2351 OFFCURVE",
"2834 2356 CURVE SMOOTH",
"2834 2925 LINE SMOOTH",
"2834 2931 OFFCURVE",
"2839 2936 OFFCURVE",
"2844 2936 CURVE SMOOTH"
);
},
{
closed = 1;
nodes = (
"2834 2356 LINE SMOOTH",
"2834 2362 OFFCURVE",
"2839 2367 OFFCURVE",
"2844 2367 CURVE SMOOTH",
"2850 2367 OFFCURVE",
"2855 2362 OFFCURVE",
"2855 2356 CURVE SMOOTH",
"2855 569 LINE SMOOTH",
"2855 563 OFFCURVE",
"2850 558 OFFCURVE",
"2844 558 CURVE SMOOTH",
"2839 558 OFFCURVE",
"2834 563 OFFCURVE",
"2834 569 CURVE SMOOTH"
);
}
);
width = 3413;
},
{
layerId = "A6394422-5114-4E65-BA08-40D408A20CD5";
paths = (
{
closed = 1;
nodes = (
"814 3370 OFFCURVE",
"1014 3169 OFFCURVE",
"1014 2925 CURVE SMOOTH",
"1014 2356 LINE SMOOTH",
"1014 2111 OFFCURVE",
"815 1912 OFFCURVE",
"569 1911 CURVE SMOOTH",
"323 1912 OFFCURVE",
"124 2111 OFFCURVE",
"124 2356 CURVE SMOOTH",
"124 2925 LINE SMOOTH",
"124 3170 OFFCURVE",
"325 3370 OFFCURVE",
"569 3370 CURVE SMOOTH"
);
},
{
closed = 1;
nodes = (
"814 2801 OFFCURVE",
"1014 2600 OFFCURVE",
"1014 2356 CURVE SMOOTH",
"1014 569 LINE SMOOTH",
"1014 324 OFFCURVE",
"813 124 OFFCURVE",
"569 124 CURVE SMOOTH",
"324 124 OFFCURVE",
"124 325 OFFCURVE",
"124 569 CURVE SMOOTH",
"124 2356 LINE SMOOTH",
"124 2601 OFFCURVE",
"325 2801 OFFCURVE",
"569 2801 CURVE SMOOTH"
);
},
{
closed = 1;
nodes = (
"1952 1014 OFFCURVE",
"2151 815 OFFCURVE",
"2151 569 CURVE SMOOTH",
"2151 428 OFFCURVE",
"2120 285 OFFCURVE",
"2061 151 CURVE SMOOTH",
"1901 -210 OFFCURVE",
"1537 -445 OFFCURVE",
"1138 -445 CURVE SMOOTH",
"893 -445 OFFCURVE",
"693 -244 OFFCURVE",
"693 0 CURVE SMOOTH",
"693 245 OFFCURVE",
"894 445 OFFCURVE",
"1138 445 CURVE SMOOTH",
"1172 445 OFFCURVE",
"1201 457 OFFCURVE",
"1225 481 CURVE SMOOTH",
"1250 506 OFFCURVE",
"1262 534 OFFCURVE",
"1262 569 CURVE SMOOTH",
"1262 814 OFFCURVE",
"1461 1014 OFFCURVE",
"1707 1014 CURVE SMOOTH"
);
},
{
closed = 1;
nodes = (
"814 1014 OFFCURVE",
"1014 813 OFFCURVE",
"1014 569 CURVE SMOOTH",
"1014 516 OFFCURVE",
"1036 484 OFFCURVE",
"1084 456 CURVE",
"1101 449 OFFCURVE",
"1118 445 OFFCURVE",
"1138 445 CURVE SMOOTH",
"1383 445 OFFCURVE",
"1582 246 OFFCURVE",
"1582 0 CURVE SMOOTH",
"1582 -246 OFFCURVE",
"1383 -445 OFFCURVE",
"1138 -445 CURVE SMOOTH",
"871 -445 OFFCURVE",
"610 -337 OFFCURVE",
"421 -148 CURVE SMOOTH",
"232 41 OFFCURVE",
"124 302 OFFCURVE",
"124 569 CURVE SMOOTH",
"124 814 OFFCURVE",
"325 1014 OFFCURVE",
"569 1014 CURVE SMOOTH"
);
},
{
closed = 1;
nodes = (
"1952 3370 OFFCURVE",
"2151 3171 OFFCURVE",
"2151 2925 CURVE SMOOTH",
"2151 2356 LINE SMOOTH",
"2151 2111 OFFCURVE",
"1952 1912 OFFCURVE",
"1707 1911 CURVE SMOOTH",
"1461 1912 OFFCURVE",
"1262 2111 OFFCURVE",
"1262 2356 CURVE SMOOTH",
"1262 2925 LINE SMOOTH",
"1262 3170 OFFCURVE",
"1461 3370 OFFCURVE",
"1707 3370 CURVE SMOOTH"
);
},
{
closed = 1;
nodes = (
"1952 2801 OFFCURVE",
"2151 2602 OFFCURVE",
"2151 2356 CURVE SMOOTH",
"2151 569 LINE SMOOTH",
"2151 323 OFFCURVE",
"1952 124 OFFCURVE",
"1707 124 CURVE SMOOTH",
"1462 124 OFFCURVE",
"1262 323 OFFCURVE",
"1262 569 CURVE SMOOTH",
"1262 2356 LINE SMOOTH",
"1262 2601 OFFCURVE",
"1461 2801 OFFCURVE",
"1707 2801 CURVE SMOOTH"
);
},
{
closed = 1;
nodes = (
"3089 1014 OFFCURVE",
"3289 815 OFFCURVE",
"3289 569 CURVE SMOOTH",
"3289 302 OFFCURVE",
"3181 41 OFFCURVE",
"2992 -148 CURVE SMOOTH",
"2803 -337 OFFCURVE",
"2542 -445 OFFCURVE",
"2276 -445 CURVE SMOOTH",
"2031 -445 OFFCURVE",
"1831 -246 OFFCURVE",
"1831 0 CURVE SMOOTH",
"1831 245 OFFCURVE",
"2030 445 OFFCURVE",
"2276 445 CURVE SMOOTH",
"2309 445 OFFCURVE",
"2338 457 OFFCURVE",
"2365 481 CURVE",
"2389 508 OFFCURVE",
"2400 536 OFFCURVE",
"2400 569 CURVE SMOOTH",
"2400 815 OFFCURVE",
"2599 1014 OFFCURVE",
"2844 1014 CURVE SMOOTH"
);
},
{
closed = 1;
nodes = (
"1952 1014 OFFCURVE",
"2151 815 OFFCURVE",
"2151 569 CURVE SMOOTH",
"2151 536 OFFCURVE",
"2164 505 OFFCURVE",
"2186 482 CURVE SMOOTH",
"2213 456 OFFCURVE",
"2241 445 OFFCURVE",
"2276 445 CURVE SMOOTH",
"2521 445 OFFCURVE",
"2720 246 OFFCURVE",
"2720 0 CURVE SMOOTH",
"2720 -246 OFFCURVE",
"2521 -445 OFFCURVE",
"2276 -445 CURVE SMOOTH",
"2009 -445 OFFCURVE",
"1748 -337 OFFCURVE",
"1559 -148 CURVE SMOOTH",
"1370 41 OFFCURVE",
"1262 302 OFFCURVE",
"1262 569 CURVE SMOOTH",
"1262 814 OFFCURVE",
"1461 1014 OFFCURVE",
"1707 1014 CURVE SMOOTH"
);
},
{
closed = 1;
nodes = (
"3089 3370 OFFCURVE",
"3289 3171 OFFCURVE",
"3289 2925 CURVE SMOOTH",
"3289 2356 LINE SMOOTH",
"3289 2111 OFFCURVE",
"3090 1912 OFFCURVE",
"2844 1911 CURVE SMOOTH",
"2599 1912 OFFCURVE",
"2400 2111 OFFCURVE",
"2400 2356 CURVE SMOOTH",
"2400 2925 LINE SMOOTH",
"2400 3171 OFFCURVE",
"2599 3370 OFFCURVE",
"2844 3370 CURVE SMOOTH"
);
},
{
closed = 1;
nodes = (
"2400 2356 LINE SMOOTH",
"2400 2602 OFFCURVE",
"2599 2801 OFFCURVE",
"2844 2801 CURVE SMOOTH",
"3089 2801 OFFCURVE",
"3289 2602 OFFCURVE",
"3289 2356 CURVE SMOOTH",
"3289 569 LINE SMOOTH",
"3289 324 OFFCURVE",
"3090 124 OFFCURVE",
"2844 124 CURVE SMOOTH",
"2599 124 OFFCURVE",
"2400 323 OFFCURVE",
"2400 569 CURVE SMOOTH"
);
}
);
width = 3413;
}
);
leftKerningGroup = c;
rightKerningGroup = c;
unicode = 0077;
},
{
glyphname = j;
lastChange = "2021-01-31 07:32:33 +0000";
layers = (
{
layerId = "19B6A511-96ED-40AF-BAB7-D1E16DFA4179";
paths = (
{
closed = 1;
nodes = (
"575 -2345 OFFCURVE",
"580 -2350 OFFCURVE",
"580 -2356 CURVE SMOOTH",
"580 -2511 OFFCURVE",
"520 -2657 OFFCURVE",
"410 -2766 CURVE SMOOTH",
"302 -2875 OFFCURVE",
"155 -2936 OFFCURVE",
"1 -2936 CURVE SMOOTH",
"-4 -2936 OFFCURVE",
"-10 -2930 OFFCURVE",
"-10 -2925 CURVE SMOOTH",
"-10 -2920 OFFCURVE",
"-4 -2914 OFFCURVE",
"1 -2914 CURVE SMOOTH",
"190 -2914 OFFCURVE",
"361 -2820 OFFCURVE",
"470 -2658 CURVE SMOOTH",
"527 -2572 OFFCURVE",
"559 -2464 OFFCURVE",
"559 -2356 CURVE SMOOTH",
"559 -2351 OFFCURVE",
"565 -2345 OFFCURVE",
"570 -2345 CURVE SMOOTH"
);
},
{
closed = 1;
nodes = (
"585 4384 OFFCURVE",
"584 4381 OFFCURVE",
"579 4376 CURVE SMOOTH",
"574 4371 OFFCURVE",
"571 4370 OFFCURVE",
"563 4370 CURVE SMOOTH",
"557 4370 OFFCURVE",
"551 4372 OFFCURVE",
"546 4377 CURVE SMOOTH",
"541 4382 OFFCURVE",
"540 4384 OFFCURVE",
"540 4392 CURVE SMOOTH",
"540 4398 OFFCURVE",
"542 4403 OFFCURVE",
"547 4408 CURVE SMOOTH",
"552 4413 OFFCURVE",
"557 4415 OFFCURVE",
"563 4415 CURVE SMOOTH",
"571 4415 OFFCURVE",
"573 4414 OFFCURVE",
"578 4409 CURVE SMOOTH",
"583 4404 OFFCURVE",
"585 4398 OFFCURVE",
"585 4392 CURVE SMOOTH"
);
},
{
closed = 1;
nodes = (
"575 2936 OFFCURVE",
"580 2931 OFFCURVE",
"580 2925 CURVE SMOOTH",
"580 2356 LINE SMOOTH",
"580 2351 OFFCURVE",
"576 2346 OFFCURVE",
"570 2345 CURVE",
"564 2346 OFFCURVE",
"559 2351 OFFCURVE",
"559 2356 CURVE SMOOTH",
"559 2925 LINE SMOOTH",
"559 2930 OFFCURVE",
"565 2936 OFFCURVE",
"570 2936 CURVE SMOOTH"
);
},
{
closed = 1;
nodes = (
"575 2367 OFFCURVE",
"580 2362 OFFCURVE",
"580 2356 CURVE SMOOTH",
"580 569 LINE SMOOTH",
"580 563 OFFCURVE",
"575 558 OFFCURVE",
"570 558 CURVE SMOOTH",
"565 558 OFFCURVE",
"559 564 OFFCURVE",
"559 569 CURVE SMOOTH",
"559 2356 LINE SMOOTH",
"559 2361 OFFCURVE",
"565 2367 OFFCURVE",
"570 2367 CURVE SMOOTH"
);
},
{
closed = 1;
nodes = (
"575 580 OFFCURVE",
"580 575 OFFCURVE",
"580 569 CURVE SMOOTH",
"580 0 LINE SMOOTH",
"580 -6 OFFCURVE",
"575 -11 OFFCURVE",
"570 -11 CURVE SMOOTH",
"565 -11 OFFCURVE",
"559 -5 OFFCURVE",
"559 0 CURVE SMOOTH",
"559 569 LINE SMOOTH",
"559 574 OFFCURVE",
"565 580 OFFCURVE",
"570 580 CURVE SMOOTH"
);
},
{
closed = 1;
nodes = (
"575 11 OFFCURVE",
"580 6 OFFCURVE",
"580 0 CURVE SMOOTH",
"580 -569 LINE SMOOTH",
"580 -574 OFFCURVE",
"576 -579 OFFCURVE",
"570 -580 CURVE",
"564 -579 OFFCURVE",
"559 -574 OFFCURVE",
"559 -569 CURVE SMOOTH",
"559 0 LINE SMOOTH",
"559 5 OFFCURVE",
"565 11 OFFCURVE",
"570 11 CURVE SMOOTH"
);
},
{
closed = 1;
nodes = (
"559 -569 LINE SMOOTH",
"559 -564 OFFCURVE",
"565 -558 OFFCURVE",
"570 -558 CURVE SMOOTH",
"575 -558 OFFCURVE",
"580 -563 OFFCURVE",
"580 -569 CURVE SMOOTH",
"580 -2356 LINE SMOOTH",
"580 -2362 OFFCURVE",
"575 -2367 OFFCURVE",
"570 -2367 CURVE SMOOTH",
"565 -2367 OFFCURVE",
"559 -2361 OFFCURVE",
"559 -2356 CURVE SMOOTH"
);
}
);
width = 1143;
},
{
layerId = "A6394422-5114-4E65-BA08-40D408A20CD5";
paths = (
{
closed = 1;
nodes = (
"815 -1911 OFFCURVE",
"1014 -2110 OFFCURVE",
"1014 -2356 CURVE SMOOTH",
"1014 -2623 OFFCURVE",
"907 -2883 OFFCURVE",
"718 -3073 CURVE SMOOTH",
"530 -3262 OFFCURVE",
"270 -3370 OFFCURVE",
"1 -3370 CURVE SMOOTH",
"-244 -3370 OFFCURVE",
"-444 -3169 OFFCURVE",
"-444 -2925 CURVE SMOOTH",
"-444 -2680 OFFCURVE",
"-243 -2480 OFFCURVE",
"1 -2480 CURVE SMOOTH",
"45 -2480 OFFCURVE",
"79 -2461 OFFCURVE",
"108 -2417 CURVE SMOOTH",
"120 -2399 OFFCURVE",
"125 -2379 OFFCURVE",
"125 -2356 CURVE SMOOTH",
"125 -2111 OFFCURVE",
"326 -1911 OFFCURVE",
"570 -1911 CURVE SMOOTH"
);
},
{
closed = 1;
nodes = (
"1019 4271 OFFCURVE",
"971 4154 OFFCURVE",
"886 4069 CURVE SMOOTH",
"801 3984 OFFCURVE",
"684 3936 OFFCURVE",
"563 3936 CURVE SMOOTH",
"443 3936 OFFCURVE",
"325 3985 OFFCURVE",
"240 4069 CURVE SMOOTH",
"154 4155 OFFCURVE",
"106 4271 OFFCURVE",
"106 4392 CURVE SMOOTH",
"106 4512 OFFCURVE",
"155 4630 OFFCURVE",
"240 4715 CURVE SMOOTH",
"325 4800 OFFCURVE",
"443 4849 OFFCURVE",
"563 4849 CURVE SMOOTH",
"684 4849 OFFCURVE",
"800 4801 OFFCURVE",
"886 4715 CURVE SMOOTH",
"970 4630 OFFCURVE",
"1019 4512 OFFCURVE",
"1019 4392 CURVE SMOOTH"
);
},
{
closed = 1;
nodes = (
"815 3370 OFFCURVE",
"1014 3171 OFFCURVE",
"1014 2925 CURVE SMOOTH",
"1014 2356 LINE SMOOTH",
"1014 2111 OFFCURVE",
"815 1912 OFFCURVE",
"570 1911 CURVE SMOOTH",
"324 1912 OFFCURVE",
"125 2111 OFFCURVE",
"125 2356 CURVE SMOOTH",
"125 2925 LINE SMOOTH",
"125 3170 OFFCURVE",
"326 3370 OFFCURVE",
"570 3370 CURVE SMOOTH"
);
},
{
closed = 1;
nodes = (
"815 2801 OFFCURVE",
"1014 2602 OFFCURVE",
"1014 2356 CURVE SMOOTH",
"1014 569 LINE SMOOTH",
"1014 323 OFFCURVE",
"815 124 OFFCURVE",
"570 124 CURVE SMOOTH",
"325 124 OFFCURVE",
"125 325 OFFCURVE",
"125 569 CURVE SMOOTH",
"125 2356 LINE SMOOTH",
"125 2601 OFFCURVE",
"326 2801 OFFCURVE",
"570 2801 CURVE SMOOTH"
);
},
{
closed = 1;
nodes = (
"815 1014 OFFCURVE",
"1014 815 OFFCURVE",
"1014 569 CURVE SMOOTH",
"1014 0 LINE SMOOTH",
"1014 -246 OFFCURVE",
"815 -445 OFFCURVE",
"570 -445 CURVE SMOOTH",
"325 -445 OFFCURVE",
"125 -244 OFFCURVE",
"125 0 CURVE SMOOTH",
"125 569 LINE SMOOTH",
"125 814 OFFCURVE",
"326 1014 OFFCURVE",
"570 1014 CURVE SMOOTH"
);
},
{
closed = 1;
nodes = (
"815 445 OFFCURVE",
"1014 246 OFFCURVE",
"1014 0 CURVE SMOOTH",
"1014 -569 LINE SMOOTH",
"1014 -814 OFFCURVE",
"815 -1013 OFFCURVE",
"570 -1014 CURVE SMOOTH",
"324 -1013 OFFCURVE",
"125 -814 OFFCURVE",
"125 -569 CURVE SMOOTH",
"125 0 LINE SMOOTH",
"125 245 OFFCURVE",
"326 445 OFFCURVE",
"570 445 CURVE SMOOTH"
);
},
{
closed = 1;
nodes = (
"125 -569 LINE SMOOTH",
"125 -324 OFFCURVE",
"326 -124 OFFCURVE",
"570 -124 CURVE SMOOTH",
"815 -124 OFFCURVE",
"1014 -323 OFFCURVE",
"1014 -569 CURVE SMOOTH",
"1014 -2356 LINE SMOOTH",
"1014 -2602 OFFCURVE",
"815 -2801 OFFCURVE",
"570 -2801 CURVE SMOOTH",
"325 -2801 OFFCURVE",
"125 -2600 OFFCURVE",
"125 -2356 CURVE SMOOTH"
);
}
);
width = 1143;
}
);
unicode = 006A;
},
{
glyphname = q;
lastChange = "2021-01-31 07:32:33 +0000";
layers = (
{
layerId = "19B6A511-96ED-40AF-BAB7-D1E16DFA4179";
paths = (
{
closed = 1;
nodes = (
"574 2367 OFFCURVE",
"580 2361 OFFCURVE",
"580 2356 CURVE SMOOTH",
"580 569 LINE SMOOTH",
"580 564 OFFCURVE",
"574 558 OFFCURVE",
"569 558 CURVE SMOOTH",
"564 558 OFFCURVE",
"558 564 OFFCURVE",
"558 569 CURVE SMOOTH",
"558 2356 LINE SMOOTH",
"558 2361 OFFCURVE",
"564 2367 OFFCURVE",
"569 2367 CURVE SMOOTH"
);
},
{
closed = 1;
nodes = (
"1143 2936 OFFCURVE",
"1148 2931 OFFCURVE",
"1148 2925 CURVE SMOOTH",
"1148 2919 OFFCURVE",
"1143 2914 OFFCURVE",
"1138 2914 CURVE SMOOTH",
"972 2914 OFFCURVE",
"818 2842 OFFCURVE",
"707 2713 CURVE SMOOTH",
"625 2614 OFFCURVE",
"580 2488 OFFCURVE",
"580 2356 CURVE SMOOTH",
"580 2351 OFFCURVE",
"575 2346 OFFCURVE",
"569 2345 CURVE",
"563 2346 OFFCURVE",
"558 2351 OFFCURVE",
"558 2356 CURVE SMOOTH",
"558 2510 OFFCURVE",
"619 2658 OFFCURVE",
"728 2766 CURVE SMOOTH",
"836 2875 OFFCURVE",
"984 2936 OFFCURVE",
"1138 2936 CURVE SMOOTH"
);
},
{
closed = 1;
nodes = (
"1712 580 OFFCURVE",
"1717 575 OFFCURVE",
"1717 569 CURVE SMOOTH",
"1717 485 OFFCURVE",
"1701 409 OFFCURVE",
"1664 326 CURVE SMOOTH",
"1573 122 OFFCURVE",
"1365 -11 OFFCURVE",
"1138 -11 CURVE SMOOTH",
"1133 -11 OFFCURVE",
"1127 -5 OFFCURVE",
"1127 0 CURVE SMOOTH",
"1127 5 OFFCURVE",
"1133 11 OFFCURVE",
"1138 11 CURVE SMOOTH",
"1286 11 OFFCURVE",
"1426 69 OFFCURVE",
"1532 174 CURVE SMOOTH",
"1637 279 OFFCURVE",
"1696 420 OFFCURVE",
"1696 569 CURVE SMOOTH",
"1696 575 OFFCURVE",
"1701 580 OFFCURVE",
"1707 580 CURVE SMOOTH"
);
},
{
closed = 1;
nodes = (
"1365 2936 OFFCURVE",
"1573 2803 OFFCURVE",
"1664 2599 CURVE SMOOTH",
"1701 2516 OFFCURVE",
"1717 2440 OFFCURVE",
"1717 2356 CURVE SMOOTH",
"1717 2351 OFFCURVE",
"1713 2346 OFFCURVE",
"1707 2345 CURVE",
"1701 2346 OFFCURVE",
"1696 2351 OFFCURVE",
"1696 2356 CURVE SMOOTH",
"1696 2505 OFFCURVE",
"1637 2646 OFFCURVE",
"1532 2751 CURVE SMOOTH",
"1426 2856 OFFCURVE",
"1286 2914 OFFCURVE",
"1138 2914 CURVE SMOOTH",
"1133 2914 OFFCURVE",
"1127 2920 OFFCURVE",
"1127 2925 CURVE SMOOTH",
"1127 2930 OFFCURVE",
"1133 2936 OFFCURVE",
"1138 2936 CURVE SMOOTH"
);
},
{
closed = 1;
nodes = (
"574 580 OFFCURVE",
"580 574 OFFCURVE",
"580 569 CURVE SMOOTH",
"580 355 OFFCURVE",
"692 173 OFFCURVE",
"888 69 CURVE SMOOTH",
"962 33 OFFCURVE",
"1056 11 OFFCURVE",
"1138 11 CURVE SMOOTH",
"1143 11 OFFCURVE",
"1148 6 OFFCURVE",
"1148 0 CURVE SMOOTH",
"1148 -6 OFFCURVE",
"1143 -11 OFFCURVE",
"1138 -11 CURVE SMOOTH",
"984 -11 OFFCURVE",
"836 50 OFFCURVE",
"728 159 CURVE SMOOTH",
"619 267 OFFCURVE",
"558 415 OFFCURVE",
"558 569 CURVE SMOOTH",
"558 574 OFFCURVE",
"564 580 OFFCURVE",
"569 580 CURVE SMOOTH"
);
},
{
closed = 1;
nodes = (
"1712 2367 OFFCURVE",
"1717 2362 OFFCURVE",
"1717 2356 CURVE SMOOTH",
"1717 569 LINE SMOOTH",
"1717 563 OFFCURVE",
"1712 558 OFFCURVE",
"1707 558 CURVE SMOOTH",
"1701 558 OFFCURVE",
"1696 563 OFFCURVE",
"1696 569 CURVE SMOOTH",
"1696 2356 LINE SMOOTH",
"1696 2362 OFFCURVE",
"1701 2367 OFFCURVE",
"1707 2367 CURVE SMOOTH"
);
},
{
closed = 1;
nodes = (
"1712 580 OFFCURVE",
"1717 575 OFFCURVE",
"1717 569 CURVE SMOOTH",
"1717 0 LINE SMOOTH",
"1717 -6 OFFCURVE",
"1712 -11 OFFCURVE",
"1707 -11 CURVE SMOOTH",
"1701 -11 OFFCURVE",
"1696 -6 OFFCURVE",
"1696 0 CURVE SMOOTH",
"1696 569 LINE SMOOTH",
"1696 575 OFFCURVE",
"1701 580 OFFCURVE",
"1707 580 CURVE SMOOTH"
);
},
{
closed = 1;
nodes = (
"1712 11 OFFCURVE",
"1717 6 OFFCURVE",
"1717 0 CURVE SMOOTH",
"1717 -569 LINE SMOOTH",
"1717 -574 OFFCURVE",
"1713 -579 OFFCURVE",
"1707 -580 CURVE",
"1701 -579 OFFCURVE",
"1696 -574 OFFCURVE",
"1696 -569 CURVE SMOOTH",
"1696 0 LINE SMOOTH",
"1696 6 OFFCURVE",
"1701 11 OFFCURVE",
"1707 11 CURVE SMOOTH"
);
},
{
closed = 1;
nodes = (
"1712 -558 OFFCURVE",
"1717 -563 OFFCURVE",
"1717 -569 CURVE SMOOTH",
"1717 -2356 LINE SMOOTH",
"1717 -2362 OFFCURVE",
"1712 -2367 OFFCURVE",
"1707 -2367 CURVE SMOOTH",
"1701 -2367 OFFCURVE",
"1696 -2362 OFFCURVE",
"1696 -2356 CURVE SMOOTH",
"1696 -569 LINE SMOOTH",
"1696 -563 OFFCURVE",
"1701 -558 OFFCURVE",
"1707 -558 CURVE SMOOTH"
);
},
{
closed = 1;
nodes = (
"1696 -2356 LINE SMOOTH",
"1696 -2350 OFFCURVE",
"1701 -2345 OFFCURVE",
"1707 -2345 CURVE SMOOTH",
"1712 -2345 OFFCURVE",
"1717 -2350 OFFCURVE",
"1717 -2356 CURVE SMOOTH",
"1717 -2925 LINE SMOOTH",
"1717 -2931 OFFCURVE",
"1712 -2936 OFFCURVE",
"1707 -2936 CURVE SMOOTH",
"1701 -2936 OFFCURVE",
"1696 -2931 OFFCURVE",
"1696 -2925 CURVE SMOOTH"
);
}
);
width = 2275;
},
{
layerId = "A6394422-5114-4E65-BA08-40D408A20CD5";
paths = (
{
closed = 1;
nodes = (
"814 2801 OFFCURVE",
"1014 2600 OFFCURVE",
"1014 2356 CURVE SMOOTH",
"1014 569 LINE SMOOTH",
"1014 324 OFFCURVE",
"813 124 OFFCURVE",
"569 124 CURVE SMOOTH",
"324 124 OFFCURVE",
"124 325 OFFCURVE",
"124 569 CURVE SMOOTH",
"124 2356 LINE SMOOTH",
"124 2601 OFFCURVE",
"325 2801 OFFCURVE",
"569 2801 CURVE SMOOTH"
);
},
{
closed = 1;
nodes = (
"1383 3370 OFFCURVE",
"1582 3171 OFFCURVE",
"1582 2925 CURVE SMOOTH",
"1582 2679 OFFCURVE",
"1383 2480 OFFCURVE",
"1138 2480 CURVE SMOOTH",
"1098 2480 OFFCURVE",
"1067 2465 OFFCURVE",
"1039 2433 CURVE SMOOTH",
"1022 2412 OFFCURVE",
"1014 2388 OFFCURVE",
"1014 2356 CURVE SMOOTH",
"1014 2111 OFFCURVE",
"815 1912 OFFCURVE",
"569 1911 CURVE SMOOTH",
"323 1912 OFFCURVE",
"124 2111 OFFCURVE",
"124 2356 CURVE SMOOTH",
"124 2623 OFFCURVE",
"232 2884 OFFCURVE",
"421 3073 CURVE SMOOTH",
"610 3262 OFFCURVE",
"871 3370 OFFCURVE",
"1138 3370 CURVE SMOOTH"
);
},
{
closed = 1;
nodes = (
"1952 1014 OFFCURVE",
"2151 815 OFFCURVE",
"2151 569 CURVE SMOOTH",
"2151 428 OFFCURVE",
"2120 285 OFFCURVE",
"2061 151 CURVE SMOOTH",
"1901 -210 OFFCURVE",
"1537 -445 OFFCURVE",
"1138 -445 CURVE SMOOTH",
"893 -445 OFFCURVE",
"693 -244 OFFCURVE",
"693 0 CURVE SMOOTH",
"693 245 OFFCURVE",
"894 445 OFFCURVE",
"1138 445 CURVE SMOOTH",
"1172 445 OFFCURVE",
"1201 457 OFFCURVE",
"1225 481 CURVE SMOOTH",
"1250 506 OFFCURVE",
"1262 534 OFFCURVE",
"1262 569 CURVE SMOOTH",
"1262 814 OFFCURVE",
"1461 1014 OFFCURVE",
"1707 1014 CURVE SMOOTH"
);
},
{
closed = 1;
nodes = (
"1537 3370 OFFCURVE",
"1901 3135 OFFCURVE",
"2061 2774 CURVE SMOOTH",
"2120 2640 OFFCURVE",
"2151 2497 OFFCURVE",
"2151 2356 CURVE SMOOTH",
"2151 2111 OFFCURVE",
"1952 1912 OFFCURVE",
"1707 1911 CURVE SMOOTH",
"1461 1912 OFFCURVE",
"1262 2111 OFFCURVE",
"1262 2356 CURVE SMOOTH",
"1262 2391 OFFCURVE",
"1250 2419 OFFCURVE",
"1225 2444 CURVE SMOOTH",
"1201 2468 OFFCURVE",
"1172 2480 OFFCURVE",
"1138 2480 CURVE SMOOTH",
"893 2480 OFFCURVE",
"693 2681 OFFCURVE",
"693 2925 CURVE SMOOTH",
"693 3170 OFFCURVE",
"894 3370 OFFCURVE",
"1138 3370 CURVE SMOOTH"
);
},
{
closed = 1;
nodes = (
"814 1014 OFFCURVE",
"1014 813 OFFCURVE",
"1014 569 CURVE SMOOTH",
"1014 516 OFFCURVE",
"1036 484 OFFCURVE",
"1084 456 CURVE",
"1101 449 OFFCURVE",
"1118 445 OFFCURVE",
"1138 445 CURVE SMOOTH",
"1383 445 OFFCURVE",
"1582 246 OFFCURVE",
"1582 0 CURVE SMOOTH",
"1582 -246 OFFCURVE",
"1383 -445 OFFCURVE",
"1138 -445 CURVE SMOOTH",
"871 -445 OFFCURVE",
"610 -337 OFFCURVE",
"421 -148 CURVE SMOOTH",
"232 41 OFFCURVE",
"124 302 OFFCURVE",
"124 569 CURVE SMOOTH",
"124 814 OFFCURVE",
"325 1014 OFFCURVE",
"569 1014 CURVE SMOOTH"
);
},
{
closed = 1;
nodes = (
"1952 2801 OFFCURVE",
"2151 2602 OFFCURVE",
"2151 2356 CURVE SMOOTH",
"2151 569 LINE SMOOTH",
"2151 323 OFFCURVE",
"1952 124 OFFCURVE",
"1707 124 CURVE SMOOTH",
"1462 124 OFFCURVE",
"1262 323 OFFCURVE",
"1262 569 CURVE SMOOTH",
"1262 2356 LINE SMOOTH",
"1262 2601 OFFCURVE",
"1461 2801 OFFCURVE",
"1707 2801 CURVE SMOOTH"
);
},
{
closed = 1;
nodes = (
"1952 1014 OFFCURVE",
"2151 815 OFFCURVE",
"2151 569 CURVE SMOOTH",
"2151 0 LINE SMOOTH",
"2151 -246 OFFCURVE",
"1952 -445 OFFCURVE",
"1707 -445 CURVE SMOOTH",
"1462 -445 OFFCURVE",
"1262 -246 OFFCURVE",
"1262 0 CURVE SMOOTH",
"1262 569 LINE SMOOTH",
"1262 814 OFFCURVE",
"1461 1014 OFFCURVE",
"1707 1014 CURVE SMOOTH"
);
},
{
closed = 1;
nodes = (
"1952 445 OFFCURVE",
"2151 246 OFFCURVE",
"2151 0 CURVE SMOOTH",
"2151 -569 LINE SMOOTH",
"2151 -814 OFFCURVE",
"1952 -1013 OFFCURVE",
"1707 -1014 CURVE SMOOTH",
"1461 -1013 OFFCURVE",
"1262 -814 OFFCURVE",
"1262 -569 CURVE SMOOTH",
"1262 0 LINE SMOOTH",
"1262 245 OFFCURVE",
"1461 445 OFFCURVE",
"1707 445 CURVE SMOOTH"
);
},
{
closed = 1;
nodes = (
"1952 -124 OFFCURVE",
"2151 -323 OFFCURVE",
"2151 -569 CURVE SMOOTH",
"2151 -2356 LINE SMOOTH",
"2151 -2602 OFFCURVE",
"1952 -2801 OFFCURVE",
"1707 -2801 CURVE SMOOTH",
"1462 -2801 OFFCURVE",
"1262 -2602 OFFCURVE",
"1262 -2356 CURVE SMOOTH",
"1262 -569 LINE SMOOTH",
"1262 -324 OFFCURVE",
"1461 -124 OFFCURVE",
"1707 -124 CURVE SMOOTH"
);
},
{
closed = 1;
nodes = (
"1262 -2356 LINE SMOOTH",
"1262 -2111 OFFCURVE",
"1461 -1911 OFFCURVE",
"1707 -1911 CURVE SMOOTH",
"1952 -1911 OFFCURVE",
"2151 -2110 OFFCURVE",
"2151 -2356 CURVE SMOOTH",
"2151 -2925 LINE SMOOTH",
"2151 -3171 OFFCURVE",
"1952 -3370 OFFCURVE",
"1707 -3370 CURVE SMOOTH",
"1462 -3370 OFFCURVE",
"1262 -3171 OFFCURVE",
"1262 -2925 CURVE SMOOTH"
);
}
);
width = 2275;
}
);
leftKerningGroup = c;
unicode = 0071;
},
{
glyphname = x;
lastChange = "2021-01-31 07:32:33 +0000";
layers = (
{
layerId = "19B6A511-96ED-40AF-BAB7-D1E16DFA4179";
paths = (
{
closed = 1;
nodes = (
"1143 2936 OFFCURVE",
"1148 2931 OFFCURVE",
"1148 2925 CURVE SMOOTH",
"1148 2919 OFFCURVE",
"1143 2914 OFFCURVE",
"1138 2914 CURVE SMOOTH",
"972 2914 OFFCURVE",
"818 2842 OFFCURVE",
"707 2713 CURVE SMOOTH",
"625 2614 OFFCURVE",
"580 2488 OFFCURVE",
"580 2356 CURVE SMOOTH",
"580 2351 OFFCURVE",
"575 2346 OFFCURVE",
"569 2345 CURVE",
"563 2346 OFFCURVE",
"558 2351 OFFCURVE",
"558 2356 CURVE SMOOTH",
"558 2510 OFFCURVE",
"619 2658 OFFCURVE",
"728 2766 CURVE SMOOTH",
"836 2875 OFFCURVE",
"984 2936 OFFCURVE",
"1138 2936 CURVE SMOOTH"
);
},
{
closed = 1;
nodes = (
"1712 580 OFFCURVE",
"1717 575 OFFCURVE",
"1717 569 CURVE SMOOTH",
"1717 485 OFFCURVE",
"1701 409 OFFCURVE",
"1664 326 CURVE SMOOTH",
"1573 122 OFFCURVE",
"1365 -11 OFFCURVE",
"1138 -11 CURVE SMOOTH",
"1133 -11 OFFCURVE",
"1127 -5 OFFCURVE",
"1127 0 CURVE SMOOTH",
"1127 5 OFFCURVE",
"1133 11 OFFCURVE",
"1138 11 CURVE SMOOTH",
"1286 11 OFFCURVE",
"1426 69 OFFCURVE",
"1532 174 CURVE SMOOTH",
"1637 279 OFFCURVE",
"1696 420 OFFCURVE",
"1696 569 CURVE SMOOTH",
"1696 575 OFFCURVE",
"1701 580 OFFCURVE",
"1707 580 CURVE SMOOTH"
);
},
{
closed = 1;
nodes = (
"1365 2936 OFFCURVE",
"1573 2803 OFFCURVE",
"1664 2599 CURVE SMOOTH",
"1701 2516 OFFCURVE",
"1717 2440 OFFCURVE",
"1717 2356 CURVE SMOOTH",
"1717 2351 OFFCURVE",
"1713 2346 OFFCURVE",
"1707 2345 CURVE",
"1701 2346 OFFCURVE",
"1696 2351 OFFCURVE",
"1696 2356 CURVE SMOOTH",
"1696 2505 OFFCURVE",
"1637 2646 OFFCURVE",
"1532 2751 CURVE SMOOTH",
"1426 2856 OFFCURVE",
"1286 2914 OFFCURVE",
"1138 2914 CURVE SMOOTH",
"1133 2914 OFFCURVE",
"1127 2920 OFFCURVE",
"1127 2925 CURVE SMOOTH",
"1127 2930 OFFCURVE",
"1133 2936 OFFCURVE",
"1138 2936 CURVE SMOOTH"
);
},
{
closed = 1;
nodes = (
"574 580 OFFCURVE",
"580 574 OFFCURVE",
"580 569 CURVE SMOOTH",
"580 355 OFFCURVE",
"692 173 OFFCURVE",
"888 69 CURVE SMOOTH",
"962 33 OFFCURVE",
"1056 11 OFFCURVE",
"1138 11 CURVE SMOOTH",
"1143 11 OFFCURVE",
"1148 6 OFFCURVE",
"1148 0 CURVE SMOOTH",
"1148 -6 OFFCURVE",
"1143 -11 OFFCURVE",
"1138 -11 CURVE SMOOTH",
"984 -11 OFFCURVE",
"836 50 OFFCURVE",
"728 159 CURVE SMOOTH",
"619 267 OFFCURVE",
"558 415 OFFCURVE",
"558 569 CURVE SMOOTH",
"558 574 OFFCURVE",
"564 580 OFFCURVE",
"569 580 CURVE SMOOTH"
);
},
{
closed = 1;
nodes = (
"1712 2367 OFFCURVE",
"1717 2362 OFFCURVE",
"1717 2356 CURVE SMOOTH",
"1717 569 LINE SMOOTH",
"1717 563 OFFCURVE",
"1712 558 OFFCURVE",
"1707 558 CURVE SMOOTH",
"1701 558 OFFCURVE",
"1696 563 OFFCURVE",
"1696 569 CURVE SMOOTH",
"1696 2356 LINE SMOOTH",
"1696 2362 OFFCURVE",
"1701 2367 OFFCURVE",
"1707 2367 CURVE SMOOTH"
);
},
{
closed = 1;
nodes = (
"2281 2936 OFFCURVE",
"2286 2931 OFFCURVE",
"2286 2925 CURVE SMOOTH",
"2286 2919 OFFCURVE",
"2281 2914 OFFCURVE",
"2276 2914 CURVE SMOOTH",
"2185 2914 OFFCURVE",
"2094 2892 OFFCURVE",
"2014 2849 CURVE SMOOTH",
"1833 2755 OFFCURVE",
"1717 2562 OFFCURVE",
"1717 2356 CURVE SMOOTH",
"1717 2351 OFFCURVE",
"1713 2346 OFFCURVE",
"1707 2345 CURVE",
"1701 2346 OFFCURVE",
"1696 2351 OFFCURVE",
"1696 2356 CURVE SMOOTH",
"1696 2510 OFFCURVE",
"1757 2658 OFFCURVE",
"1866 2766 CURVE SMOOTH",
"1974 2875 OFFCURVE",
"2122 2936 OFFCURVE",
"2276 2936 CURVE SMOOTH"
);
},
{
closed = 1;
nodes = (
"2850 580 OFFCURVE",
"2855 575 OFFCURVE",
"2855 569 CURVE SMOOTH",
"2855 415 OFFCURVE",
"2794 267 OFFCURVE",
"2685 159 CURVE SMOOTH",
"2577 50 OFFCURVE",
"2429 -11 OFFCURVE",
"2276 -11 CURVE SMOOTH",
"2270 -11 OFFCURVE",
"2265 -6 OFFCURVE",
"2265 0 CURVE SMOOTH",
"2265 6 OFFCURVE",
"2270 11 OFFCURVE",
"2276 11 CURVE SMOOTH",
"2422 11 OFFCURVE",
"2563 69 OFFCURVE",
"2672 174 CURVE SMOOTH",
"2777 283 OFFCURVE",
"2834 422 OFFCURVE",
"2834 569 CURVE SMOOTH",
"2834 575 OFFCURVE",
"2839 580 OFFCURVE",
"2844 580 CURVE SMOOTH"
);
},
{
closed = 1;
nodes = (
"2429 2936 OFFCURVE",
"2577 2875 OFFCURVE",
"2685 2766 CURVE SMOOTH",
"2794 2658 OFFCURVE",
"2855 2510 OFFCURVE",
"2855 2356 CURVE SMOOTH",
"2855 2351 OFFCURVE",
"2850 2346 OFFCURVE",
"2844 2345 CURVE",
"2838 2346 OFFCURVE",
"2834 2351 OFFCURVE",
"2834 2356 CURVE SMOOTH",
"2834 2503 OFFCURVE",
"2777 2642 OFFCURVE",
"2672 2751 CURVE SMOOTH",
"2563 2856 OFFCURVE",
"2422 2914 OFFCURVE",
"2276 2914 CURVE SMOOTH",
"2270 2914 OFFCURVE",
"2265 2919 OFFCURVE",
"2265 2925 CURVE SMOOTH",
"2265 2931 OFFCURVE",
"2270 2936 OFFCURVE",
"2276 2936 CURVE SMOOTH"
);
},
{
closed = 1;
nodes = (
"1696 575 OFFCURVE",
"1701 580 OFFCURVE",
"1707 580 CURVE SMOOTH",
"1712 580 OFFCURVE",
"1717 575 OFFCURVE",
"1717 569 CURVE SMOOTH",
"1717 363 OFFCURVE",
"1833 170 OFFCURVE",
"2014 76 CURVE SMOOTH",
"2094 33 OFFCURVE",
"2185 11 OFFCURVE",
"2276 11 CURVE SMOOTH",
"2281 11 OFFCURVE",
"2286 6 OFFCURVE",
"2286 0 CURVE SMOOTH",
"2286 -6 OFFCURVE",
"2281 -11 OFFCURVE",
"2276 -11 CURVE SMOOTH",
"2122 -11 OFFCURVE",
"1974 50 OFFCURVE",
"1866 159 CURVE SMOOTH",
"1757 267 OFFCURVE",
"1696 415 OFFCURVE",
"1696 569 CURVE SMOOTH"
);
}
);
width = 3413;
},
{
layerId = "A6394422-5114-4E65-BA08-40D408A20CD5";
paths = (
{
closed = 1;
nodes = (
"1383 3370 OFFCURVE",
"1582 3171 OFFCURVE",
"1582 2925 CURVE SMOOTH",
"1582 2679 OFFCURVE",
"1383 2480 OFFCURVE",
"1138 2480 CURVE SMOOTH",
"1098 2480 OFFCURVE",
"1067 2465 OFFCURVE",
"1039 2433 CURVE SMOOTH",
"1022 2412 OFFCURVE",
"1014 2388 OFFCURVE",
"1014 2356 CURVE SMOOTH",
"1014 2111 OFFCURVE",
"815 1912 OFFCURVE",
"569 1911 CURVE SMOOTH",
"323 1912 OFFCURVE",
"124 2111 OFFCURVE",
"124 2356 CURVE SMOOTH",
"124 2623 OFFCURVE",
"232 2884 OFFCURVE",
"421 3073 CURVE SMOOTH",
"610 3262 OFFCURVE",
"871 3370 OFFCURVE",
"1138 3370 CURVE SMOOTH"
);
},
{
closed = 1;
nodes = (
"1952 1014 OFFCURVE",
"2151 815 OFFCURVE",
"2151 569 CURVE SMOOTH",
"2151 428 OFFCURVE",
"2120 285 OFFCURVE",
"2061 151 CURVE SMOOTH",
"1901 -210 OFFCURVE",
"1537 -445 OFFCURVE",
"1138 -445 CURVE SMOOTH",
"893 -445 OFFCURVE",
"693 -244 OFFCURVE",
"693 0 CURVE SMOOTH",
"693 245 OFFCURVE",
"894 445 OFFCURVE",
"1138 445 CURVE SMOOTH",
"1172 445 OFFCURVE",
"1201 457 OFFCURVE",
"1225 481 CURVE SMOOTH",
"1250 506 OFFCURVE",
"1262 534 OFFCURVE",
"1262 569 CURVE SMOOTH",
"1262 814 OFFCURVE",
"1461 1014 OFFCURVE",
"1707 1014 CURVE SMOOTH"
);
},
{
closed = 1;
nodes = (
"1537 3370 OFFCURVE",
"1901 3135 OFFCURVE",
"2061 2774 CURVE SMOOTH",
"2120 2640 OFFCURVE",
"2151 2497 OFFCURVE",
"2151 2356 CURVE SMOOTH",
"2151 2111 OFFCURVE",
"1952 1912 OFFCURVE",
"1707 1911 CURVE SMOOTH",
"1461 1912 OFFCURVE",
"1262 2111 OFFCURVE",
"1262 2356 CURVE SMOOTH",
"1262 2391 OFFCURVE",
"1250 2419 OFFCURVE",
"1225 2444 CURVE SMOOTH",
"1201 2468 OFFCURVE",
"1172 2480 OFFCURVE",
"1138 2480 CURVE SMOOTH",
"893 2480 OFFCURVE",
"693 2681 OFFCURVE",
"693 2925 CURVE SMOOTH",
"693 3170 OFFCURVE",
"894 3370 OFFCURVE",
"1138 3370 CURVE SMOOTH"
);
},
{
closed = 1;
nodes = (
"814 1014 OFFCURVE",
"1014 813 OFFCURVE",
"1014 569 CURVE SMOOTH",
"1014 516 OFFCURVE",
"1036 484 OFFCURVE",
"1084 456 CURVE",
"1101 449 OFFCURVE",
"1118 445 OFFCURVE",
"1138 445 CURVE SMOOTH",
"1383 445 OFFCURVE",
"1582 246 OFFCURVE",
"1582 0 CURVE SMOOTH",
"1582 -246 OFFCURVE",
"1383 -445 OFFCURVE",
"1138 -445 CURVE SMOOTH",
"871 -445 OFFCURVE",
"610 -337 OFFCURVE",
"421 -148 CURVE SMOOTH",
"232 41 OFFCURVE",
"124 302 OFFCURVE",
"124 569 CURVE SMOOTH",
"124 814 OFFCURVE",
"325 1014 OFFCURVE",
"569 1014 CURVE SMOOTH"
);
},
{
closed = 1;
nodes = (
"1952 2801 OFFCURVE",
"2151 2602 OFFCURVE",
"2151 2356 CURVE SMOOTH",
"2151 569 LINE SMOOTH",
"2151 323 OFFCURVE",
"1952 124 OFFCURVE",
"1707 124 CURVE SMOOTH",
"1462 124 OFFCURVE",
"1262 323 OFFCURVE",
"1262 569 CURVE SMOOTH",
"1262 2356 LINE SMOOTH",
"1262 2601 OFFCURVE",
"1461 2801 OFFCURVE",
"1707 2801 CURVE SMOOTH"
);
},
{
closed = 1;
nodes = (
"2521 3370 OFFCURVE",
"2720 3171 OFFCURVE",
"2720 2925 CURVE SMOOTH",
"2720 2679 OFFCURVE",
"2521 2480 OFFCURVE",
"2276 2480 CURVE SMOOTH",
"2241 2480 OFFCURVE",
"2213 2469 OFFCURVE",
"2186 2443 CURVE SMOOTH",
"2164 2420 OFFCURVE",
"2151 2389 OFFCURVE",
"2151 2356 CURVE SMOOTH",
"2151 2111 OFFCURVE",
"1952 1912 OFFCURVE",
"1707 1911 CURVE SMOOTH",
"1461 1912 OFFCURVE",
"1262 2111 OFFCURVE",
"1262 2356 CURVE SMOOTH",
"1262 2623 OFFCURVE",
"1370 2884 OFFCURVE",
"1559 3073 CURVE SMOOTH",
"1748 3262 OFFCURVE",
"2009 3370 OFFCURVE",
"2276 3370 CURVE SMOOTH"
);
},
{
closed = 1;
nodes = (
"3089 1014 OFFCURVE",
"3289 815 OFFCURVE",
"3289 569 CURVE SMOOTH",
"3289 302 OFFCURVE",
"3181 41 OFFCURVE",
"2992 -148 CURVE SMOOTH",
"2803 -337 OFFCURVE",
"2542 -445 OFFCURVE",
"2276 -445 CURVE SMOOTH",
"2031 -445 OFFCURVE",
"1831 -246 OFFCURVE",
"1831 0 CURVE SMOOTH",
"1831 245 OFFCURVE",
"2030 445 OFFCURVE",
"2276 445 CURVE SMOOTH",
"2309 445 OFFCURVE",
"2338 457 OFFCURVE",
"2365 481 CURVE",
"2389 508 OFFCURVE",
"2400 536 OFFCURVE",
"2400 569 CURVE SMOOTH",
"2400 815 OFFCURVE",
"2599 1014 OFFCURVE",
"2844 1014 CURVE SMOOTH"
);
},
{
closed = 1;
nodes = (
"2542 3370 OFFCURVE",
"2803 3262 OFFCURVE",
"2992 3073 CURVE SMOOTH",
"3181 2884 OFFCURVE",
"3289 2623 OFFCURVE",
"3289 2356 CURVE SMOOTH",
"3289 2111 OFFCURVE",
"3090 1912 OFFCURVE",
"2844 1911 CURVE SMOOTH",
"2599 1912 OFFCURVE",
"2400 2111 OFFCURVE",
"2400 2356 CURVE SMOOTH",
"2400 2389 OFFCURVE",
"2389 2417 OFFCURVE",
"2365 2444 CURVE",
"2338 2468 OFFCURVE",
"2309 2480 OFFCURVE",
"2276 2480 CURVE SMOOTH",
"2031 2480 OFFCURVE",
"1831 2679 OFFCURVE",
"1831 2925 CURVE SMOOTH",
"1831 3170 OFFCURVE",
"2030 3370 OFFCURVE",
"2276 3370 CURVE SMOOTH"
);
},
{
closed = 1;
nodes = (
"1262 814 OFFCURVE",
"1461 1014 OFFCURVE",
"1707 1014 CURVE SMOOTH",
"1952 1014 OFFCURVE",
"2151 815 OFFCURVE",
"2151 569 CURVE SMOOTH",
"2151 536 OFFCURVE",
"2164 505 OFFCURVE",
"2186 482 CURVE SMOOTH",
"2213 456 OFFCURVE",
"2241 445 OFFCURVE",
"2276 445 CURVE SMOOTH",
"2521 445 OFFCURVE",
"2720 246 OFFCURVE",
"2720 0 CURVE SMOOTH",
"2720 -246 OFFCURVE",
"2521 -445 OFFCURVE",
"2276 -445 CURVE SMOOTH",
"2009 -445 OFFCURVE",
"1748 -337 OFFCURVE",
"1559 -148 CURVE SMOOTH",
"1370 41 OFFCURVE",
"1262 302 OFFCURVE",
"1262 569 CURVE SMOOTH"
);
}
);
width = 3413;
}
);
leftKerningGroup = c;
rightKerningGroup = c;
unicode = 0078;
},
{
glyphname = y;
lastChange = "2021-01-31 07:32:33 +0000";
layers = (
{
layerId = "19B6A511-96ED-40AF-BAB7-D1E16DFA4179";
paths = (
{
closed = 1;
nodes = (
"574 2936 OFFCURVE",
"580 2930 OFFCURVE",
"580 2925 CURVE SMOOTH",
"580 2356 LINE SMOOTH",
"580 2351 OFFCURVE",
"575 2346 OFFCURVE",
"569 2345 CURVE",
"563 2346 OFFCURVE",
"558 2351 OFFCURVE",
"558 2356 CURVE SMOOTH",
"558 2925 LINE SMOOTH",
"558 2930 OFFCURVE",
"564 2936 OFFCURVE",
"569 2936 CURVE SMOOTH"
);
},
{
closed = 1;
nodes = (
"574 2367 OFFCURVE",
"580 2361 OFFCURVE",
"580 2356 CURVE SMOOTH",
"580 569 LINE SMOOTH",
"580 564 OFFCURVE",
"574 558 OFFCURVE",
"569 558 CURVE SMOOTH",
"564 558 OFFCURVE",
"558 564 OFFCURVE",
"558 569 CURVE SMOOTH",
"558 2356 LINE SMOOTH",
"558 2361 OFFCURVE",
"564 2367 OFFCURVE",
"569 2367 CURVE SMOOTH"
);
},
{
closed = 1;
nodes = (
"1712 580 OFFCURVE",
"1717 575 OFFCURVE",
"1717 569 CURVE SMOOTH",
"1717 485 OFFCURVE",
"1701 409 OFFCURVE",
"1664 326 CURVE SMOOTH",
"1573 122 OFFCURVE",
"1365 -11 OFFCURVE",
"1138 -11 CURVE SMOOTH",
"1133 -11 OFFCURVE",
"1127 -5 OFFCURVE",
"1127 0 CURVE SMOOTH",
"1127 5 OFFCURVE",
"1133 11 OFFCURVE",
"1138 11 CURVE SMOOTH",
"1286 11 OFFCURVE",
"1426 69 OFFCURVE",
"1532 174 CURVE SMOOTH",
"1637 279 OFFCURVE",
"1696 420 OFFCURVE",
"1696 569 CURVE SMOOTH",
"1696 575 OFFCURVE",
"1701 580 OFFCURVE",
"1707 580 CURVE SMOOTH"
);
},
{
closed = 1;
nodes = (
"1712 -2345 OFFCURVE",
"1717 -2350 OFFCURVE",
"1717 -2356 CURVE SMOOTH",
"1717 -2440 OFFCURVE",
"1701 -2516 OFFCURVE",
"1664 -2599 CURVE SMOOTH",
"1573 -2803 OFFCURVE",
"1365 -2936 OFFCURVE",
"1138 -2936 CURVE SMOOTH",
"1133 -2936 OFFCURVE",
"1127 -2930 OFFCURVE",
"1127 -2925 CURVE SMOOTH",
"1127 -2920 OFFCURVE",
"1133 -2914 OFFCURVE",
"1138 -2914 CURVE SMOOTH",
"1286 -2914 OFFCURVE",
"1426 -2856 OFFCURVE",
"1532 -2751 CURVE SMOOTH",
"1637 -2646 OFFCURVE",
"1696 -2505 OFFCURVE",
"1696 -2356 CURVE SMOOTH",
"1696 -2350 OFFCURVE",
"1701 -2345 OFFCURVE",
"1707 -2345 CURVE SMOOTH"
);
},
{
closed = 1;
nodes = (
"574 580 OFFCURVE",
"580 574 OFFCURVE",
"580 569 CURVE SMOOTH",
"580 355 OFFCURVE",
"692 173 OFFCURVE",
"888 69 CURVE SMOOTH",
"962 33 OFFCURVE",
"1056 11 OFFCURVE",
"1138 11 CURVE SMOOTH",
"1143 11 OFFCURVE",
"1148 6 OFFCURVE",
"1148 0 CURVE SMOOTH",
"1148 -6 OFFCURVE",
"1143 -11 OFFCURVE",
"1138 -11 CURVE SMOOTH",
"984 -11 OFFCURVE",
"836 50 OFFCURVE",
"728 159 CURVE SMOOTH",
"619 267 OFFCURVE",
"558 415 OFFCURVE",
"558 569 CURVE SMOOTH",
"558 574 OFFCURVE",
"564 580 OFFCURVE",
"569 580 CURVE SMOOTH"
);
},
{
closed = 1;
nodes = (
"574 -2345 OFFCURVE",
"580 -2351 OFFCURVE",
"580 -2356 CURVE SMOOTH",
"580 -2570 OFFCURVE",
"692 -2752 OFFCURVE",
"888 -2856 CURVE SMOOTH",
"962 -2892 OFFCURVE",
"1056 -2914 OFFCURVE",
"1138 -2914 CURVE SMOOTH",
"1143 -2914 OFFCURVE",
"1148 -2919 OFFCURVE",
"1148 -2925 CURVE SMOOTH",
"1148 -2931 OFFCURVE",
"1143 -2936 OFFCURVE",
"1138 -2936 CURVE SMOOTH",
"984 -2936 OFFCURVE",
"836 -2875 OFFCURVE",
"728 -2766 CURVE SMOOTH",
"619 -2658 OFFCURVE",
"558 -2510 OFFCURVE",
"558 -2356 CURVE SMOOTH",
"558 -2351 OFFCURVE",
"564 -2345 OFFCURVE",
"569 -2345 CURVE SMOOTH"
);
},
{
closed = 1;
nodes = (
"1712 2936 OFFCURVE",
"1717 2931 OFFCURVE",
"1717 2925 CURVE SMOOTH",
"1717 2356 LINE SMOOTH",
"1717 2351 OFFCURVE",
"1713 2346 OFFCURVE",
"1707 2345 CURVE",
"1701 2346 OFFCURVE",
"1696 2351 OFFCURVE",
"1696 2356 CURVE SMOOTH",
"1696 2925 LINE SMOOTH",
"1696 2931 OFFCURVE",
"1701 2936 OFFCURVE",
"1707 2936 CURVE SMOOTH"
);
},
{
closed = 1;
nodes = (
"1712 2367 OFFCURVE",
"1717 2362 OFFCURVE",
"1717 2356 CURVE SMOOTH",
"1717 569 LINE SMOOTH",
"1717 563 OFFCURVE",
"1712 558 OFFCURVE",
"1707 558 CURVE SMOOTH",
"1701 558 OFFCURVE",
"1696 563 OFFCURVE",
"1696 569 CURVE SMOOTH",
"1696 2356 LINE SMOOTH",
"1696 2362 OFFCURVE",
"1701 2367 OFFCURVE",
"1707 2367 CURVE SMOOTH"
);
},
{
closed = 1;
nodes = (
"1712 580 OFFCURVE",
"1717 575 OFFCURVE",
"1717 569 CURVE SMOOTH",
"1717 0 LINE SMOOTH",
"1717 -6 OFFCURVE",
"1712 -11 OFFCURVE",
"1707 -11 CURVE SMOOTH",
"1701 -11 OFFCURVE",
"1696 -6 OFFCURVE",
"1696 0 CURVE SMOOTH",
"1696 569 LINE SMOOTH",
"1696 575 OFFCURVE",
"1701 580 OFFCURVE",
"1707 580 CURVE SMOOTH"
);
},
{
closed = 1;
nodes = (
"1712 11 OFFCURVE",
"1717 6 OFFCURVE",
"1717 0 CURVE SMOOTH",
"1717 -569 LINE SMOOTH",
"1717 -574 OFFCURVE",
"1713 -579 OFFCURVE",
"1707 -580 CURVE",
"1701 -579 OFFCURVE",
"1696 -574 OFFCURVE",
"1696 -569 CURVE SMOOTH",
"1696 0 LINE SMOOTH",
"1696 6 OFFCURVE",
"1701 11 OFFCURVE",
"1707 11 CURVE SMOOTH"
);
},
{
closed = 1;
nodes = (
"1696 -569 LINE SMOOTH",
"1696 -563 OFFCURVE",
"1701 -558 OFFCURVE",
"1707 -558 CURVE SMOOTH",
"1712 -558 OFFCURVE",
"1717 -563 OFFCURVE",
"1717 -569 CURVE SMOOTH",
"1717 -2356 LINE SMOOTH",
"1717 -2362 OFFCURVE",
"1712 -2367 OFFCURVE",
"1707 -2367 CURVE SMOOTH",
"1701 -2367 OFFCURVE",
"1696 -2362 OFFCURVE",
"1696 -2356 CURVE SMOOTH"
);
}
);
width = 2275;
},
{
layerId = "A6394422-5114-4E65-BA08-40D408A20CD5";
paths = (
{
closed = 1;
nodes = (
"814 3370 OFFCURVE",
"1014 3169 OFFCURVE",
"1014 2925 CURVE SMOOTH",
"1014 2356 LINE SMOOTH",
"1014 2111 OFFCURVE",
"815 1912 OFFCURVE",
"569 1911 CURVE SMOOTH",
"323 1912 OFFCURVE",
"124 2111 OFFCURVE",
"124 2356 CURVE SMOOTH",
"124 2925 LINE SMOOTH",
"124 3170 OFFCURVE",
"325 3370 OFFCURVE",
"569 3370 CURVE SMOOTH"
);
},
{
closed = 1;
nodes = (
"814 2801 OFFCURVE",
"1014 2600 OFFCURVE",
"1014 2356 CURVE SMOOTH",
"1014 569 LINE SMOOTH",
"1014 324 OFFCURVE",
"813 124 OFFCURVE",
"569 124 CURVE SMOOTH",
"324 124 OFFCURVE",
"124 325 OFFCURVE",
"124 569 CURVE SMOOTH",
"124 2356 LINE SMOOTH",
"124 2601 OFFCURVE",
"325 2801 OFFCURVE",
"569 2801 CURVE SMOOTH"
);
},
{
closed = 1;
nodes = (
"1952 1014 OFFCURVE",
"2151 815 OFFCURVE",
"2151 569 CURVE SMOOTH",
"2151 428 OFFCURVE",
"2120 285 OFFCURVE",
"2061 151 CURVE SMOOTH",
"1901 -210 OFFCURVE",
"1537 -445 OFFCURVE",
"1138 -445 CURVE SMOOTH",
"893 -445 OFFCURVE",
"693 -244 OFFCURVE",
"693 0 CURVE SMOOTH",
"693 245 OFFCURVE",
"894 445 OFFCURVE",
"1138 445 CURVE SMOOTH",
"1172 445 OFFCURVE",
"1201 457 OFFCURVE",
"1225 481 CURVE SMOOTH",
"1250 506 OFFCURVE",
"1262 534 OFFCURVE",
"1262 569 CURVE SMOOTH",
"1262 814 OFFCURVE",
"1461 1014 OFFCURVE",
"1707 1014 CURVE SMOOTH"
);
},
{
closed = 1;
nodes = (
"1952 -1911 OFFCURVE",
"2151 -2110 OFFCURVE",
"2151 -2356 CURVE SMOOTH",
"2151 -2497 OFFCURVE",
"2120 -2640 OFFCURVE",
"2061 -2774 CURVE SMOOTH",
"1901 -3135 OFFCURVE",
"1537 -3370 OFFCURVE",
"1138 -3370 CURVE SMOOTH",
"893 -3370 OFFCURVE",
"693 -3169 OFFCURVE",
"693 -2925 CURVE SMOOTH",
"693 -2680 OFFCURVE",
"894 -2480 OFFCURVE",
"1138 -2480 CURVE SMOOTH",
"1172 -2480 OFFCURVE",
"1201 -2468 OFFCURVE",
"1225 -2444 CURVE SMOOTH",
"1250 -2419 OFFCURVE",
"1262 -2391 OFFCURVE",
"1262 -2356 CURVE SMOOTH",
"1262 -2111 OFFCURVE",
"1461 -1911 OFFCURVE",
"1707 -1911 CURVE SMOOTH"
);
},
{
closed = 1;
nodes = (
"814 1014 OFFCURVE",
"1014 813 OFFCURVE",
"1014 569 CURVE SMOOTH",
"1014 516 OFFCURVE",
"1036 484 OFFCURVE",
"1084 456 CURVE",
"1101 449 OFFCURVE",
"1118 445 OFFCURVE",
"1138 445 CURVE SMOOTH",
"1383 445 OFFCURVE",
"1582 246 OFFCURVE",
"1582 0 CURVE SMOOTH",
"1582 -246 OFFCURVE",
"1383 -445 OFFCURVE",
"1138 -445 CURVE SMOOTH",
"871 -445 OFFCURVE",
"610 -337 OFFCURVE",
"421 -148 CURVE SMOOTH",
"232 41 OFFCURVE",
"124 302 OFFCURVE",
"124 569 CURVE SMOOTH",
"124 814 OFFCURVE",
"325 1014 OFFCURVE",
"569 1014 CURVE SMOOTH"
);
},
{
closed = 1;
nodes = (
"814 -1911 OFFCURVE",
"1014 -2112 OFFCURVE",
"1014 -2356 CURVE SMOOTH",
"1014 -2409 OFFCURVE",
"1036 -2441 OFFCURVE",
"1084 -2469 CURVE",
"1101 -2476 OFFCURVE",
"1118 -2480 OFFCURVE",
"1138 -2480 CURVE SMOOTH",
"1383 -2480 OFFCURVE",
"1582 -2679 OFFCURVE",
"1582 -2925 CURVE SMOOTH",
"1582 -3171 OFFCURVE",
"1383 -3370 OFFCURVE",
"1138 -3370 CURVE SMOOTH",
"871 -3370 OFFCURVE",
"610 -3262 OFFCURVE",
"421 -3073 CURVE SMOOTH",
"232 -2884 OFFCURVE",
"124 -2623 OFFCURVE",
"124 -2356 CURVE SMOOTH",
"124 -2111 OFFCURVE",
"325 -1911 OFFCURVE",
"569 -1911 CURVE SMOOTH"
);
},
{
closed = 1;
nodes = (
"1952 3370 OFFCURVE",
"2151 3171 OFFCURVE",
"2151 2925 CURVE SMOOTH",
"2151 2356 LINE SMOOTH",
"2151 2111 OFFCURVE",
"1952 1912 OFFCURVE",
"1707 1911 CURVE SMOOTH",
"1461 1912 OFFCURVE",
"1262 2111 OFFCURVE",
"1262 2356 CURVE SMOOTH",
"1262 2925 LINE SMOOTH",
"1262 3170 OFFCURVE",
"1461 3370 OFFCURVE",
"1707 3370 CURVE SMOOTH"
);
},
{
closed = 1;
nodes = (
"1952 2801 OFFCURVE",
"2151 2602 OFFCURVE",
"2151 2356 CURVE SMOOTH",
"2151 569 LINE SMOOTH",
"2151 323 OFFCURVE",
"1952 124 OFFCURVE",
"1707 124 CURVE SMOOTH",
"1462 124 OFFCURVE",
"1262 323 OFFCURVE",
"1262 569 CURVE SMOOTH",
"1262 2356 LINE SMOOTH",
"1262 2601 OFFCURVE",
"1461 2801 OFFCURVE",
"1707 2801 CURVE SMOOTH"
);
},
{
closed = 1;
nodes = (
"1952 1014 OFFCURVE",
"2151 815 OFFCURVE",
"2151 569 CURVE SMOOTH",
"2151 0 LINE SMOOTH",
"2151 -246 OFFCURVE",
"1952 -445 OFFCURVE",
"1707 -445 CURVE SMOOTH",
"1462 -445 OFFCURVE",
"1262 -246 OFFCURVE",
"1262 0 CURVE SMOOTH",
"1262 569 LINE SMOOTH",
"1262 814 OFFCURVE",
"1461 1014 OFFCURVE",
"1707 1014 CURVE SMOOTH"
);
},
{
closed = 1;
nodes = (
"1952 445 OFFCURVE",
"2151 246 OFFCURVE",
"2151 0 CURVE SMOOTH",
"2151 -569 LINE SMOOTH",
"2151 -814 OFFCURVE",
"1952 -1013 OFFCURVE",
"1707 -1014 CURVE SMOOTH",
"1461 -1013 OFFCURVE",
"1262 -814 OFFCURVE",
"1262 -569 CURVE SMOOTH",
"1262 0 LINE SMOOTH",
"1262 245 OFFCURVE",
"1461 445 OFFCURVE",
"1707 445 CURVE SMOOTH"
);
},
{
closed = 1;
nodes = (
"1262 -569 LINE SMOOTH",
"1262 -324 OFFCURVE",
"1461 -124 OFFCURVE",
"1707 -124 CURVE SMOOTH",
"1952 -124 OFFCURVE",
"2151 -323 OFFCURVE",
"2151 -569 CURVE SMOOTH",
"2151 -2356 LINE SMOOTH",
"2151 -2602 OFFCURVE",
"1952 -2801 OFFCURVE",
"1707 -2801 CURVE SMOOTH",
"1462 -2801 OFFCURVE",
"1262 -2602 OFFCURVE",
"1262 -2356 CURVE SMOOTH"
);
}
);
width = 2275;
}
);
leftKerningGroup = c;
unicode = 0079;
},
{
glyphname = n;
lastChange = "2021-01-31 07:32:33 +0000";
layers = (
{
layerId = "19B6A511-96ED-40AF-BAB7-D1E16DFA4179";
paths = (
{
closed = 1;
nodes = (
"574 2367 OFFCURVE",
"580 2361 OFFCURVE",
"580 2356 CURVE SMOOTH",
"580 569 LINE SMOOTH",
"580 564 OFFCURVE",
"574 558 OFFCURVE",
"569 558 CURVE SMOOTH",
"564 558 OFFCURVE",
"558 564 OFFCURVE",
"558 569 CURVE SMOOTH",
"558 2356 LINE SMOOTH",
"558 2361 OFFCURVE",
"564 2367 OFFCURVE",
"569 2367 CURVE SMOOTH"
);
},
{
closed = 1;
nodes = (
"574 580 OFFCURVE",
"580 574 OFFCURVE",
"580 569 CURVE SMOOTH",
"580 0 LINE SMOOTH",
"580 -5 OFFCURVE",
"574 -11 OFFCURVE",
"569 -11 CURVE SMOOTH",
"564 -11 OFFCURVE",
"558 -5 OFFCURVE",
"558 0 CURVE SMOOTH",
"558 569 LINE SMOOTH",
"558 574 OFFCURVE",
"564 580 OFFCURVE",
"569 580 CURVE SMOOTH"
);
},
{
closed = 1;
nodes = (
"1143 2936 OFFCURVE",
"1148 2931 OFFCURVE",
"1148 2925 CURVE SMOOTH",
"1148 2919 OFFCURVE",
"1143 2914 OFFCURVE",
"1138 2914 CURVE SMOOTH",
"972 2914 OFFCURVE",
"818 2842 OFFCURVE",
"707 2713 CURVE SMOOTH",
"625 2614 OFFCURVE",
"580 2488 OFFCURVE",
"580 2356 CURVE SMOOTH",
"580 2351 OFFCURVE",
"575 2346 OFFCURVE",
"569 2345 CURVE",
"563 2346 OFFCURVE",
"558 2351 OFFCURVE",
"558 2356 CURVE SMOOTH",
"558 2510 OFFCURVE",
"619 2658 OFFCURVE",
"728 2766 CURVE SMOOTH",
"836 2875 OFFCURVE",
"984 2936 OFFCURVE",
"1138 2936 CURVE SMOOTH"
);
},
{
closed = 1;
nodes = (
"1365 2936 OFFCURVE",
"1573 2803 OFFCURVE",
"1664 2599 CURVE SMOOTH",
"1701 2516 OFFCURVE",
"1717 2440 OFFCURVE",
"1717 2356 CURVE SMOOTH",
"1717 2351 OFFCURVE",
"1713 2346 OFFCURVE",
"1707 2345 CURVE",
"1701 2346 OFFCURVE",
"1696 2351 OFFCURVE",
"1696 2356 CURVE SMOOTH",
"1696 2505 OFFCURVE",
"1637 2646 OFFCURVE",
"1532 2751 CURVE SMOOTH",
"1426 2856 OFFCURVE",
"1286 2914 OFFCURVE",
"1138 2914 CURVE SMOOTH",
"1133 2914 OFFCURVE",
"1127 2920 OFFCURVE",
"1127 2925 CURVE SMOOTH",
"1127 2930 OFFCURVE",
"1133 2936 OFFCURVE",
"1138 2936 CURVE SMOOTH"
);
},
{
closed = 1;
nodes = (
"1712 2367 OFFCURVE",
"1717 2362 OFFCURVE",
"1717 2356 CURVE SMOOTH",
"1717 569 LINE SMOOTH",
"1717 563 OFFCURVE",
"1712 558 OFFCURVE",
"1707 558 CURVE SMOOTH",
"1701 558 OFFCURVE",
"1696 563 OFFCURVE",
"1696 569 CURVE SMOOTH",
"1696 2356 LINE SMOOTH",
"1696 2362 OFFCURVE",
"1701 2367 OFFCURVE",
"1707 2367 CURVE SMOOTH"
);
},
{
closed = 1;
nodes = (
"1696 569 LINE SMOOTH",
"1696 575 OFFCURVE",
"1701 580 OFFCURVE",
"1707 580 CURVE SMOOTH",
"1712 580 OFFCURVE",
"1717 575 OFFCURVE",
"1717 569 CURVE SMOOTH",
"1717 0 LINE SMOOTH",
"1717 -6 OFFCURVE",
"1712 -11 OFFCURVE",
"1707 -11 CURVE SMOOTH",
"1701 -11 OFFCURVE",
"1696 -6 OFFCURVE",
"1696 0 CURVE SMOOTH"
);
}
);
width = 2275;
},
{
layerId = "A6394422-5114-4E65-BA08-40D408A20CD5";
paths = (
{
closed = 1;
nodes = (
"814 2801 OFFCURVE",
"1014 2600 OFFCURVE",
"1014 2356 CURVE SMOOTH",
"1014 569 LINE SMOOTH",
"1014 324 OFFCURVE",
"813 124 OFFCURVE",
"569 124 CURVE SMOOTH",
"324 124 OFFCURVE",
"124 325 OFFCURVE",
"124 569 CURVE SMOOTH",
"124 2356 LINE SMOOTH",
"124 2601 OFFCURVE",
"325 2801 OFFCURVE",
"569 2801 CURVE SMOOTH"
);
},
{
closed = 1;
nodes = (
"814 1014 OFFCURVE",
"1014 813 OFFCURVE",
"1014 569 CURVE SMOOTH",
"1014 0 LINE SMOOTH",
"1014 -245 OFFCURVE",
"813 -445 OFFCURVE",
"569 -445 CURVE SMOOTH",
"324 -445 OFFCURVE",
"124 -244 OFFCURVE",
"124 0 CURVE SMOOTH",
"124 569 LINE SMOOTH",
"124 814 OFFCURVE",
"325 1014 OFFCURVE",
"569 1014 CURVE SMOOTH"
);
},
{
closed = 1;
nodes = (
"1383 3370 OFFCURVE",
"1582 3171 OFFCURVE",
"1582 2925 CURVE SMOOTH",
"1582 2679 OFFCURVE",
"1383 2480 OFFCURVE",
"1138 2480 CURVE SMOOTH",
"1098 2480 OFFCURVE",
"1067 2465 OFFCURVE",
"1039 2433 CURVE SMOOTH",
"1022 2412 OFFCURVE",
"1014 2388 OFFCURVE",
"1014 2356 CURVE SMOOTH",
"1014 2111 OFFCURVE",
"815 1912 OFFCURVE",
"569 1911 CURVE SMOOTH",
"323 1912 OFFCURVE",
"124 2111 OFFCURVE",
"124 2356 CURVE SMOOTH",
"124 2623 OFFCURVE",
"232 2884 OFFCURVE",
"421 3073 CURVE SMOOTH",
"610 3262 OFFCURVE",
"871 3370 OFFCURVE",
"1138 3370 CURVE SMOOTH"
);
},
{
closed = 1;
nodes = (
"1537 3370 OFFCURVE",
"1901 3135 OFFCURVE",
"2061 2774 CURVE SMOOTH",
"2120 2640 OFFCURVE",
"2151 2497 OFFCURVE",
"2151 2356 CURVE SMOOTH",
"2151 2111 OFFCURVE",
"1952 1912 OFFCURVE",
"1707 1911 CURVE SMOOTH",
"1461 1912 OFFCURVE",
"1262 2111 OFFCURVE",
"1262 2356 CURVE SMOOTH",
"1262 2391 OFFCURVE",
"1250 2419 OFFCURVE",
"1225 2444 CURVE SMOOTH",
"1201 2468 OFFCURVE",
"1172 2480 OFFCURVE",
"1138 2480 CURVE SMOOTH",
"893 2480 OFFCURVE",
"693 2681 OFFCURVE",
"693 2925 CURVE SMOOTH",
"693 3170 OFFCURVE",
"894 3370 OFFCURVE",
"1138 3370 CURVE SMOOTH"
);
},
{
closed = 1;
nodes = (
"1952 2801 OFFCURVE",
"2151 2602 OFFCURVE",
"2151 2356 CURVE SMOOTH",
"2151 569 LINE SMOOTH",
"2151 323 OFFCURVE",
"1952 124 OFFCURVE",
"1707 124 CURVE SMOOTH",
"1462 124 OFFCURVE",
"1262 323 OFFCURVE",
"1262 569 CURVE SMOOTH",
"1262 2356 LINE SMOOTH",
"1262 2601 OFFCURVE",
"1461 2801 OFFCURVE",
"1707 2801 CURVE SMOOTH"
);
},
{
closed = 1;
nodes = (
"1262 569 LINE SMOOTH",
"1262 814 OFFCURVE",
"1461 1014 OFFCURVE",
"1707 1014 CURVE SMOOTH",
"1952 1014 OFFCURVE",
"2151 815 OFFCURVE",
"2151 569 CURVE SMOOTH",
"2151 0 LINE SMOOTH",
"2151 -246 OFFCURVE",
"1952 -445 OFFCURVE",
"1707 -445 CURVE SMOOTH",
"1462 -445 OFFCURVE",
"1262 -246 OFFCURVE",
"1262 0 CURVE SMOOTH"
);
}
);
width = 2275;
}
);
leftKerningGroup = h;
rightKerningGroup = h;
unicode = 006E;
},
{
glyphname = z;
lastChange = "2021-01-31 07:32:33 +0000";
layers = (
{
layerId = "19B6A511-96ED-40AF-BAB7-D1E16DFA4179";
paths = (
{
closed = 1;
nodes = (
"1143 2936 OFFCURVE",
"1148 2931 OFFCURVE",
"1148 2925 CURVE SMOOTH",
"1148 2919 OFFCURVE",
"1143 2914 OFFCURVE",
"1138 2914 CURVE SMOOTH",
"972 2914 OFFCURVE",
"818 2842 OFFCURVE",
"707 2713 CURVE SMOOTH",
"625 2614 OFFCURVE",
"580 2488 OFFCURVE",
"580 2356 CURVE SMOOTH",
"580 2351 OFFCURVE",
"575 2346 OFFCURVE",
"569 2345 CURVE",
"563 2346 OFFCURVE",
"558 2351 OFFCURVE",
"558 2356 CURVE SMOOTH",
"558 2510 OFFCURVE",
"619 2658 OFFCURVE",
"728 2766 CURVE SMOOTH",
"836 2875 OFFCURVE",
"984 2936 OFFCURVE",
"1138 2936 CURVE SMOOTH"
);
},
{
closed = 1;
nodes = (
"1712 580 OFFCURVE",
"1717 575 OFFCURVE",
"1717 569 CURVE SMOOTH",
"1717 485 OFFCURVE",
"1701 409 OFFCURVE",
"1664 326 CURVE SMOOTH",
"1573 122 OFFCURVE",
"1365 -11 OFFCURVE",
"1138 -11 CURVE SMOOTH",
"1133 -11 OFFCURVE",
"1127 -5 OFFCURVE",
"1127 0 CURVE SMOOTH",
"1127 5 OFFCURVE",
"1133 11 OFFCURVE",
"1138 11 CURVE SMOOTH",
"1286 11 OFFCURVE",
"1426 69 OFFCURVE",
"1532 174 CURVE SMOOTH",
"1637 279 OFFCURVE",
"1696 420 OFFCURVE",
"1696 569 CURVE SMOOTH",
"1696 575 OFFCURVE",
"1701 580 OFFCURVE",
"1707 580 CURVE SMOOTH"
);
},
{
closed = 1;
nodes = (
"1365 2936 OFFCURVE",
"1573 2803 OFFCURVE",
"1664 2599 CURVE SMOOTH",
"1701 2516 OFFCURVE",
"1717 2440 OFFCURVE",
"1717 2356 CURVE SMOOTH",
"1717 2351 OFFCURVE",
"1713 2346 OFFCURVE",
"1707 2345 CURVE",
"1701 2346 OFFCURVE",
"1696 2351 OFFCURVE",
"1696 2356 CURVE SMOOTH",
"1696 2505 OFFCURVE",
"1637 2646 OFFCURVE",
"1532 2751 CURVE SMOOTH",
"1426 2856 OFFCURVE",
"1286 2914 OFFCURVE",
"1138 2914 CURVE SMOOTH",
"1133 2914 OFFCURVE",
"1127 2920 OFFCURVE",
"1127 2925 CURVE SMOOTH",
"1127 2930 OFFCURVE",
"1133 2936 OFFCURVE",
"1138 2936 CURVE SMOOTH"
);
},
{
closed = 1;
nodes = (
"1712 2367 OFFCURVE",
"1717 2362 OFFCURVE",
"1717 2356 CURVE SMOOTH",
"1717 2002 OFFCURVE",
"1432 1742 OFFCURVE",
"1145 1454 CURVE SMOOTH",
"734 1044 OFFCURVE",
"580 804 OFFCURVE",
"580 569 CURVE SMOOTH",
"580 564 OFFCURVE",
"574 558 OFFCURVE",
"569 558 CURVE SMOOTH",
"564 558 OFFCURVE",
"558 564 OFFCURVE",
"558 569 CURVE SMOOTH",
"558 923 OFFCURVE",
"845 1182 OFFCURVE",
"1130 1471 CURVE SMOOTH",
"1543 1880 OFFCURVE",
"1696 2119 OFFCURVE",
"1696 2356 CURVE SMOOTH",
"1696 2362 OFFCURVE",
"1701 2367 OFFCURVE",
"1707 2367 CURVE SMOOTH"
);
},
{
closed = 1;
nodes = (
"558 574 OFFCURVE",
"564 580 OFFCURVE",
"569 580 CURVE SMOOTH",
"574 580 OFFCURVE",
"580 574 OFFCURVE",
"580 569 CURVE SMOOTH",
"580 355 OFFCURVE",
"692 173 OFFCURVE",
"888 69 CURVE SMOOTH",
"962 33 OFFCURVE",
"1056 11 OFFCURVE",
"1138 11 CURVE SMOOTH",
"1143 11 OFFCURVE",
"1148 6 OFFCURVE",
"1148 0 CURVE SMOOTH",
"1148 -6 OFFCURVE",
"1143 -11 OFFCURVE",
"1138 -11 CURVE SMOOTH",
"984 -11 OFFCURVE",
"836 50 OFFCURVE",
"728 159 CURVE SMOOTH",
"619 267 OFFCURVE",
"558 415 OFFCURVE",
"558 569 CURVE SMOOTH"
);
}
);
width = 2275;
},
{
layerId = "A6394422-5114-4E65-BA08-40D408A20CD5";
paths = (
{
closed = 1;
nodes = (
"1383 3370 OFFCURVE",
"1582 3171 OFFCURVE",
"1582 2925 CURVE SMOOTH",
"1582 2679 OFFCURVE",
"1383 2480 OFFCURVE",
"1138 2480 CURVE SMOOTH",
"1098 2480 OFFCURVE",
"1067 2465 OFFCURVE",
"1039 2433 CURVE SMOOTH",
"1022 2412 OFFCURVE",
"1014 2388 OFFCURVE",
"1014 2356 CURVE SMOOTH",
"1014 2111 OFFCURVE",
"815 1912 OFFCURVE",
"569 1911 CURVE SMOOTH",
"323 1912 OFFCURVE",
"124 2111 OFFCURVE",
"124 2356 CURVE SMOOTH",
"124 2623 OFFCURVE",
"232 2884 OFFCURVE",
"421 3073 CURVE SMOOTH",
"610 3262 OFFCURVE",
"871 3370 OFFCURVE",
"1138 3370 CURVE SMOOTH"
);
},
{
closed = 1;
nodes = (
"1952 1014 OFFCURVE",
"2151 815 OFFCURVE",
"2151 569 CURVE SMOOTH",
"2151 428 OFFCURVE",
"2120 285 OFFCURVE",
"2061 151 CURVE SMOOTH",
"1901 -210 OFFCURVE",
"1537 -445 OFFCURVE",
"1138 -445 CURVE SMOOTH",
"893 -445 OFFCURVE",
"693 -244 OFFCURVE",
"693 0 CURVE SMOOTH",
"693 245 OFFCURVE",
"894 445 OFFCURVE",
"1138 445 CURVE SMOOTH",
"1172 445 OFFCURVE",
"1201 457 OFFCURVE",
"1225 481 CURVE SMOOTH",
"1250 506 OFFCURVE",
"1262 534 OFFCURVE",
"1262 569 CURVE SMOOTH",
"1262 814 OFFCURVE",
"1461 1014 OFFCURVE",
"1707 1014 CURVE SMOOTH"
);
},
{
closed = 1;
nodes = (
"1537 3370 OFFCURVE",
"1901 3135 OFFCURVE",
"2061 2774 CURVE SMOOTH",
"2120 2640 OFFCURVE",
"2151 2497 OFFCURVE",
"2151 2356 CURVE SMOOTH",
"2151 2111 OFFCURVE",
"1952 1912 OFFCURVE",
"1707 1911 CURVE SMOOTH",
"1461 1912 OFFCURVE",
"1262 2111 OFFCURVE",
"1262 2356 CURVE SMOOTH",
"1262 2391 OFFCURVE",
"1250 2419 OFFCURVE",
"1225 2444 CURVE SMOOTH",
"1201 2468 OFFCURVE",
"1172 2480 OFFCURVE",
"1138 2480 CURVE SMOOTH",
"893 2480 OFFCURVE",
"693 2681 OFFCURVE",
"693 2925 CURVE SMOOTH",
"693 3170 OFFCURVE",
"894 3370 OFFCURVE",
"1138 3370 CURVE SMOOTH"
);
},
{
closed = 1;
nodes = (
"1952 2801 OFFCURVE",
"2151 2602 OFFCURVE",
"2151 2356 CURVE SMOOTH",
"2151 1811 OFFCURVE",
"1732 1428 OFFCURVE",
"1452 1147 CURVE SMOOTH",
"1155 852 OFFCURVE",
"1014 660 OFFCURVE",
"1014 569 CURVE SMOOTH",
"1014 324 OFFCURVE",
"813 124 OFFCURVE",
"569 124 CURVE SMOOTH",
"324 124 OFFCURVE",
"124 325 OFFCURVE",
"124 569 CURVE SMOOTH",
"124 1115 OFFCURVE",
"545 1497 OFFCURVE",
"823 1778 CURVE SMOOTH",
"1125 2077 OFFCURVE",
"1262 2265 OFFCURVE",
"1262 2356 CURVE SMOOTH",
"1262 2601 OFFCURVE",
"1461 2801 OFFCURVE",
"1707 2801 CURVE SMOOTH"
);
},
{
closed = 1;
nodes = (
"124 814 OFFCURVE",
"325 1014 OFFCURVE",
"569 1014 CURVE SMOOTH",
"814 1014 OFFCURVE",
"1014 813 OFFCURVE",
"1014 569 CURVE SMOOTH",
"1014 516 OFFCURVE",
"1036 484 OFFCURVE",
"1084 456 CURVE",
"1101 449 OFFCURVE",
"1118 445 OFFCURVE",
"1138 445 CURVE SMOOTH",
"1383 445 OFFCURVE",
"1582 246 OFFCURVE",
"1582 0 CURVE SMOOTH",
"1582 -246 OFFCURVE",
"1383 -445 OFFCURVE",
"1138 -445 CURVE SMOOTH",
"871 -445 OFFCURVE",
"610 -337 OFFCURVE",
"421 -148 CURVE SMOOTH",
"232 41 OFFCURVE",
"124 302 OFFCURVE",
"124 569 CURVE SMOOTH"
);
}
);
width = 2275;
}
);
leftKerningGroup = c;
rightKerningGroup = c;
unicode = 007A;
},
{
glyphname = D;
lastChange = "2021-01-31 07:32:33 +0000";
layers = (
{
layerId = "19B6A511-96ED-40AF-BAB7-D1E16DFA4179";
paths = (
{
closed = 1;
nodes = (
"574 2367 OFFCURVE",
"580 2361 OFFCURVE",
"580 2356 CURVE SMOOTH",
"580 569 LINE SMOOTH",
"580 564 OFFCURVE",
"574 558 OFFCURVE",
"569 558 CURVE SMOOTH",
"564 558 OFFCURVE",
"558 564 OFFCURVE",
"558 569 CURVE SMOOTH",
"558 2356 LINE SMOOTH",
"558 2361 OFFCURVE",
"564 2367 OFFCURVE",
"569 2367 CURVE SMOOTH"
);
},
{
closed = 1;
nodes = (
"1143 2936 OFFCURVE",
"1148 2931 OFFCURVE",
"1148 2925 CURVE SMOOTH",
"1148 2919 OFFCURVE",
"1143 2914 OFFCURVE",
"1138 2914 CURVE SMOOTH",
"972 2914 OFFCURVE",
"818 2842 OFFCURVE",
"707 2713 CURVE SMOOTH",
"625 2614 OFFCURVE",
"580 2488 OFFCURVE",
"580 2356 CURVE SMOOTH",
"580 2351 OFFCURVE",
"575 2346 OFFCURVE",
"569 2345 CURVE",
"563 2346 OFFCURVE",
"558 2351 OFFCURVE",
"558 2356 CURVE SMOOTH",
"558 2510 OFFCURVE",
"619 2658 OFFCURVE",
"728 2766 CURVE SMOOTH",
"836 2875 OFFCURVE",
"984 2936 OFFCURVE",
"1138 2936 CURVE SMOOTH"
);
},
{
closed = 1;
nodes = (
"1712 580 OFFCURVE",
"1717 575 OFFCURVE",
"1717 569 CURVE SMOOTH",
"1717 485 OFFCURVE",
"1701 409 OFFCURVE",
"1664 326 CURVE SMOOTH",
"1573 122 OFFCURVE",
"1365 -11 OFFCURVE",
"1138 -11 CURVE SMOOTH",
"1133 -11 OFFCURVE",
"1127 -5 OFFCURVE",
"1127 0 CURVE SMOOTH",
"1127 5 OFFCURVE",
"1133 11 OFFCURVE",
"1138 11 CURVE SMOOTH",
"1286 11 OFFCURVE",
"1426 69 OFFCURVE",
"1532 174 CURVE SMOOTH",
"1637 279 OFFCURVE",
"1696 420 OFFCURVE",
"1696 569 CURVE SMOOTH",
"1696 575 OFFCURVE",
"1701 580 OFFCURVE",
"1707 580 CURVE SMOOTH"
);
},
{
closed = 1;
nodes = (
"574 580 OFFCURVE",
"580 574 OFFCURVE",
"580 569 CURVE SMOOTH",
"580 355 OFFCURVE",
"692 173 OFFCURVE",
"888 69 CURVE SMOOTH",
"962 33 OFFCURVE",
"1056 11 OFFCURVE",
"1138 11 CURVE SMOOTH",
"1143 11 OFFCURVE",
"1148 6 OFFCURVE",
"1148 0 CURVE SMOOTH",
"1148 -6 OFFCURVE",
"1143 -11 OFFCURVE",
"1138 -11 CURVE SMOOTH",
"984 -11 OFFCURVE",
"836 50 OFFCURVE",
"728 159 CURVE SMOOTH",
"619 267 OFFCURVE",
"558 415 OFFCURVE",
"558 569 CURVE SMOOTH",
"558 574 OFFCURVE",
"564 580 OFFCURVE",
"569 580 CURVE SMOOTH"
);
},
{
closed = 1;
nodes = (
"1712 5861 OFFCURVE",
"1717 5856 OFFCURVE",
"1717 5850 CURVE SMOOTH",
"1717 5281 LINE SMOOTH",
"1717 5276 OFFCURVE",
"1713 5271 OFFCURVE",
"1707 5270 CURVE",
"1701 5271 OFFCURVE",
"1696 5276 OFFCURVE",
"1696 5281 CURVE SMOOTH",
"1696 5850 LINE SMOOTH",
"1696 5856 OFFCURVE",
"1701 5861 OFFCURVE",
"1707 5861 CURVE SMOOTH"
);
},
{
closed = 1;
nodes = (
"1712 5292 OFFCURVE",
"1717 5287 OFFCURVE",
"1717 5281 CURVE SMOOTH",
"1717 3494 LINE SMOOTH",
"1717 3488 OFFCURVE",
"1712 3483 OFFCURVE",
"1707 3483 CURVE SMOOTH",
"1701 3483 OFFCURVE",
"1696 3488 OFFCURVE",
"1696 3494 CURVE SMOOTH",
"1696 5281 LINE SMOOTH",
"1696 5287 OFFCURVE",
"1701 5292 OFFCURVE",
"1707 5292 CURVE SMOOTH"
);
},
{
closed = 1;
nodes = (
"1712 3505 OFFCURVE",
"1717 3500 OFFCURVE",
"1717 3494 CURVE SMOOTH",
"1717 2925 LINE SMOOTH",
"1717 2919 OFFCURVE",
"1712 2914 OFFCURVE",
"1707 2914 CURVE SMOOTH",
"1701 2914 OFFCURVE",
"1696 2919 OFFCURVE",
"1696 2925 CURVE SMOOTH",
"1696 3494 LINE SMOOTH",
"1696 3500 OFFCURVE",
"1701 3505 OFFCURVE",
"1707 3505 CURVE SMOOTH"
);
},
{
closed = 1;
nodes = (
"1138 4398 LINE SMOOTH",
"1143 4398 OFFCURVE",
"1148 4393 OFFCURVE",
"1148 4388 CURVE SMOOTH",
"1148 4381 OFFCURVE",
"1144 4377 OFFCURVE",
"1138 4377 CURVE SMOOTH",
"569 4377 LINE SMOOTH",
"563 4377 OFFCURVE",
"558 4382 OFFCURVE",
"558 4388 CURVE SMOOTH",
"558 4393 OFFCURVE",
"563 4398 OFFCURVE",
"569 4398 CURVE SMOOTH"
);
},
{
closed = 1;
nodes = (
"1707 4398 LINE SMOOTH",
"1712 4398 OFFCURVE",
"1717 4393 OFFCURVE",
"1717 4388 CURVE SMOOTH",
"1717 4381 OFFCURVE",
"1713 4377 OFFCURVE",
"1707 4377 CURVE SMOOTH",
"1138 4377 LINE SMOOTH",
"1132 4377 OFFCURVE",
"1127 4382 OFFCURVE",
"1127 4388 CURVE SMOOTH",
"1127 4393 OFFCURVE",
"1132 4398 OFFCURVE",
"1138 4398 CURVE SMOOTH"
);
},
{
closed = 1;
nodes = (
"1127 2930 OFFCURVE",
"1133 2936 OFFCURVE",
"1138 2936 CURVE SMOOTH",
"1707 2936 LINE SMOOTH",
"1712 2936 OFFCURVE",
"1717 2931 OFFCURVE",
"1717 2925 CURVE SMOOTH",
"1717 2919 OFFCURVE",
"1712 2914 OFFCURVE",
"1707 2914 CURVE SMOOTH",
"1138 2914 LINE SMOOTH",
"1133 2914 OFFCURVE",
"1127 2920 OFFCURVE",
"1127 2925 CURVE SMOOTH"
);
}
);
width = 2275;
},
{
layerId = "A6394422-5114-4E65-BA08-40D408A20CD5";
paths = (
{
closed = 1;
nodes = (
"814 2801 OFFCURVE",
"1014 2600 OFFCURVE",
"1014 2356 CURVE SMOOTH",
"1014 569 LINE SMOOTH",
"1014 324 OFFCURVE",
"813 124 OFFCURVE",
"569 124 CURVE SMOOTH",
"324 124 OFFCURVE",
"124 325 OFFCURVE",
"124 569 CURVE SMOOTH",
"124 2356 LINE SMOOTH",
"124 2601 OFFCURVE",
"325 2801 OFFCURVE",
"569 2801 CURVE SMOOTH"
);
},
{
closed = 1;
nodes = (
"1383 3370 OFFCURVE",
"1582 3171 OFFCURVE",
"1582 2925 CURVE SMOOTH",
"1582 2679 OFFCURVE",
"1383 2480 OFFCURVE",
"1138 2480 CURVE SMOOTH",
"1098 2480 OFFCURVE",
"1067 2465 OFFCURVE",
"1039 2433 CURVE SMOOTH",
"1022 2412 OFFCURVE",
"1014 2388 OFFCURVE",
"1014 2356 CURVE SMOOTH",
"1014 2111 OFFCURVE",
"815 1912 OFFCURVE",
"569 1911 CURVE SMOOTH",
"323 1912 OFFCURVE",
"124 2111 OFFCURVE",
"124 2356 CURVE SMOOTH",
"124 2623 OFFCURVE",
"232 2884 OFFCURVE",
"421 3073 CURVE SMOOTH",
"610 3262 OFFCURVE",
"871 3370 OFFCURVE",
"1138 3370 CURVE SMOOTH"
);
},
{
closed = 1;
nodes = (
"1952 1014 OFFCURVE",
"2151 815 OFFCURVE",
"2151 569 CURVE SMOOTH",
"2151 428 OFFCURVE",
"2120 285 OFFCURVE",
"2061 151 CURVE SMOOTH",
"1901 -210 OFFCURVE",
"1537 -445 OFFCURVE",
"1138 -445 CURVE SMOOTH",
"893 -445 OFFCURVE",
"693 -244 OFFCURVE",
"693 0 CURVE SMOOTH",
"693 245 OFFCURVE",
"894 445 OFFCURVE",
"1138 445 CURVE SMOOTH",
"1172 445 OFFCURVE",
"1201 457 OFFCURVE",
"1225 481 CURVE SMOOTH",
"1250 506 OFFCURVE",
"1262 534 OFFCURVE",
"1262 569 CURVE SMOOTH",
"1262 814 OFFCURVE",
"1461 1014 OFFCURVE",
"1707 1014 CURVE SMOOTH"
);
},
{
closed = 1;
nodes = (
"814 1014 OFFCURVE",
"1014 813 OFFCURVE",
"1014 569 CURVE SMOOTH",
"1014 516 OFFCURVE",
"1036 484 OFFCURVE",
"1084 456 CURVE",
"1101 449 OFFCURVE",
"1118 445 OFFCURVE",
"1138 445 CURVE SMOOTH",
"1383 445 OFFCURVE",
"1582 246 OFFCURVE",
"1582 0 CURVE SMOOTH",
"1582 -246 OFFCURVE",
"1383 -445 OFFCURVE",
"1138 -445 CURVE SMOOTH",
"871 -445 OFFCURVE",
"610 -337 OFFCURVE",
"421 -148 CURVE SMOOTH",
"232 41 OFFCURVE",
"124 302 OFFCURVE",
"124 569 CURVE SMOOTH",
"124 814 OFFCURVE",
"325 1014 OFFCURVE",
"569 1014 CURVE SMOOTH"
);
},
{
closed = 1;
nodes = (
"1952 6295 OFFCURVE",
"2151 6096 OFFCURVE",
"2151 5850 CURVE SMOOTH",
"2151 5281 LINE SMOOTH",
"2151 5036 OFFCURVE",
"1952 4837 OFFCURVE",
"1707 4836 CURVE SMOOTH",
"1461 4837 OFFCURVE",
"1262 5036 OFFCURVE",
"1262 5281 CURVE SMOOTH",
"1262 5850 LINE SMOOTH",
"1262 6095 OFFCURVE",
"1461 6295 OFFCURVE",
"1707 6295 CURVE SMOOTH"
);
},
{
closed = 1;
nodes = (
"1952 5726 OFFCURVE",
"2151 5527 OFFCURVE",
"2151 5281 CURVE SMOOTH",
"2151 3494 LINE SMOOTH",
"2151 3248 OFFCURVE",
"1952 3049 OFFCURVE",
"1707 3049 CURVE SMOOTH",
"1462 3049 OFFCURVE",
"1262 3248 OFFCURVE",
"1262 3494 CURVE SMOOTH",
"1262 5281 LINE SMOOTH",
"1262 5526 OFFCURVE",
"1461 5726 OFFCURVE",
"1707 5726 CURVE SMOOTH"
);
},
{
closed = 1;
nodes = (
"1952 3939 OFFCURVE",
"2151 3740 OFFCURVE",
"2151 3494 CURVE SMOOTH",
"2151 2925 LINE SMOOTH",
"2151 2679 OFFCURVE",
"1952 2480 OFFCURVE",
"1707 2480 CURVE SMOOTH",
"1462 2480 OFFCURVE",
"1262 2679 OFFCURVE",
"1262 2925 CURVE SMOOTH",
"1262 3494 LINE SMOOTH",
"1262 3739 OFFCURVE",
"1461 3939 OFFCURVE",
"1707 3939 CURVE SMOOTH"
);
},
{
closed = 1;
nodes = (
"1138 4832 LINE SMOOTH",
"1383 4832 OFFCURVE",
"1582 4632 OFFCURVE",
"1582 4388 CURVE SMOOTH",
"1582 4141 OFFCURVE",
"1384 3943 OFFCURVE",
"1138 3943 CURVE SMOOTH",
"569 3943 LINE SMOOTH",
"324 3943 OFFCURVE",
"124 4142 OFFCURVE",
"124 4388 CURVE SMOOTH",
"124 4633 OFFCURVE",
"323 4832 OFFCURVE",
"569 4832 CURVE SMOOTH"
);
},
{
closed = 1;
nodes = (
"1707 4832 LINE SMOOTH",
"1952 4832 OFFCURVE",
"2151 4632 OFFCURVE",
"2151 4388 CURVE SMOOTH",
"2151 4141 OFFCURVE",
"1953 3943 OFFCURVE",
"1707 3943 CURVE SMOOTH",
"1138 3943 LINE SMOOTH",
"893 3943 OFFCURVE",
"693 4142 OFFCURVE",
"693 4388 CURVE SMOOTH",
"693 4633 OFFCURVE",
"892 4832 OFFCURVE",
"1138 4832 CURVE SMOOTH"
);
},
{
closed = 1;
nodes = (
"693 3170 OFFCURVE",
"894 3370 OFFCURVE",
"1138 3370 CURVE SMOOTH",
"1707 3370 LINE SMOOTH",
"1952 3370 OFFCURVE",
"2151 3171 OFFCURVE",
"2151 2925 CURVE SMOOTH",
"2151 2679 OFFCURVE",
"1952 2480 OFFCURVE",
"1707 2480 CURVE SMOOTH",
"1138 2480 LINE SMOOTH",
"893 2480 OFFCURVE",
"693 2681 OFFCURVE",
"693 2925 CURVE SMOOTH"
);
}
);
width = 2275;
}
);
leftKerningGroup = c;
rightKerningGroup = c;
unicode = 0044;
},
{
glyphname = s;
lastChange = "2021-01-31 07:32:33 +0000";
layers = (
{
layerId = "19B6A511-96ED-40AF-BAB7-D1E16DFA4179";
paths = (
{
closed = 1;
nodes = (
"1143 2936 OFFCURVE",
"1148 2931 OFFCURVE",
"1148 2925 CURVE SMOOTH",
"1148 2919 OFFCURVE",
"1143 2914 OFFCURVE",
"1138 2914 CURVE SMOOTH",
"972 2914 OFFCURVE",
"818 2842 OFFCURVE",
"707 2713 CURVE SMOOTH",
"625 2614 OFFCURVE",
"580 2488 OFFCURVE",
"580 2356 CURVE SMOOTH",
"580 2351 OFFCURVE",
"575 2346 OFFCURVE",
"569 2345 CURVE",
"563 2346 OFFCURVE",
"558 2351 OFFCURVE",
"558 2356 CURVE SMOOTH",
"558 2510 OFFCURVE",
"619 2658 OFFCURVE",
"728 2766 CURVE SMOOTH",
"836 2875 OFFCURVE",
"984 2936 OFFCURVE",
"1138 2936 CURVE SMOOTH"
);
},
{
closed = 1;
nodes = (
"574 2367 OFFCURVE",
"580 2361 OFFCURVE",
"580 2356 CURVE SMOOTH",
"580 2121 OFFCURVE",
"734 1881 OFFCURVE",
"1145 1471 CURVE SMOOTH",
"1432 1183 OFFCURVE",
"1717 923 OFFCURVE",
"1717 569 CURVE SMOOTH",
"1717 563 OFFCURVE",
"1712 558 OFFCURVE",
"1707 558 CURVE SMOOTH",
"1701 558 OFFCURVE",
"1696 563 OFFCURVE",
"1696 569 CURVE SMOOTH",
"1696 806 OFFCURVE",
"1543 1045 OFFCURVE",
"1130 1454 CURVE SMOOTH",
"845 1743 OFFCURVE",
"558 2002 OFFCURVE",
"558 2356 CURVE SMOOTH",
"558 2361 OFFCURVE",
"564 2367 OFFCURVE",
"569 2367 CURVE SMOOTH"
);
},
{
closed = 1;
nodes = (
"1712 580 OFFCURVE",
"1717 575 OFFCURVE",
"1717 569 CURVE SMOOTH",
"1717 485 OFFCURVE",
"1701 409 OFFCURVE",
"1664 326 CURVE SMOOTH",
"1573 122 OFFCURVE",
"1365 -11 OFFCURVE",
"1138 -11 CURVE SMOOTH",
"1133 -11 OFFCURVE",
"1127 -5 OFFCURVE",
"1127 0 CURVE SMOOTH",
"1127 5 OFFCURVE",
"1133 11 OFFCURVE",
"1138 11 CURVE SMOOTH",
"1286 11 OFFCURVE",
"1426 69 OFFCURVE",
"1532 174 CURVE SMOOTH",
"1637 279 OFFCURVE",
"1696 420 OFFCURVE",
"1696 569 CURVE SMOOTH",
"1696 575 OFFCURVE",
"1701 580 OFFCURVE",
"1707 580 CURVE SMOOTH"
);
},
{
closed = 1;
nodes = (
"1365 2936 OFFCURVE",
"1573 2803 OFFCURVE",
"1664 2599 CURVE SMOOTH",
"1701 2516 OFFCURVE",
"1717 2440 OFFCURVE",
"1717 2356 CURVE SMOOTH",
"1717 2351 OFFCURVE",
"1713 2346 OFFCURVE",
"1707 2345 CURVE",
"1701 2346 OFFCURVE",
"1696 2351 OFFCURVE",
"1696 2356 CURVE SMOOTH",
"1696 2505 OFFCURVE",
"1637 2646 OFFCURVE",
"1532 2751 CURVE SMOOTH",
"1426 2856 OFFCURVE",
"1286 2914 OFFCURVE",
"1138 2914 CURVE SMOOTH",
"1133 2914 OFFCURVE",
"1127 2920 OFFCURVE",
"1127 2925 CURVE SMOOTH",
"1127 2930 OFFCURVE",
"1133 2936 OFFCURVE",
"1138 2936 CURVE SMOOTH"
);
},
{
closed = 1;
nodes = (
"558 574 OFFCURVE",
"564 580 OFFCURVE",
"569 580 CURVE SMOOTH",
"574 580 OFFCURVE",
"580 574 OFFCURVE",
"580 569 CURVE SMOOTH",
"580 355 OFFCURVE",
"692 173 OFFCURVE",
"888 69 CURVE SMOOTH",
"962 33 OFFCURVE",
"1056 11 OFFCURVE",
"1138 11 CURVE SMOOTH",
"1143 11 OFFCURVE",
"1148 6 OFFCURVE",
"1148 0 CURVE SMOOTH",
"1148 -6 OFFCURVE",
"1143 -11 OFFCURVE",
"1138 -11 CURVE SMOOTH",
"984 -11 OFFCURVE",
"836 50 OFFCURVE",
"728 159 CURVE SMOOTH",
"619 267 OFFCURVE",
"558 415 OFFCURVE",
"558 569 CURVE SMOOTH"
);
}
);
width = 2275;
},
{
layerId = "A6394422-5114-4E65-BA08-40D408A20CD5";
paths = (
{
closed = 1;
nodes = (
"1383 3370 OFFCURVE",
"1582 3171 OFFCURVE",
"1582 2925 CURVE SMOOTH",
"1582 2679 OFFCURVE",
"1383 2480 OFFCURVE",
"1138 2480 CURVE SMOOTH",
"1098 2480 OFFCURVE",
"1067 2465 OFFCURVE",
"1039 2433 CURVE SMOOTH",
"1022 2412 OFFCURVE",
"1014 2388 OFFCURVE",
"1014 2356 CURVE SMOOTH",
"1014 2111 OFFCURVE",
"815 1912 OFFCURVE",
"569 1911 CURVE SMOOTH",
"323 1912 OFFCURVE",
"124 2111 OFFCURVE",
"124 2356 CURVE SMOOTH",
"124 2623 OFFCURVE",
"232 2884 OFFCURVE",
"421 3073 CURVE SMOOTH",
"610 3262 OFFCURVE",
"871 3370 OFFCURVE",
"1138 3370 CURVE SMOOTH"
);
},
{
closed = 1;
nodes = (
"814 2801 OFFCURVE",
"1014 2600 OFFCURVE",
"1014 2356 CURVE SMOOTH",
"1014 2265 OFFCURVE",
"1155 2073 OFFCURVE",
"1452 1778 CURVE SMOOTH",
"1732 1497 OFFCURVE",
"2151 1114 OFFCURVE",
"2151 569 CURVE SMOOTH",
"2151 323 OFFCURVE",
"1952 124 OFFCURVE",
"1707 124 CURVE SMOOTH",
"1462 124 OFFCURVE",
"1262 323 OFFCURVE",
"1262 569 CURVE SMOOTH",
"1262 660 OFFCURVE",
"1125 848 OFFCURVE",
"823 1147 CURVE SMOOTH",
"545 1428 OFFCURVE",
"124 1810 OFFCURVE",
"124 2356 CURVE SMOOTH",
"124 2601 OFFCURVE",
"325 2801 OFFCURVE",
"569 2801 CURVE SMOOTH"
);
},
{
closed = 1;
nodes = (
"1952 1014 OFFCURVE",
"2151 815 OFFCURVE",
"2151 569 CURVE SMOOTH",
"2151 428 OFFCURVE",
"2120 285 OFFCURVE",
"2061 151 CURVE SMOOTH",
"1901 -210 OFFCURVE",
"1537 -445 OFFCURVE",
"1138 -445 CURVE SMOOTH",
"893 -445 OFFCURVE",
"693 -244 OFFCURVE",
"693 0 CURVE SMOOTH",
"693 245 OFFCURVE",
"894 445 OFFCURVE",
"1138 445 CURVE SMOOTH",
"1172 445 OFFCURVE",
"1201 457 OFFCURVE",
"1225 481 CURVE SMOOTH",
"1250 506 OFFCURVE",
"1262 534 OFFCURVE",
"1262 569 CURVE SMOOTH",
"1262 814 OFFCURVE",
"1461 1014 OFFCURVE",
"1707 1014 CURVE SMOOTH"
);
},
{
closed = 1;
nodes = (
"1537 3370 OFFCURVE",
"1901 3135 OFFCURVE",
"2061 2774 CURVE SMOOTH",
"2120 2640 OFFCURVE",
"2151 2497 OFFCURVE",
"2151 2356 CURVE SMOOTH",
"2151 2111 OFFCURVE",
"1952 1912 OFFCURVE",
"1707 1911 CURVE SMOOTH",
"1461 1912 OFFCURVE",
"1262 2111 OFFCURVE",
"1262 2356 CURVE SMOOTH",
"1262 2391 OFFCURVE",
"1250 2419 OFFCURVE",
"1225 2444 CURVE SMOOTH",
"1201 2468 OFFCURVE",
"1172 2480 OFFCURVE",
"1138 2480 CURVE SMOOTH",
"893 2480 OFFCURVE",
"693 2681 OFFCURVE",
"693 2925 CURVE SMOOTH",
"693 3170 OFFCURVE",
"894 3370 OFFCURVE",
"1138 3370 CURVE SMOOTH"
);
},
{
closed = 1;
nodes = (
"124 814 OFFCURVE",
"325 1014 OFFCURVE",
"569 1014 CURVE SMOOTH",
"814 1014 OFFCURVE",
"1014 813 OFFCURVE",
"1014 569 CURVE SMOOTH",
"1014 516 OFFCURVE",
"1036 484 OFFCURVE",
"1084 456 CURVE",
"1101 449 OFFCURVE",
"1118 445 OFFCURVE",
"1138 445 CURVE SMOOTH",
"1383 445 OFFCURVE",
"1582 246 OFFCURVE",
"1582 0 CURVE SMOOTH",
"1582 -246 OFFCURVE",
"1383 -445 OFFCURVE",
"1138 -445 CURVE SMOOTH",
"871 -445 OFFCURVE",
"610 -337 OFFCURVE",
"421 -148 CURVE SMOOTH",
"232 41 OFFCURVE",
"124 302 OFFCURVE",
"124 569 CURVE SMOOTH"
);
}
);
width = 2275;
}
);
leftKerningGroup = c;
rightKerningGroup = c;
unicode = 0073;
},
{
glyphname = r;
lastChange = "2021-01-31 07:32:33 +0000";
layers = (
{
layerId = "19B6A511-96ED-40AF-BAB7-D1E16DFA4179";
paths = (
{
closed = 1;
nodes = (
"574 2367 OFFCURVE",
"580 2361 OFFCURVE",
"580 2356 CURVE SMOOTH",
"580 569 LINE SMOOTH",
"580 564 OFFCURVE",
"574 558 OFFCURVE",
"569 558 CURVE SMOOTH",
"564 558 OFFCURVE",
"558 564 OFFCURVE",
"558 569 CURVE SMOOTH",
"558 2356 LINE SMOOTH",
"558 2361 OFFCURVE",
"564 2367 OFFCURVE",
"569 2367 CURVE SMOOTH"
);
},
{
closed = 1;
nodes = (
"574 580 OFFCURVE",
"580 574 OFFCURVE",
"580 569 CURVE SMOOTH",
"580 0 LINE SMOOTH",
"580 -5 OFFCURVE",
"574 -11 OFFCURVE",
"569 -11 CURVE SMOOTH",
"564 -11 OFFCURVE",
"558 -5 OFFCURVE",
"558 0 CURVE SMOOTH",
"558 569 LINE SMOOTH",
"558 574 OFFCURVE",
"564 580 OFFCURVE",
"569 580 CURVE SMOOTH"
);
},
{
closed = 1;
nodes = (
"558 2510 OFFCURVE",
"619 2658 OFFCURVE",
"728 2766 CURVE SMOOTH",
"836 2875 OFFCURVE",
"984 2936 OFFCURVE",
"1138 2936 CURVE SMOOTH",
"1143 2936 OFFCURVE",
"1148 2931 OFFCURVE",
"1148 2925 CURVE SMOOTH",
"1148 2919 OFFCURVE",
"1143 2914 OFFCURVE",
"1138 2914 CURVE SMOOTH",
"972 2914 OFFCURVE",
"818 2842 OFFCURVE",
"707 2713 CURVE SMOOTH",
"625 2614 OFFCURVE",
"580 2488 OFFCURVE",
"580 2356 CURVE SMOOTH",
"580 2351 OFFCURVE",
"575 2346 OFFCURVE",
"569 2345 CURVE",
"563 2346 OFFCURVE",
"558 2351 OFFCURVE",
"558 2356 CURVE SMOOTH"
);
}
);
width = 1706;
},
{
layerId = "A6394422-5114-4E65-BA08-40D408A20CD5";
paths = (
{
closed = 1;
nodes = (
"814 2801 OFFCURVE",
"1014 2600 OFFCURVE",
"1014 2356 CURVE SMOOTH",
"1014 569 LINE SMOOTH",
"1014 324 OFFCURVE",
"813 124 OFFCURVE",
"569 124 CURVE SMOOTH",
"324 124 OFFCURVE",
"124 325 OFFCURVE",
"124 569 CURVE SMOOTH",
"124 2356 LINE SMOOTH",
"124 2601 OFFCURVE",
"325 2801 OFFCURVE",
"569 2801 CURVE SMOOTH"
);
},
{
closed = 1;
nodes = (
"814 1014 OFFCURVE",
"1014 813 OFFCURVE",
"1014 569 CURVE SMOOTH",
"1014 0 LINE SMOOTH",
"1014 -245 OFFCURVE",
"813 -445 OFFCURVE",
"569 -445 CURVE SMOOTH",
"324 -445 OFFCURVE",
"124 -244 OFFCURVE",
"124 0 CURVE SMOOTH",
"124 569 LINE SMOOTH",
"124 814 OFFCURVE",
"325 1014 OFFCURVE",
"569 1014 CURVE SMOOTH"
);
},
{
closed = 1;
nodes = (
"124 2623 OFFCURVE",
"232 2884 OFFCURVE",
"421 3073 CURVE SMOOTH",
"610 3262 OFFCURVE",
"871 3370 OFFCURVE",
"1138 3370 CURVE SMOOTH",
"1383 3370 OFFCURVE",
"1582 3171 OFFCURVE",
"1582 2925 CURVE SMOOTH",
"1582 2679 OFFCURVE",
"1383 2480 OFFCURVE",
"1138 2480 CURVE SMOOTH",
"1098 2480 OFFCURVE",
"1067 2465 OFFCURVE",
"1039 2433 CURVE SMOOTH",
"1022 2412 OFFCURVE",
"1014 2388 OFFCURVE",
"1014 2356 CURVE SMOOTH",
"1014 2111 OFFCURVE",
"815 1912 OFFCURVE",
"569 1911 CURVE SMOOTH",
"323 1912 OFFCURVE",
"124 2111 OFFCURVE",
"124 2356 CURVE SMOOTH"
);
}
);
width = 1706;
}
);
leftKerningGroup = h;
rightKerningGroup = r;
unicode = 0072;
},
{
glyphname = H;
lastChange = "2021-01-31 07:32:33 +0000";
layers = (
{
layerId = "19B6A511-96ED-40AF-BAB7-D1E16DFA4179";
paths = (
{
closed = 1;
nodes = (
"574 2936 OFFCURVE",
"580 2930 OFFCURVE",
"580 2925 CURVE SMOOTH",
"580 2356 LINE SMOOTH",
"580 2351 OFFCURVE",
"575 2346 OFFCURVE",
"569 2345 CURVE",
"563 2346 OFFCURVE",
"558 2351 OFFCURVE",
"558 2356 CURVE SMOOTH",
"558 2925 LINE SMOOTH",
"558 2930 OFFCURVE",
"564 2936 OFFCURVE",
"569 2936 CURVE SMOOTH"
);
},
{
closed = 1;
nodes = (
"574 2367 OFFCURVE",
"580 2361 OFFCURVE",
"580 2356 CURVE SMOOTH",
"580 569 LINE SMOOTH",
"580 564 OFFCURVE",
"574 558 OFFCURVE",
"569 558 CURVE SMOOTH",
"564 558 OFFCURVE",
"558 564 OFFCURVE",
"558 569 CURVE SMOOTH",
"558 2356 LINE SMOOTH",
"558 2361 OFFCURVE",
"564 2367 OFFCURVE",
"569 2367 CURVE SMOOTH"
);
},
{
closed = 1;
nodes = (
"574 580 OFFCURVE",
"580 574 OFFCURVE",
"580 569 CURVE SMOOTH",
"580 0 LINE SMOOTH",
"580 -5 OFFCURVE",
"574 -11 OFFCURVE",
"569 -11 CURVE SMOOTH",
"564 -11 OFFCURVE",
"558 -5 OFFCURVE",
"558 0 CURVE SMOOTH",
"558 569 LINE SMOOTH",
"558 574 OFFCURVE",
"564 580 OFFCURVE",
"569 580 CURVE SMOOTH"
);
},
{
closed = 1;
nodes = (
"574 11 OFFCURVE",
"580 5 OFFCURVE",
"580 0 CURVE SMOOTH",
"580 -569 LINE SMOOTH",
"580 -574 OFFCURVE",
"575 -579 OFFCURVE",
"569 -580 CURVE",
"563 -579 OFFCURVE",
"558 -574 OFFCURVE",
"558 -569 CURVE SMOOTH",
"558 0 LINE SMOOTH",
"558 5 OFFCURVE",
"564 11 OFFCURVE",
"569 11 CURVE SMOOTH"
);
},
{
closed = 1;
nodes = (
"574 -558 OFFCURVE",
"580 -564 OFFCURVE",
"580 -569 CURVE SMOOTH",
"580 -2356 LINE SMOOTH",
"580 -2361 OFFCURVE",
"574 -2367 OFFCURVE",
"569 -2367 CURVE SMOOTH",
"564 -2367 OFFCURVE",
"558 -2361 OFFCURVE",
"558 -2356 CURVE SMOOTH",
"558 -569 LINE SMOOTH",
"558 -564 OFFCURVE",
"564 -558 OFFCURVE",
"569 -558 CURVE SMOOTH"
);
},
{
closed = 1;
nodes = (
"574 -2345 OFFCURVE",
"580 -2351 OFFCURVE",
"580 -2356 CURVE SMOOTH",
"580 -2925 LINE SMOOTH",
"580 -2930 OFFCURVE",
"574 -2936 OFFCURVE",
"569 -2936 CURVE SMOOTH",
"564 -2936 OFFCURVE",
"558 -2930 OFFCURVE",
"558 -2925 CURVE SMOOTH",
"558 -2356 LINE SMOOTH",
"558 -2351 OFFCURVE",
"564 -2345 OFFCURVE",
"569 -2345 CURVE SMOOTH"
);
},
{
closed = 1;
nodes = (
"558 574 OFFCURVE",
"564 580 OFFCURVE",
"569 580 CURVE SMOOTH",
"574 580 OFFCURVE",
"580 574 OFFCURVE",
"580 569 CURVE SMOOTH",
"580 355 OFFCURVE",
"692 173 OFFCURVE",
"888 69 CURVE SMOOTH",
"962 33 OFFCURVE",
"1056 11 OFFCURVE",
"1138 11 CURVE SMOOTH",
"1143 11 OFFCURVE",
"1148 6 OFFCURVE",
"1148 0 CURVE SMOOTH",
"1148 -6 OFFCURVE",
"1143 -11 OFFCURVE",
"1138 -11 CURVE SMOOTH",
"984 -11 OFFCURVE",
"836 50 OFFCURVE",
"728 159 CURVE SMOOTH",
"619 267 OFFCURVE",
"558 415 OFFCURVE",
"558 569 CURVE SMOOTH"
);
}
);
width = 1138;
},
{
layerId = "A6394422-5114-4E65-BA08-40D408A20CD5";
paths = (
{
closed = 1;
nodes = (
"814 3370 OFFCURVE",
"1014 3169 OFFCURVE",
"1014 2925 CURVE SMOOTH",
"1014 2356 LINE SMOOTH",
"1014 2111 OFFCURVE",
"815 1912 OFFCURVE",
"569 1911 CURVE SMOOTH",
"323 1912 OFFCURVE",
"124 2111 OFFCURVE",
"124 2356 CURVE SMOOTH",
"124 2925 LINE SMOOTH",
"124 3170 OFFCURVE",
"325 3370 OFFCURVE",
"569 3370 CURVE SMOOTH"
);
},
{
closed = 1;
nodes = (
"814 2801 OFFCURVE",
"1014 2600 OFFCURVE",
"1014 2356 CURVE SMOOTH",
"1014 569 LINE SMOOTH",
"1014 324 OFFCURVE",
"813 124 OFFCURVE",
"569 124 CURVE SMOOTH",
"324 124 OFFCURVE",
"124 325 OFFCURVE",
"124 569 CURVE SMOOTH",
"124 2356 LINE SMOOTH",
"124 2601 OFFCURVE",
"325 2801 OFFCURVE",
"569 2801 CURVE SMOOTH"
);
},
{
closed = 1;
nodes = (
"814 1014 OFFCURVE",
"1014 813 OFFCURVE",
"1014 569 CURVE SMOOTH",
"1014 0 LINE SMOOTH",
"1014 -245 OFFCURVE",
"813 -445 OFFCURVE",
"569 -445 CURVE SMOOTH",
"324 -445 OFFCURVE",
"124 -244 OFFCURVE",
"124 0 CURVE SMOOTH",
"124 569 LINE SMOOTH",
"124 814 OFFCURVE",
"325 1014 OFFCURVE",
"569 1014 CURVE SMOOTH"
);
},
{
closed = 1;
nodes = (
"814 445 OFFCURVE",
"1014 244 OFFCURVE",
"1014 0 CURVE SMOOTH",
"1014 -569 LINE SMOOTH",
"1014 -814 OFFCURVE",
"815 -1013 OFFCURVE",
"569 -1014 CURVE SMOOTH",
"323 -1013 OFFCURVE",
"124 -814 OFFCURVE",
"124 -569 CURVE SMOOTH",
"124 0 LINE SMOOTH",
"124 245 OFFCURVE",
"325 445 OFFCURVE",
"569 445 CURVE SMOOTH"
);
},
{
closed = 1;
nodes = (
"814 -124 OFFCURVE",
"1014 -325 OFFCURVE",
"1014 -569 CURVE SMOOTH",
"1014 -2356 LINE SMOOTH",
"1014 -2601 OFFCURVE",
"813 -2801 OFFCURVE",
"569 -2801 CURVE SMOOTH",
"324 -2801 OFFCURVE",
"124 -2600 OFFCURVE",
"124 -2356 CURVE SMOOTH",
"124 -569 LINE SMOOTH",
"124 -324 OFFCURVE",
"325 -124 OFFCURVE",
"569 -124 CURVE SMOOTH"
);
},
{
closed = 1;
nodes = (
"814 -1911 OFFCURVE",
"1014 -2112 OFFCURVE",
"1014 -2356 CURVE SMOOTH",
"1014 -2925 LINE SMOOTH",
"1014 -3170 OFFCURVE",
"813 -3370 OFFCURVE",
"569 -3370 CURVE SMOOTH",
"324 -3370 OFFCURVE",
"124 -3169 OFFCURVE",
"124 -2925 CURVE SMOOTH",
"124 -2356 LINE SMOOTH",
"124 -2111 OFFCURVE",
"325 -1911 OFFCURVE",
"569 -1911 CURVE SMOOTH"
);
},
{
closed = 1;
nodes = (
"124 814 OFFCURVE",
"325 1014 OFFCURVE",
"569 1014 CURVE SMOOTH",
"814 1014 OFFCURVE",
"1014 813 OFFCURVE",
"1014 569 CURVE SMOOTH",
"1014 516 OFFCURVE",
"1036 484 OFFCURVE",
"1084 456 CURVE",
"1101 449 OFFCURVE",
"1118 445 OFFCURVE",
"1138 445 CURVE SMOOTH",
"1383 445 OFFCURVE",
"1582 246 OFFCURVE",
"1582 0 CURVE SMOOTH",
"1582 -246 OFFCURVE",
"1383 -445 OFFCURVE",
"1138 -445 CURVE SMOOTH",
"871 -445 OFFCURVE",
"610 -337 OFFCURVE",
"421 -148 CURVE SMOOTH",
"232 41 OFFCURVE",
"124 302 OFFCURVE",
"124 569 CURVE SMOOTH"
);
}
);
width = 1138;
}
);
unicode = 0048;
},
{
glyphname = i;
lastChange = "2021-01-31 07:32:33 +0000";
layers = (
{
layerId = "19B6A511-96ED-40AF-BAB7-D1E16DFA4179";
paths = (
{
closed = 1;
nodes = (
"603 4386 OFFCURVE",
"602 4383 OFFCURVE",
"596 4376 CURVE SMOOTH",
"593 4373 OFFCURVE",
"585 4370 OFFCURVE",
"581 4370 CURVE SMOOTH",
"574 4370 OFFCURVE",
"567 4373 OFFCURVE",
"564 4377 CURVE SMOOTH",
"559 4386 OFFCURVE",
"558 4389 OFFCURVE",
"558 4392 CURVE SMOOTH",
"558 4402 OFFCURVE",
"563 4407 OFFCURVE",
"576 4415 CURVE",
"577 4415 OFFCURVE",
"579 4415 OFFCURVE",
"581 4415 CURVE SMOOTH",
"586 4415 OFFCURVE",
"591 4413 OFFCURVE",
"595 4410 CURVE",
"601 4403 OFFCURVE",
"603 4398 OFFCURVE",
"603 4392 CURVE SMOOTH"
);
},
{
closed = 1;
nodes = (
"593 2936 OFFCURVE",
"599 2930 OFFCURVE",
"599 2925 CURVE SMOOTH",
"599 2356 LINE SMOOTH",
"599 2351 OFFCURVE",
"594 2346 OFFCURVE",
"588 2345 CURVE",
"582 2346 OFFCURVE",
"577 2351 OFFCURVE",
"577 2356 CURVE SMOOTH",
"577 2925 LINE SMOOTH",
"577 2930 OFFCURVE",
"583 2936 OFFCURVE",
"588 2936 CURVE SMOOTH"
);
},
{
closed = 1;
nodes = (
"593 2367 OFFCURVE",
"599 2361 OFFCURVE",
"599 2356 CURVE SMOOTH",
"599 569 LINE SMOOTH",
"599 564 OFFCURVE",
"593 558 OFFCURVE",
"588 558 CURVE SMOOTH",
"583 558 OFFCURVE",
"577 564 OFFCURVE",
"577 569 CURVE SMOOTH",
"577 2356 LINE SMOOTH",
"577 2361 OFFCURVE",
"583 2367 OFFCURVE",
"588 2367 CURVE SMOOTH"
);
},
{
closed = 1;
nodes = (
"577 569 LINE SMOOTH",
"577 574 OFFCURVE",
"583 580 OFFCURVE",
"588 580 CURVE SMOOTH",
"593 580 OFFCURVE",
"599 574 OFFCURVE",
"599 569 CURVE SMOOTH",
"599 0 LINE SMOOTH",
"599 -5 OFFCURVE",
"593 -11 OFFCURVE",
"588 -11 CURVE SMOOTH",
"583 -11 OFFCURVE",
"577 -5 OFFCURVE",
"577 0 CURVE SMOOTH"
);
}
);
width = 1161;
},
{
layerId = "A6394422-5114-4E65-BA08-40D408A20CD5";
paths = (
{
closed = 1;
nodes = (
"1037 4301 OFFCURVE",
"1009 4212 OFFCURVE",
"958 4136 CURVE SMOOTH",
"878 4013 OFFCURVE",
"728 3936 OFFCURVE",
"581 3936 CURVE SMOOTH",
"427 3936 OFFCURVE",
"281 4015 OFFCURVE",
"199 4142 CURVE SMOOTH",
"151 4217 OFFCURVE",
"124 4305 OFFCURVE",
"124 4392 CURVE SMOOTH",
"124 4511 OFFCURVE",
"173 4629 OFFCURVE",
"257 4713 CURVE SMOOTH",
"341 4800 OFFCURVE",
"458 4849 OFFCURVE",
"581 4849 CURVE SMOOTH",
"702 4849 OFFCURVE",
"821 4799 OFFCURVE",
"905 4713 CURVE SMOOTH",
"989 4628 OFFCURVE",
"1037 4511 OFFCURVE",
"1037 4392 CURVE SMOOTH"
);
},
{
closed = 1;
nodes = (
"833 3370 OFFCURVE",
"1033 3169 OFFCURVE",
"1033 2925 CURVE SMOOTH",
"1033 2356 LINE SMOOTH",
"1033 2111 OFFCURVE",
"834 1912 OFFCURVE",
"588 1911 CURVE SMOOTH",
"342 1912 OFFCURVE",
"143 2111 OFFCURVE",
"143 2356 CURVE SMOOTH",
"143 2925 LINE SMOOTH",
"143 3170 OFFCURVE",
"344 3370 OFFCURVE",
"588 3370 CURVE SMOOTH"
);
},
{
closed = 1;
nodes = (
"833 2801 OFFCURVE",
"1033 2600 OFFCURVE",
"1033 2356 CURVE SMOOTH",
"1033 569 LINE SMOOTH",
"1033 324 OFFCURVE",
"832 124 OFFCURVE",
"588 124 CURVE SMOOTH",
"343 124 OFFCURVE",
"143 325 OFFCURVE",
"143 569 CURVE SMOOTH",
"143 2356 LINE SMOOTH",
"143 2601 OFFCURVE",
"344 2801 OFFCURVE",
"588 2801 CURVE SMOOTH"
);
},
{
closed = 1;
nodes = (
"143 569 LINE SMOOTH",
"143 814 OFFCURVE",
"344 1014 OFFCURVE",
"588 1014 CURVE SMOOTH",
"833 1014 OFFCURVE",
"1033 813 OFFCURVE",
"1033 569 CURVE SMOOTH",
"1033 0 LINE SMOOTH",
"1033 -245 OFFCURVE",
"832 -445 OFFCURVE",
"588 -445 CURVE SMOOTH",
"343 -445 OFFCURVE",
"143 -244 OFFCURVE",
"143 0 CURVE SMOOTH"
);
}
);
width = 1161;
}
);
leftKerningGroup = h;
rightKerningGroup = h;
unicode = 0069;
},
{
glyphname = one;
lastChange = "2021-01-31 07:32:33 +0000";
layers = (
{
layerId = "19B6A511-96ED-40AF-BAB7-D1E16DFA4179";
paths = (
{
closed = 1;
nodes = (
"574 2936 OFFCURVE",
"580 2930 OFFCURVE",
"580 2925 CURVE SMOOTH",
"580 2356 LINE SMOOTH",
"580 2351 OFFCURVE",
"575 2346 OFFCURVE",
"569 2345 CURVE",
"563 2346 OFFCURVE",
"558 2351 OFFCURVE",
"558 2356 CURVE SMOOTH",
"558 2925 LINE SMOOTH",
"558 2930 OFFCURVE",
"564 2936 OFFCURVE",
"569 2936 CURVE SMOOTH"
);
},
{
closed = 1;
nodes = (
"574 2367 OFFCURVE",
"580 2361 OFFCURVE",
"580 2356 CURVE SMOOTH",
"580 569 LINE SMOOTH",
"580 564 OFFCURVE",
"574 558 OFFCURVE",
"569 558 CURVE SMOOTH",
"564 558 OFFCURVE",
"558 564 OFFCURVE",
"558 569 CURVE SMOOTH",
"558 2356 LINE SMOOTH",
"558 2361 OFFCURVE",
"564 2367 OFFCURVE",
"569 2367 CURVE SMOOTH"
);
},
{
closed = 1;
nodes = (
"558 569 LINE SMOOTH",
"558 574 OFFCURVE",
"564 580 OFFCURVE",
"569 580 CURVE SMOOTH",
"574 580 OFFCURVE",
"580 574 OFFCURVE",
"580 569 CURVE SMOOTH",
"580 0 LINE SMOOTH",
"580 -5 OFFCURVE",
"574 -11 OFFCURVE",
"569 -11 CURVE SMOOTH",
"564 -11 OFFCURVE",
"558 -5 OFFCURVE",
"558 0 CURVE SMOOTH"
);
}
);
width = 1138;
},
{
layerId = "A6394422-5114-4E65-BA08-40D408A20CD5";
paths = (
{
closed = 1;
nodes = (
"814 3370 OFFCURVE",
"1014 3169 OFFCURVE",
"1014 2925 CURVE SMOOTH",
"1014 2356 LINE SMOOTH",
"1014 2111 OFFCURVE",
"815 1912 OFFCURVE",
"569 1911 CURVE SMOOTH",
"323 1912 OFFCURVE",
"124 2111 OFFCURVE",
"124 2356 CURVE SMOOTH",
"124 2925 LINE SMOOTH",
"124 3170 OFFCURVE",
"325 3370 OFFCURVE",
"569 3370 CURVE SMOOTH"
);
},
{
closed = 1;
nodes = (
"814 2801 OFFCURVE",
"1014 2600 OFFCURVE",
"1014 2356 CURVE SMOOTH",
"1014 569 LINE SMOOTH",
"1014 324 OFFCURVE",
"813 124 OFFCURVE",
"569 124 CURVE SMOOTH",
"324 124 OFFCURVE",
"124 325 OFFCURVE",
"124 569 CURVE SMOOTH",
"124 2356 LINE SMOOTH",
"124 2601 OFFCURVE",
"325 2801 OFFCURVE",
"569 2801 CURVE SMOOTH"
);
},
{
closed = 1;
nodes = (
"124 569 LINE SMOOTH",
"124 814 OFFCURVE",
"325 1014 OFFCURVE",
"569 1014 CURVE SMOOTH",
"814 1014 OFFCURVE",
"1014 813 OFFCURVE",
"1014 569 CURVE SMOOTH",
"1014 0 LINE SMOOTH",
"1014 -245 OFFCURVE",
"813 -445 OFFCURVE",
"569 -445 CURVE SMOOTH",
"324 -445 OFFCURVE",
"124 -244 OFFCURVE",
"124 0 CURVE SMOOTH"
);
}
);
width = 1138;
}
);
unicode = 0031;
},
{
glyphname = V;
lastChange = "2021-01-31 07:32:33 +0000";
layers = (
{
layerId = "19B6A511-96ED-40AF-BAB7-D1E16DFA4179";
paths = (
{
closed = 1;
nodes = (
"574 2367 OFFCURVE",
"580 2361 OFFCURVE",
"580 2356 CURVE SMOOTH",
"580 569 LINE SMOOTH",
"580 564 OFFCURVE",
"574 558 OFFCURVE",
"569 558 CURVE SMOOTH",
"564 558 OFFCURVE",
"558 564 OFFCURVE",
"558 569 CURVE SMOOTH",
"558 2356 LINE SMOOTH",
"558 2361 OFFCURVE",
"564 2367 OFFCURVE",
"569 2367 CURVE SMOOTH"
);
},
{
closed = 1;
nodes = (
"574 580 OFFCURVE",
"580 574 OFFCURVE",
"580 569 CURVE SMOOTH",
"580 0 LINE SMOOTH",
"580 -5 OFFCURVE",
"574 -11 OFFCURVE",
"569 -11 CURVE SMOOTH",
"564 -11 OFFCURVE",
"558 -5 OFFCURVE",
"558 0 CURVE SMOOTH",
"558 569 LINE SMOOTH",
"558 574 OFFCURVE",
"564 580 OFFCURVE",
"569 580 CURVE SMOOTH"
);
},
{
closed = 1;
nodes = (
"1143 2936 OFFCURVE",
"1148 2931 OFFCURVE",
"1148 2925 CURVE SMOOTH",
"1148 2919 OFFCURVE",
"1143 2914 OFFCURVE",
"1138 2914 CURVE SMOOTH",
"972 2914 OFFCURVE",
"818 2842 OFFCURVE",
"707 2713 CURVE SMOOTH",
"625 2614 OFFCURVE",
"580 2488 OFFCURVE",
"580 2356 CURVE SMOOTH",
"580 2351 OFFCURVE",
"575 2346 OFFCURVE",
"569 2345 CURVE",
"563 2346 OFFCURVE",
"558 2351 OFFCURVE",
"558 2356 CURVE SMOOTH",
"558 2510 OFFCURVE",
"619 2658 OFFCURVE",
"728 2766 CURVE SMOOTH",
"836 2875 OFFCURVE",
"984 2936 OFFCURVE",
"1138 2936 CURVE SMOOTH"
);
},
{
closed = 1;
nodes = (
"574 2367 OFFCURVE",
"580 2361 OFFCURVE",
"580 2356 CURVE SMOOTH",
"580 2121 OFFCURVE",
"734 1881 OFFCURVE",
"1145 1471 CURVE SMOOTH",
"1432 1183 OFFCURVE",
"1717 923 OFFCURVE",
"1717 569 CURVE SMOOTH",
"1717 563 OFFCURVE",
"1712 558 OFFCURVE",
"1707 558 CURVE SMOOTH",
"1701 558 OFFCURVE",
"1696 563 OFFCURVE",
"1696 569 CURVE SMOOTH",
"1696 806 OFFCURVE",
"1543 1045 OFFCURVE",
"1130 1454 CURVE SMOOTH",
"845 1743 OFFCURVE",
"558 2002 OFFCURVE",
"558 2356 CURVE SMOOTH",
"558 2361 OFFCURVE",
"564 2367 OFFCURVE",
"569 2367 CURVE SMOOTH"
);
},
{
closed = 1;
nodes = (
"1696 569 LINE SMOOTH",
"1696 575 OFFCURVE",
"1701 580 OFFCURVE",
"1707 580 CURVE SMOOTH",
"1712 580 OFFCURVE",
"1717 575 OFFCURVE",
"1717 569 CURVE SMOOTH",
"1717 0 LINE SMOOTH",
"1717 -6 OFFCURVE",
"1712 -11 OFFCURVE",
"1707 -11 CURVE SMOOTH",
"1701 -11 OFFCURVE",
"1696 -6 OFFCURVE",
"1696 0 CURVE SMOOTH"
);
}
);
width = 2275;
},
{
layerId = "A6394422-5114-4E65-BA08-40D408A20CD5";
paths = (
{
closed = 1;
nodes = (
"814 2801 OFFCURVE",
"1014 2600 OFFCURVE",
"1014 2356 CURVE SMOOTH",
"1014 569 LINE SMOOTH",
"1014 324 OFFCURVE",
"813 124 OFFCURVE",
"569 124 CURVE SMOOTH",
"324 124 OFFCURVE",
"124 325 OFFCURVE",
"124 569 CURVE SMOOTH",
"124 2356 LINE SMOOTH",
"124 2601 OFFCURVE",
"325 2801 OFFCURVE",
"569 2801 CURVE SMOOTH"
);
},
{
closed = 1;
nodes = (
"814 1014 OFFCURVE",
"1014 813 OFFCURVE",
"1014 569 CURVE SMOOTH",
"1014 0 LINE SMOOTH",
"1014 -245 OFFCURVE",
"813 -445 OFFCURVE",
"569 -445 CURVE SMOOTH",
"324 -445 OFFCURVE",
"124 -244 OFFCURVE",
"124 0 CURVE SMOOTH",
"124 569 LINE SMOOTH",
"124 814 OFFCURVE",
"325 1014 OFFCURVE",
"569 1014 CURVE SMOOTH"
);
},
{
closed = 1;
nodes = (
"1383 3370 OFFCURVE",
"1582 3171 OFFCURVE",
"1582 2925 CURVE SMOOTH",
"1582 2679 OFFCURVE",
"1383 2480 OFFCURVE",
"1138 2480 CURVE SMOOTH",
"1098 2480 OFFCURVE",
"1067 2465 OFFCURVE",
"1039 2433 CURVE SMOOTH",
"1022 2412 OFFCURVE",
"1014 2388 OFFCURVE",
"1014 2356 CURVE SMOOTH",
"1014 2111 OFFCURVE",
"815 1912 OFFCURVE",
"569 1911 CURVE SMOOTH",
"323 1912 OFFCURVE",
"124 2111 OFFCURVE",
"124 2356 CURVE SMOOTH",
"124 2623 OFFCURVE",
"232 2884 OFFCURVE",
"421 3073 CURVE SMOOTH",
"610 3262 OFFCURVE",
"871 3370 OFFCURVE",
"1138 3370 CURVE SMOOTH"
);
},
{
closed = 1;
nodes = (
"814 2801 OFFCURVE",
"1014 2600 OFFCURVE",
"1014 2356 CURVE SMOOTH",
"1014 2265 OFFCURVE",
"1155 2073 OFFCURVE",
"1452 1778 CURVE SMOOTH",
"1732 1497 OFFCURVE",
"2151 1114 OFFCURVE",
"2151 569 CURVE SMOOTH",
"2151 323 OFFCURVE",
"1952 124 OFFCURVE",
"1707 124 CURVE SMOOTH",
"1462 124 OFFCURVE",
"1262 323 OFFCURVE",
"1262 569 CURVE SMOOTH",
"1262 660 OFFCURVE",
"1125 848 OFFCURVE",
"823 1147 CURVE SMOOTH",
"545 1428 OFFCURVE",
"124 1810 OFFCURVE",
"124 2356 CURVE SMOOTH",
"124 2601 OFFCURVE",
"325 2801 OFFCURVE",
"569 2801 CURVE SMOOTH"
);
},
{
closed = 1;
nodes = (
"1262 569 LINE SMOOTH",
"1262 814 OFFCURVE",
"1461 1014 OFFCURVE",
"1707 1014 CURVE SMOOTH",
"1952 1014 OFFCURVE",
"2151 815 OFFCURVE",
"2151 569 CURVE SMOOTH",
"2151 0 LINE SMOOTH",
"2151 -246 OFFCURVE",
"1952 -445 OFFCURVE",
"1707 -445 CURVE SMOOTH",
"1462 -445 OFFCURVE",
"1262 -246 OFFCURVE",
"1262 0 CURVE SMOOTH"
);
}
);
width = 2275;
}
);
leftKerningGroup = h;
rightKerningGroup = h;
unicode = 0056;
},
{
glyphname = three;
lastChange = "2021-01-31 07:32:33 +0000";
layers = (
{
layerId = "19B6A511-96ED-40AF-BAB7-D1E16DFA4179";
paths = (
{
closed = 1;
nodes = (
"1143 2936 OFFCURVE",
"1148 2931 OFFCURVE",
"1148 2925 CURVE SMOOTH",
"1148 2919 OFFCURVE",
"1143 2914 OFFCURVE",
"1138 2914 CURVE SMOOTH",
"972 2914 OFFCURVE",
"818 2842 OFFCURVE",
"707 2713 CURVE SMOOTH",
"625 2614 OFFCURVE",
"580 2488 OFFCURVE",
"580 2356 CURVE SMOOTH",
"580 2351 OFFCURVE",
"575 2346 OFFCURVE",
"569 2345 CURVE",
"563 2346 OFFCURVE",
"558 2351 OFFCURVE",
"558 2356 CURVE SMOOTH",
"558 2510 OFFCURVE",
"619 2658 OFFCURVE",
"728 2766 CURVE SMOOTH",
"836 2875 OFFCURVE",
"984 2936 OFFCURVE",
"1138 2936 CURVE SMOOTH"
);
},
{
closed = 1;
nodes = (
"1712 580 OFFCURVE",
"1717 575 OFFCURVE",
"1717 569 CURVE SMOOTH",
"1717 485 OFFCURVE",
"1701 409 OFFCURVE",
"1664 326 CURVE SMOOTH",
"1573 122 OFFCURVE",
"1365 -11 OFFCURVE",
"1138 -11 CURVE SMOOTH",
"1133 -11 OFFCURVE",
"1127 -5 OFFCURVE",
"1127 0 CURVE SMOOTH",
"1127 5 OFFCURVE",
"1133 11 OFFCURVE",
"1138 11 CURVE SMOOTH",
"1286 11 OFFCURVE",
"1426 69 OFFCURVE",
"1532 174 CURVE SMOOTH",
"1637 279 OFFCURVE",
"1696 420 OFFCURVE",
"1696 569 CURVE SMOOTH",
"1696 575 OFFCURVE",
"1701 580 OFFCURVE",
"1707 580 CURVE SMOOTH"
);
},
{
closed = 1;
nodes = (
"1365 2936 OFFCURVE",
"1573 2803 OFFCURVE",
"1664 2599 CURVE SMOOTH",
"1701 2516 OFFCURVE",
"1717 2440 OFFCURVE",
"1717 2356 CURVE SMOOTH",
"1717 2351 OFFCURVE",
"1713 2346 OFFCURVE",
"1707 2345 CURVE",
"1701 2346 OFFCURVE",
"1696 2351 OFFCURVE",
"1696 2356 CURVE SMOOTH",
"1696 2505 OFFCURVE",
"1637 2646 OFFCURVE",
"1532 2751 CURVE SMOOTH",
"1426 2856 OFFCURVE",
"1286 2914 OFFCURVE",
"1138 2914 CURVE SMOOTH",
"1133 2914 OFFCURVE",
"1127 2920 OFFCURVE",
"1127 2925 CURVE SMOOTH",
"1127 2930 OFFCURVE",
"1133 2936 OFFCURVE",
"1138 2936 CURVE SMOOTH"
);
},
{
closed = 1;
nodes = (
"574 580 OFFCURVE",
"580 574 OFFCURVE",
"580 569 CURVE SMOOTH",
"580 355 OFFCURVE",
"692 173 OFFCURVE",
"888 69 CURVE SMOOTH",
"962 33 OFFCURVE",
"1056 11 OFFCURVE",
"1138 11 CURVE SMOOTH",
"1143 11 OFFCURVE",
"1148 6 OFFCURVE",
"1148 0 CURVE SMOOTH",
"1148 -6 OFFCURVE",
"1143 -11 OFFCURVE",
"1138 -11 CURVE SMOOTH",
"984 -11 OFFCURVE",
"836 50 OFFCURVE",
"728 159 CURVE SMOOTH",
"619 267 OFFCURVE",
"558 415 OFFCURVE",
"558 569 CURVE SMOOTH",
"558 574 OFFCURVE",
"564 580 OFFCURVE",
"569 580 CURVE SMOOTH"
);
},
{
closed = 1;
nodes = (
"1712 2367 OFFCURVE",
"1717 2362 OFFCURVE",
"1717 2356 CURVE SMOOTH",
"1717 569 LINE SMOOTH",
"1717 563 OFFCURVE",
"1712 558 OFFCURVE",
"1707 558 CURVE SMOOTH",
"1701 558 OFFCURVE",
"1696 563 OFFCURVE",
"1696 569 CURVE SMOOTH",
"1696 2356 LINE SMOOTH",
"1696 2362 OFFCURVE",
"1701 2367 OFFCURVE",
"1707 2367 CURVE SMOOTH"
);
},
{
closed = 1;
nodes = (
"1127 1468 OFFCURVE",
"1132 1473 OFFCURVE",
"1138 1473 CURVE SMOOTH",
"1707 1473 LINE SMOOTH",
"1712 1473 OFFCURVE",
"1717 1468 OFFCURVE",
"1717 1463 CURVE SMOOTH",
"1717 1456 OFFCURVE",
"1713 1452 OFFCURVE",
"1707 1452 CURVE SMOOTH",
"1138 1452 LINE SMOOTH",
"1132 1452 OFFCURVE",
"1127 1457 OFFCURVE",
"1127 1463 CURVE SMOOTH"
);
}
);
width = 2275;
},
{
layerId = "A6394422-5114-4E65-BA08-40D408A20CD5";
paths = (
{
closed = 1;
nodes = (
"1383 3370 OFFCURVE",
"1582 3171 OFFCURVE",
"1582 2925 CURVE SMOOTH",
"1582 2679 OFFCURVE",
"1383 2480 OFFCURVE",
"1138 2480 CURVE SMOOTH",
"1098 2480 OFFCURVE",
"1067 2465 OFFCURVE",
"1039 2433 CURVE SMOOTH",
"1022 2412 OFFCURVE",
"1014 2388 OFFCURVE",
"1014 2356 CURVE SMOOTH",
"1014 2111 OFFCURVE",
"815 1912 OFFCURVE",
"569 1911 CURVE SMOOTH",
"323 1912 OFFCURVE",
"124 2111 OFFCURVE",
"124 2356 CURVE SMOOTH",
"124 2623 OFFCURVE",
"232 2884 OFFCURVE",
"421 3073 CURVE SMOOTH",
"610 3262 OFFCURVE",
"871 3370 OFFCURVE",
"1138 3370 CURVE SMOOTH"
);
},
{
closed = 1;
nodes = (
"1952 1014 OFFCURVE",
"2151 815 OFFCURVE",
"2151 569 CURVE SMOOTH",
"2151 428 OFFCURVE",
"2120 285 OFFCURVE",
"2061 151 CURVE SMOOTH",
"1901 -210 OFFCURVE",
"1537 -445 OFFCURVE",
"1138 -445 CURVE SMOOTH",
"893 -445 OFFCURVE",
"693 -244 OFFCURVE",
"693 0 CURVE SMOOTH",
"693 245 OFFCURVE",
"894 445 OFFCURVE",
"1138 445 CURVE SMOOTH",
"1172 445 OFFCURVE",
"1201 457 OFFCURVE",
"1225 481 CURVE SMOOTH",
"1250 506 OFFCURVE",
"1262 534 OFFCURVE",
"1262 569 CURVE SMOOTH",
"1262 814 OFFCURVE",
"1461 1014 OFFCURVE",
"1707 1014 CURVE SMOOTH"
);
},
{
closed = 1;
nodes = (
"1537 3370 OFFCURVE",
"1901 3135 OFFCURVE",
"2061 2774 CURVE SMOOTH",
"2120 2640 OFFCURVE",
"2151 2497 OFFCURVE",
"2151 2356 CURVE SMOOTH",
"2151 2111 OFFCURVE",
"1952 1912 OFFCURVE",
"1707 1911 CURVE SMOOTH",
"1461 1912 OFFCURVE",
"1262 2111 OFFCURVE",
"1262 2356 CURVE SMOOTH",
"1262 2391 OFFCURVE",
"1250 2419 OFFCURVE",
"1225 2444 CURVE SMOOTH",
"1201 2468 OFFCURVE",
"1172 2480 OFFCURVE",
"1138 2480 CURVE SMOOTH",
"893 2480 OFFCURVE",
"693 2681 OFFCURVE",
"693 2925 CURVE SMOOTH",
"693 3170 OFFCURVE",
"894 3370 OFFCURVE",
"1138 3370 CURVE SMOOTH"
);
},
{
closed = 1;
nodes = (
"814 1014 OFFCURVE",
"1014 813 OFFCURVE",
"1014 569 CURVE SMOOTH",
"1014 516 OFFCURVE",
"1036 484 OFFCURVE",
"1084 456 CURVE",
"1101 449 OFFCURVE",
"1118 445 OFFCURVE",
"1138 445 CURVE SMOOTH",
"1383 445 OFFCURVE",
"1582 246 OFFCURVE",
"1582 0 CURVE SMOOTH",
"1582 -246 OFFCURVE",
"1383 -445 OFFCURVE",
"1138 -445 CURVE SMOOTH",
"871 -445 OFFCURVE",
"610 -337 OFFCURVE",
"421 -148 CURVE SMOOTH",
"232 41 OFFCURVE",
"124 302 OFFCURVE",
"124 569 CURVE SMOOTH",
"124 814 OFFCURVE",
"325 1014 OFFCURVE",
"569 1014 CURVE SMOOTH"
);
},
{
closed = 1;
nodes = (
"1952 2801 OFFCURVE",
"2151 2602 OFFCURVE",
"2151 2356 CURVE SMOOTH",
"2151 569 LINE SMOOTH",
"2151 323 OFFCURVE",
"1952 124 OFFCURVE",
"1707 124 CURVE SMOOTH",
"1462 124 OFFCURVE",
"1262 323 OFFCURVE",
"1262 569 CURVE SMOOTH",
"1262 2356 LINE SMOOTH",
"1262 2601 OFFCURVE",
"1461 2801 OFFCURVE",
"1707 2801 CURVE SMOOTH"
);
},
{
closed = 1;
nodes = (
"693 1708 OFFCURVE",
"892 1907 OFFCURVE",
"1138 1907 CURVE SMOOTH",
"1707 1907 LINE SMOOTH",
"1952 1907 OFFCURVE",
"2151 1707 OFFCURVE",
"2151 1463 CURVE SMOOTH",
"2151 1216 OFFCURVE",
"1953 1018 OFFCURVE",
"1707 1018 CURVE SMOOTH",
"1138 1018 LINE SMOOTH",
"893 1018 OFFCURVE",
"693 1217 OFFCURVE",
"693 1463 CURVE SMOOTH"
);
}
);
width = 2275;
}
);
unicode = 0033;
},
{
glyphname = N;
lastChange = "2021-01-31 07:32:33 +0000";
layers = (
{
layerId = "19B6A511-96ED-40AF-BAB7-D1E16DFA4179";
paths = (
{
closed = 1;
nodes = (
"574 -558 OFFCURVE",
"580 -564 OFFCURVE",
"580 -569 CURVE SMOOTH",
"580 -2356 LINE SMOOTH",
"580 -2361 OFFCURVE",
"574 -2367 OFFCURVE",
"569 -2367 CURVE SMOOTH",
"564 -2367 OFFCURVE",
"558 -2361 OFFCURVE",
"558 -2356 CURVE SMOOTH",
"558 -569 LINE SMOOTH",
"558 -564 OFFCURVE",
"564 -558 OFFCURVE",
"569 -558 CURVE SMOOTH"
);
},
{
closed = 1;
nodes = (
"574 -2345 OFFCURVE",
"580 -2351 OFFCURVE",
"580 -2356 CURVE SMOOTH",
"580 -2925 LINE SMOOTH",
"580 -2930 OFFCURVE",
"574 -2936 OFFCURVE",
"569 -2936 CURVE SMOOTH",
"564 -2936 OFFCURVE",
"558 -2930 OFFCURVE",
"558 -2925 CURVE SMOOTH",
"558 -2356 LINE SMOOTH",
"558 -2351 OFFCURVE",
"564 -2345 OFFCURVE",
"569 -2345 CURVE SMOOTH"
);
},
{
closed = 1;
nodes = (
"1712 580 OFFCURVE",
"1717 575 OFFCURVE",
"1717 569 CURVE SMOOTH",
"1717 485 OFFCURVE",
"1701 409 OFFCURVE",
"1664 326 CURVE SMOOTH",
"1573 122 OFFCURVE",
"1365 -11 OFFCURVE",
"1138 -11 CURVE SMOOTH",
"1133 -11 OFFCURVE",
"1127 -5 OFFCURVE",
"1127 0 CURVE SMOOTH",
"1127 5 OFFCURVE",
"1133 11 OFFCURVE",
"1138 11 CURVE SMOOTH",
"1286 11 OFFCURVE",
"1426 69 OFFCURVE",
"1532 174 CURVE SMOOTH",
"1637 279 OFFCURVE",
"1696 420 OFFCURVE",
"1696 569 CURVE SMOOTH",
"1696 575 OFFCURVE",
"1701 580 OFFCURVE",
"1707 580 CURVE SMOOTH"
);
},
{
closed = 1;
nodes = (
"1143 11 OFFCURVE",
"1148 6 OFFCURVE",
"1148 0 CURVE SMOOTH",
"1148 -6 OFFCURVE",
"1143 -11 OFFCURVE",
"1138 -11 CURVE SMOOTH",
"972 -11 OFFCURVE",
"818 -83 OFFCURVE",
"707 -212 CURVE SMOOTH",
"625 -311 OFFCURVE",
"580 -437 OFFCURVE",
"580 -569 CURVE SMOOTH",
"580 -574 OFFCURVE",
"575 -579 OFFCURVE",
"569 -580 CURVE",
"563 -579 OFFCURVE",
"558 -574 OFFCURVE",
"558 -569 CURVE SMOOTH",
"558 -415 OFFCURVE",
"619 -267 OFFCURVE",
"728 -159 CURVE SMOOTH",
"836 -50 OFFCURVE",
"984 11 OFFCURVE",
"1138 11 CURVE SMOOTH"
);
},
{
closed = 1;
nodes = (
"1712 2936 OFFCURVE",
"1717 2931 OFFCURVE",
"1717 2925 CURVE SMOOTH",
"1717 2356 LINE SMOOTH",
"1717 2351 OFFCURVE",
"1713 2346 OFFCURVE",
"1707 2345 CURVE",
"1701 2346 OFFCURVE",
"1696 2351 OFFCURVE",
"1696 2356 CURVE SMOOTH",
"1696 2925 LINE SMOOTH",
"1696 2931 OFFCURVE",
"1701 2936 OFFCURVE",
"1707 2936 CURVE SMOOTH"
);
},
{
closed = 1;
nodes = (
"1696 2356 LINE SMOOTH",
"1696 2362 OFFCURVE",
"1701 2367 OFFCURVE",
"1707 2367 CURVE SMOOTH",
"1712 2367 OFFCURVE",
"1717 2362 OFFCURVE",
"1717 2356 CURVE SMOOTH",
"1717 569 LINE SMOOTH",
"1717 563 OFFCURVE",
"1712 558 OFFCURVE",
"1707 558 CURVE SMOOTH",
"1701 558 OFFCURVE",
"1696 563 OFFCURVE",
"1696 569 CURVE SMOOTH"
);
}
);
width = 2275;
},
{
layerId = "A6394422-5114-4E65-BA08-40D408A20CD5";
paths = (
{
closed = 1;
nodes = (
"814 -124 OFFCURVE",
"1014 -325 OFFCURVE",
"1014 -569 CURVE SMOOTH",
"1014 -2356 LINE SMOOTH",
"1014 -2601 OFFCURVE",
"813 -2801 OFFCURVE",
"569 -2801 CURVE SMOOTH",
"324 -2801 OFFCURVE",
"124 -2600 OFFCURVE",
"124 -2356 CURVE SMOOTH",
"124 -569 LINE SMOOTH",
"124 -324 OFFCURVE",
"325 -124 OFFCURVE",
"569 -124 CURVE SMOOTH"
);
},
{
closed = 1;
nodes = (
"814 -1911 OFFCURVE",
"1014 -2112 OFFCURVE",
"1014 -2356 CURVE SMOOTH",
"1014 -2925 LINE SMOOTH",
"1014 -3170 OFFCURVE",
"813 -3370 OFFCURVE",
"569 -3370 CURVE SMOOTH",
"324 -3370 OFFCURVE",
"124 -3169 OFFCURVE",
"124 -2925 CURVE SMOOTH",
"124 -2356 LINE SMOOTH",
"124 -2111 OFFCURVE",
"325 -1911 OFFCURVE",
"569 -1911 CURVE SMOOTH"
);
},
{
closed = 1;
nodes = (
"1952 1014 OFFCURVE",
"2151 815 OFFCURVE",
"2151 569 CURVE SMOOTH",
"2151 428 OFFCURVE",
"2120 285 OFFCURVE",
"2061 151 CURVE SMOOTH",
"1901 -210 OFFCURVE",
"1537 -445 OFFCURVE",
"1138 -445 CURVE SMOOTH",
"893 -445 OFFCURVE",
"693 -244 OFFCURVE",
"693 0 CURVE SMOOTH",
"693 245 OFFCURVE",
"894 445 OFFCURVE",
"1138 445 CURVE SMOOTH",
"1172 445 OFFCURVE",
"1201 457 OFFCURVE",
"1225 481 CURVE SMOOTH",
"1250 506 OFFCURVE",
"1262 534 OFFCURVE",
"1262 569 CURVE SMOOTH",
"1262 814 OFFCURVE",
"1461 1014 OFFCURVE",
"1707 1014 CURVE SMOOTH"
);
},
{
closed = 1;
nodes = (
"1383 445 OFFCURVE",
"1582 246 OFFCURVE",
"1582 0 CURVE SMOOTH",
"1582 -246 OFFCURVE",
"1383 -445 OFFCURVE",
"1138 -445 CURVE SMOOTH",
"1098 -445 OFFCURVE",
"1067 -460 OFFCURVE",
"1039 -492 CURVE SMOOTH",
"1022 -513 OFFCURVE",
"1014 -537 OFFCURVE",
"1014 -569 CURVE SMOOTH",
"1014 -814 OFFCURVE",
"815 -1013 OFFCURVE",
"569 -1014 CURVE SMOOTH",
"323 -1013 OFFCURVE",
"124 -814 OFFCURVE",
"124 -569 CURVE SMOOTH",
"124 -302 OFFCURVE",
"232 -41 OFFCURVE",
"421 148 CURVE SMOOTH",
"610 337 OFFCURVE",
"871 445 OFFCURVE",
"1138 445 CURVE SMOOTH"
);
},
{
closed = 1;
nodes = (
"1952 3370 OFFCURVE",
"2151 3171 OFFCURVE",
"2151 2925 CURVE SMOOTH",
"2151 2356 LINE SMOOTH",
"2151 2111 OFFCURVE",
"1952 1912 OFFCURVE",
"1707 1911 CURVE SMOOTH",
"1461 1912 OFFCURVE",
"1262 2111 OFFCURVE",
"1262 2356 CURVE SMOOTH",
"1262 2925 LINE SMOOTH",
"1262 3170 OFFCURVE",
"1461 3370 OFFCURVE",
"1707 3370 CURVE SMOOTH"
);
},
{
closed = 1;
nodes = (
"1262 2356 LINE SMOOTH",
"1262 2601 OFFCURVE",
"1461 2801 OFFCURVE",
"1707 2801 CURVE SMOOTH",
"1952 2801 OFFCURVE",
"2151 2602 OFFCURVE",
"2151 2356 CURVE SMOOTH",
"2151 569 LINE SMOOTH",
"2151 323 OFFCURVE",
"1952 124 OFFCURVE",
"1707 124 CURVE SMOOTH",
"1462 124 OFFCURVE",
"1262 323 OFFCURVE",
"1262 569 CURVE SMOOTH"
);
}
);
width = 2275;
}
);
rightKerningGroup = c;
unicode = 004E;
},
{
glyphname = l;
lastChange = "2021-01-31 07:32:33 +0000";
layers = (
{
layerId = "19B6A511-96ED-40AF-BAB7-D1E16DFA4179";
paths = (
{
closed = 1;
nodes = (
"574 5861 OFFCURVE",
"580 5855 OFFCURVE",
"580 5850 CURVE SMOOTH",
"580 5281 LINE SMOOTH",
"580 5276 OFFCURVE",
"575 5271 OFFCURVE",
"569 5270 CURVE",
"563 5271 OFFCURVE",
"558 5276 OFFCURVE",
"558 5281 CURVE SMOOTH",
"558 5850 LINE SMOOTH",
"558 5855 OFFCURVE",
"564 5861 OFFCURVE",
"569 5861 CURVE SMOOTH"
);
},
{
closed = 1;
nodes = (
"574 5292 OFFCURVE",
"580 5286 OFFCURVE",
"580 5281 CURVE SMOOTH",
"580 3494 LINE SMOOTH",
"580 3489 OFFCURVE",
"574 3483 OFFCURVE",
"569 3483 CURVE SMOOTH",
"564 3483 OFFCURVE",
"558 3489 OFFCURVE",
"558 3494 CURVE SMOOTH",
"558 5281 LINE SMOOTH",
"558 5286 OFFCURVE",
"564 5292 OFFCURVE",
"569 5292 CURVE SMOOTH"
);
},
{
closed = 1;
nodes = (
"574 3505 OFFCURVE",
"580 3499 OFFCURVE",
"580 3494 CURVE SMOOTH",
"580 2925 LINE SMOOTH",
"580 2920 OFFCURVE",
"574 2914 OFFCURVE",
"569 2914 CURVE SMOOTH",
"564 2914 OFFCURVE",
"558 2920 OFFCURVE",
"558 2925 CURVE SMOOTH",
"558 3494 LINE SMOOTH",
"558 3499 OFFCURVE",
"564 3505 OFFCURVE",
"569 3505 CURVE SMOOTH"
);
},
{
closed = 1;
nodes = (
"574 2936 OFFCURVE",
"580 2930 OFFCURVE",
"580 2925 CURVE SMOOTH",
"580 2356 LINE SMOOTH",
"580 2351 OFFCURVE",
"575 2346 OFFCURVE",
"569 2345 CURVE",
"563 2346 OFFCURVE",
"558 2351 OFFCURVE",
"558 2356 CURVE SMOOTH",
"558 2925 LINE SMOOTH",
"558 2930 OFFCURVE",
"564 2936 OFFCURVE",
"569 2936 CURVE SMOOTH"
);
},
{
closed = 1;
nodes = (
"574 2367 OFFCURVE",
"580 2361 OFFCURVE",
"580 2356 CURVE SMOOTH",
"580 569 LINE SMOOTH",
"580 564 OFFCURVE",
"574 558 OFFCURVE",
"569 558 CURVE SMOOTH",
"564 558 OFFCURVE",
"558 564 OFFCURVE",
"558 569 CURVE SMOOTH",
"558 2356 LINE SMOOTH",
"558 2361 OFFCURVE",
"564 2367 OFFCURVE",
"569 2367 CURVE SMOOTH"
);
},
{
closed = 1;
nodes = (
"558 574 OFFCURVE",
"564 580 OFFCURVE",
"569 580 CURVE SMOOTH",
"574 580 OFFCURVE",
"580 574 OFFCURVE",
"580 569 CURVE SMOOTH",
"580 355 OFFCURVE",
"692 173 OFFCURVE",
"888 69 CURVE SMOOTH",
"962 33 OFFCURVE",
"1056 11 OFFCURVE",
"1138 11 CURVE SMOOTH",
"1143 11 OFFCURVE",
"1148 6 OFFCURVE",
"1148 0 CURVE SMOOTH",
"1148 -6 OFFCURVE",
"1143 -11 OFFCURVE",
"1138 -11 CURVE SMOOTH",
"984 -11 OFFCURVE",
"836 50 OFFCURVE",
"728 159 CURVE SMOOTH",
"619 267 OFFCURVE",
"558 415 OFFCURVE",
"558 569 CURVE SMOOTH"
);
}
);
width = 1138;
},
{
layerId = "A6394422-5114-4E65-BA08-40D408A20CD5";
paths = (
{
closed = 1;
nodes = (
"814 6295 OFFCURVE",
"1014 6094 OFFCURVE",
"1014 5850 CURVE SMOOTH",
"1014 5281 LINE SMOOTH",
"1014 5036 OFFCURVE",
"815 4837 OFFCURVE",
"569 4836 CURVE SMOOTH",
"323 4837 OFFCURVE",
"124 5036 OFFCURVE",
"124 5281 CURVE SMOOTH",
"124 5850 LINE SMOOTH",
"124 6095 OFFCURVE",
"325 6295 OFFCURVE",
"569 6295 CURVE SMOOTH"
);
},
{
closed = 1;
nodes = (
"814 5726 OFFCURVE",
"1014 5525 OFFCURVE",
"1014 5281 CURVE SMOOTH",
"1014 3494 LINE SMOOTH",
"1014 3249 OFFCURVE",
"813 3049 OFFCURVE",
"569 3049 CURVE SMOOTH",
"324 3049 OFFCURVE",
"124 3250 OFFCURVE",
"124 3494 CURVE SMOOTH",
"124 5281 LINE SMOOTH",
"124 5526 OFFCURVE",
"325 5726 OFFCURVE",
"569 5726 CURVE SMOOTH"
);
},
{
closed = 1;
nodes = (
"814 3939 OFFCURVE",
"1014 3738 OFFCURVE",
"1014 3494 CURVE SMOOTH",
"1014 2925 LINE SMOOTH",
"1014 2680 OFFCURVE",
"813 2480 OFFCURVE",
"569 2480 CURVE SMOOTH",
"324 2480 OFFCURVE",
"124 2681 OFFCURVE",
"124 2925 CURVE SMOOTH",
"124 3494 LINE SMOOTH",
"124 3739 OFFCURVE",
"325 3939 OFFCURVE",
"569 3939 CURVE SMOOTH"
);
},
{
closed = 1;
nodes = (
"814 3370 OFFCURVE",
"1014 3169 OFFCURVE",
"1014 2925 CURVE SMOOTH",
"1014 2356 LINE SMOOTH",
"1014 2111 OFFCURVE",
"815 1912 OFFCURVE",
"569 1911 CURVE SMOOTH",
"323 1912 OFFCURVE",
"124 2111 OFFCURVE",
"124 2356 CURVE SMOOTH",
"124 2925 LINE SMOOTH",
"124 3170 OFFCURVE",
"325 3370 OFFCURVE",
"569 3370 CURVE SMOOTH"
);
},
{
closed = 1;
nodes = (
"814 2801 OFFCURVE",
"1014 2600 OFFCURVE",
"1014 2356 CURVE SMOOTH",
"1014 569 LINE SMOOTH",
"1014 324 OFFCURVE",
"813 124 OFFCURVE",
"569 124 CURVE SMOOTH",
"324 124 OFFCURVE",
"124 325 OFFCURVE",
"124 569 CURVE SMOOTH",
"124 2356 LINE SMOOTH",
"124 2601 OFFCURVE",
"325 2801 OFFCURVE",
"569 2801 CURVE SMOOTH"
);
},
{
closed = 1;
nodes = (
"124 814 OFFCURVE",
"325 1014 OFFCURVE",
"569 1014 CURVE SMOOTH",
"814 1014 OFFCURVE",
"1014 813 OFFCURVE",
"1014 569 CURVE SMOOTH",
"1014 516 OFFCURVE",
"1036 484 OFFCURVE",
"1084 456 CURVE",
"1101 449 OFFCURVE",
"1118 445 OFFCURVE",
"1138 445 CURVE SMOOTH",
"1383 445 OFFCURVE",
"1582 246 OFFCURVE",
"1582 0 CURVE SMOOTH",
"1582 -246 OFFCURVE",
"1383 -445 OFFCURVE",
"1138 -445 CURVE SMOOTH",
"871 -445 OFFCURVE",
"610 -337 OFFCURVE",
"421 -148 CURVE SMOOTH",
"232 41 OFFCURVE",
"124 302 OFFCURVE",
"124 569 CURVE SMOOTH"
);
}
);
width = 1138;
}
);
leftKerningGroup = c;
unicode = 006C;
},
{
glyphname = d;
lastChange = "2021-01-31 07:32:33 +0000";
layers = (
{
layerId = "19B6A511-96ED-40AF-BAB7-D1E16DFA4179";
paths = (
{
closed = 1;
nodes = (
"574 2367 OFFCURVE",
"580 2361 OFFCURVE",
"580 2356 CURVE SMOOTH",
"580 569 LINE SMOOTH",
"580 564 OFFCURVE",
"574 558 OFFCURVE",
"569 558 CURVE SMOOTH",
"564 558 OFFCURVE",
"558 564 OFFCURVE",
"558 569 CURVE SMOOTH",
"558 2356 LINE SMOOTH",
"558 2361 OFFCURVE",
"564 2367 OFFCURVE",
"569 2367 CURVE SMOOTH"
);
},
{
closed = 1;
nodes = (
"1143 2936 OFFCURVE",
"1148 2931 OFFCURVE",
"1148 2925 CURVE SMOOTH",
"1148 2919 OFFCURVE",
"1143 2914 OFFCURVE",
"1138 2914 CURVE SMOOTH",
"972 2914 OFFCURVE",
"818 2842 OFFCURVE",
"707 2713 CURVE SMOOTH",
"625 2614 OFFCURVE",
"580 2488 OFFCURVE",
"580 2356 CURVE SMOOTH",
"580 2351 OFFCURVE",
"575 2346 OFFCURVE",
"569 2345 CURVE",
"563 2346 OFFCURVE",
"558 2351 OFFCURVE",
"558 2356 CURVE SMOOTH",
"558 2510 OFFCURVE",
"619 2658 OFFCURVE",
"728 2766 CURVE SMOOTH",
"836 2875 OFFCURVE",
"984 2936 OFFCURVE",
"1138 2936 CURVE SMOOTH"
);
},
{
closed = 1;
nodes = (
"1712 580 OFFCURVE",
"1717 575 OFFCURVE",
"1717 569 CURVE SMOOTH",
"1717 485 OFFCURVE",
"1701 409 OFFCURVE",
"1664 326 CURVE SMOOTH",
"1573 122 OFFCURVE",
"1365 -11 OFFCURVE",
"1138 -11 CURVE SMOOTH",
"1133 -11 OFFCURVE",
"1127 -5 OFFCURVE",
"1127 0 CURVE SMOOTH",
"1127 5 OFFCURVE",
"1133 11 OFFCURVE",
"1138 11 CURVE SMOOTH",
"1286 11 OFFCURVE",
"1426 69 OFFCURVE",
"1532 174 CURVE SMOOTH",
"1637 279 OFFCURVE",
"1696 420 OFFCURVE",
"1696 569 CURVE SMOOTH",
"1696 575 OFFCURVE",
"1701 580 OFFCURVE",
"1707 580 CURVE SMOOTH"
);
},
{
closed = 1;
nodes = (
"1365 2936 OFFCURVE",
"1573 2803 OFFCURVE",
"1664 2599 CURVE SMOOTH",
"1701 2516 OFFCURVE",
"1717 2440 OFFCURVE",
"1717 2356 CURVE SMOOTH",
"1717 2351 OFFCURVE",
"1713 2346 OFFCURVE",
"1707 2345 CURVE",
"1701 2346 OFFCURVE",
"1696 2351 OFFCURVE",
"1696 2356 CURVE SMOOTH",
"1696 2505 OFFCURVE",
"1637 2646 OFFCURVE",
"1532 2751 CURVE SMOOTH",
"1426 2856 OFFCURVE",
"1286 2914 OFFCURVE",
"1138 2914 CURVE SMOOTH",
"1133 2914 OFFCURVE",
"1127 2920 OFFCURVE",
"1127 2925 CURVE SMOOTH",
"1127 2930 OFFCURVE",
"1133 2936 OFFCURVE",
"1138 2936 CURVE SMOOTH"
);
},
{
closed = 1;
nodes = (
"574 580 OFFCURVE",
"580 574 OFFCURVE",
"580 569 CURVE SMOOTH",
"580 355 OFFCURVE",
"692 173 OFFCURVE",
"888 69 CURVE SMOOTH",
"962 33 OFFCURVE",
"1056 11 OFFCURVE",
"1138 11 CURVE SMOOTH",
"1143 11 OFFCURVE",
"1148 6 OFFCURVE",
"1148 0 CURVE SMOOTH",
"1148 -6 OFFCURVE",
"1143 -11 OFFCURVE",
"1138 -11 CURVE SMOOTH",
"984 -11 OFFCURVE",
"836 50 OFFCURVE",
"728 159 CURVE SMOOTH",
"619 267 OFFCURVE",
"558 415 OFFCURVE",
"558 569 CURVE SMOOTH",
"558 574 OFFCURVE",
"564 580 OFFCURVE",
"569 580 CURVE SMOOTH"
);
},
{
closed = 1;
nodes = (
"1712 5861 OFFCURVE",
"1717 5856 OFFCURVE",
"1717 5850 CURVE SMOOTH",
"1717 5281 LINE SMOOTH",
"1717 5276 OFFCURVE",
"1713 5271 OFFCURVE",
"1707 5270 CURVE",
"1701 5271 OFFCURVE",
"1696 5276 OFFCURVE",
"1696 5281 CURVE SMOOTH",
"1696 5850 LINE SMOOTH",
"1696 5856 OFFCURVE",
"1701 5861 OFFCURVE",
"1707 5861 CURVE SMOOTH"
);
},
{
closed = 1;
nodes = (
"1712 5292 OFFCURVE",
"1717 5287 OFFCURVE",
"1717 5281 CURVE SMOOTH",
"1717 3494 LINE SMOOTH",
"1717 3488 OFFCURVE",
"1712 3483 OFFCURVE",
"1707 3483 CURVE SMOOTH",
"1701 3483 OFFCURVE",
"1696 3488 OFFCURVE",
"1696 3494 CURVE SMOOTH",
"1696 5281 LINE SMOOTH",
"1696 5287 OFFCURVE",
"1701 5292 OFFCURVE",
"1707 5292 CURVE SMOOTH"
);
},
{
closed = 1;
nodes = (
"1712 3505 OFFCURVE",
"1717 3500 OFFCURVE",
"1717 3494 CURVE SMOOTH",
"1717 2925 LINE SMOOTH",
"1717 2919 OFFCURVE",
"1712 2914 OFFCURVE",
"1707 2914 CURVE SMOOTH",
"1701 2914 OFFCURVE",
"1696 2919 OFFCURVE",
"1696 2925 CURVE SMOOTH",
"1696 3494 LINE SMOOTH",
"1696 3500 OFFCURVE",
"1701 3505 OFFCURVE",
"1707 3505 CURVE SMOOTH"
);
},
{
closed = 1;
nodes = (
"1712 2936 OFFCURVE",
"1717 2931 OFFCURVE",
"1717 2925 CURVE SMOOTH",
"1717 2356 LINE SMOOTH",
"1717 2351 OFFCURVE",
"1713 2346 OFFCURVE",
"1707 2345 CURVE",
"1701 2346 OFFCURVE",
"1696 2351 OFFCURVE",
"1696 2356 CURVE SMOOTH",
"1696 2925 LINE SMOOTH",
"1696 2931 OFFCURVE",
"1701 2936 OFFCURVE",
"1707 2936 CURVE SMOOTH"
);
},
{
closed = 1;
nodes = (
"1696 2356 LINE SMOOTH",
"1696 2362 OFFCURVE",
"1701 2367 OFFCURVE",
"1707 2367 CURVE SMOOTH",
"1712 2367 OFFCURVE",
"1717 2362 OFFCURVE",
"1717 2356 CURVE SMOOTH",
"1717 569 LINE SMOOTH",
"1717 563 OFFCURVE",
"1712 558 OFFCURVE",
"1707 558 CURVE SMOOTH",
"1701 558 OFFCURVE",
"1696 563 OFFCURVE",
"1696 569 CURVE SMOOTH"
);
}
);
width = 2275;
},
{
layerId = "A6394422-5114-4E65-BA08-40D408A20CD5";
paths = (
{
closed = 1;
nodes = (
"814 2801 OFFCURVE",
"1014 2600 OFFCURVE",
"1014 2356 CURVE SMOOTH",
"1014 569 LINE SMOOTH",
"1014 324 OFFCURVE",
"813 124 OFFCURVE",
"569 124 CURVE SMOOTH",
"324 124 OFFCURVE",
"124 325 OFFCURVE",
"124 569 CURVE SMOOTH",
"124 2356 LINE SMOOTH",
"124 2601 OFFCURVE",
"325 2801 OFFCURVE",
"569 2801 CURVE SMOOTH"
);
},
{
closed = 1;
nodes = (
"1383 3370 OFFCURVE",
"1582 3171 OFFCURVE",
"1582 2925 CURVE SMOOTH",
"1582 2679 OFFCURVE",
"1383 2480 OFFCURVE",
"1138 2480 CURVE SMOOTH",
"1098 2480 OFFCURVE",
"1067 2465 OFFCURVE",
"1039 2433 CURVE SMOOTH",
"1022 2412 OFFCURVE",
"1014 2388 OFFCURVE",
"1014 2356 CURVE SMOOTH",
"1014 2111 OFFCURVE",
"815 1912 OFFCURVE",
"569 1911 CURVE SMOOTH",
"323 1912 OFFCURVE",
"124 2111 OFFCURVE",
"124 2356 CURVE SMOOTH",
"124 2623 OFFCURVE",
"232 2884 OFFCURVE",
"421 3073 CURVE SMOOTH",
"610 3262 OFFCURVE",
"871 3370 OFFCURVE",
"1138 3370 CURVE SMOOTH"
);
},
{
closed = 1;
nodes = (
"1952 1014 OFFCURVE",
"2151 815 OFFCURVE",
"2151 569 CURVE SMOOTH",
"2151 428 OFFCURVE",
"2120 285 OFFCURVE",
"2061 151 CURVE SMOOTH",
"1901 -210 OFFCURVE",
"1537 -445 OFFCURVE",
"1138 -445 CURVE SMOOTH",
"893 -445 OFFCURVE",
"693 -244 OFFCURVE",
"693 0 CURVE SMOOTH",
"693 245 OFFCURVE",
"894 445 OFFCURVE",
"1138 445 CURVE SMOOTH",
"1172 445 OFFCURVE",
"1201 457 OFFCURVE",
"1225 481 CURVE SMOOTH",
"1250 506 OFFCURVE",
"1262 534 OFFCURVE",
"1262 569 CURVE SMOOTH",
"1262 814 OFFCURVE",
"1461 1014 OFFCURVE",
"1707 1014 CURVE SMOOTH"
);
},
{
closed = 1;
nodes = (
"1537 3370 OFFCURVE",
"1901 3135 OFFCURVE",
"2061 2774 CURVE SMOOTH",
"2120 2640 OFFCURVE",
"2151 2497 OFFCURVE",
"2151 2356 CURVE SMOOTH",
"2151 2111 OFFCURVE",
"1952 1912 OFFCURVE",
"1707 1911 CURVE SMOOTH",
"1461 1912 OFFCURVE",
"1262 2111 OFFCURVE",
"1262 2356 CURVE SMOOTH",
"1262 2391 OFFCURVE",
"1250 2419 OFFCURVE",
"1225 2444 CURVE SMOOTH",
"1201 2468 OFFCURVE",
"1172 2480 OFFCURVE",
"1138 2480 CURVE SMOOTH",
"893 2480 OFFCURVE",
"693 2681 OFFCURVE",
"693 2925 CURVE SMOOTH",
"693 3170 OFFCURVE",
"894 3370 OFFCURVE",
"1138 3370 CURVE SMOOTH"
);
},
{
closed = 1;
nodes = (
"814 1014 OFFCURVE",
"1014 813 OFFCURVE",
"1014 569 CURVE SMOOTH",
"1014 516 OFFCURVE",
"1036 484 OFFCURVE",
"1084 456 CURVE",
"1101 449 OFFCURVE",
"1118 445 OFFCURVE",
"1138 445 CURVE SMOOTH",
"1383 445 OFFCURVE",
"1582 246 OFFCURVE",
"1582 0 CURVE SMOOTH",
"1582 -246 OFFCURVE",
"1383 -445 OFFCURVE",
"1138 -445 CURVE SMOOTH",
"871 -445 OFFCURVE",
"610 -337 OFFCURVE",
"421 -148 CURVE SMOOTH",
"232 41 OFFCURVE",
"124 302 OFFCURVE",
"124 569 CURVE SMOOTH",
"124 814 OFFCURVE",
"325 1014 OFFCURVE",
"569 1014 CURVE SMOOTH"
);
},
{
closed = 1;
nodes = (
"1952 6295 OFFCURVE",
"2151 6096 OFFCURVE",
"2151 5850 CURVE SMOOTH",
"2151 5281 LINE SMOOTH",
"2151 5036 OFFCURVE",
"1952 4837 OFFCURVE",
"1707 4836 CURVE SMOOTH",
"1461 4837 OFFCURVE",
"1262 5036 OFFCURVE",
"1262 5281 CURVE SMOOTH",
"1262 5850 LINE SMOOTH",
"1262 6095 OFFCURVE",
"1461 6295 OFFCURVE",
"1707 6295 CURVE SMOOTH"
);
},
{
closed = 1;
nodes = (
"1952 5726 OFFCURVE",
"2151 5527 OFFCURVE",
"2151 5281 CURVE SMOOTH",
"2151 3494 LINE SMOOTH",
"2151 3248 OFFCURVE",
"1952 3049 OFFCURVE",
"1707 3049 CURVE SMOOTH",
"1462 3049 OFFCURVE",
"1262 3248 OFFCURVE",
"1262 3494 CURVE SMOOTH",
"1262 5281 LINE SMOOTH",
"1262 5526 OFFCURVE",
"1461 5726 OFFCURVE",
"1707 5726 CURVE SMOOTH"
);
},
{
closed = 1;
nodes = (
"1952 3939 OFFCURVE",
"2151 3740 OFFCURVE",
"2151 3494 CURVE SMOOTH",
"2151 2925 LINE SMOOTH",
"2151 2679 OFFCURVE",
"1952 2480 OFFCURVE",
"1707 2480 CURVE SMOOTH",
"1462 2480 OFFCURVE",
"1262 2679 OFFCURVE",
"1262 2925 CURVE SMOOTH",
"1262 3494 LINE SMOOTH",
"1262 3739 OFFCURVE",
"1461 3939 OFFCURVE",
"1707 3939 CURVE SMOOTH"
);
},
{
closed = 1;
nodes = (
"1952 3370 OFFCURVE",
"2151 3171 OFFCURVE",
"2151 2925 CURVE SMOOTH",
"2151 2356 LINE SMOOTH",
"2151 2111 OFFCURVE",
"1952 1912 OFFCURVE",
"1707 1911 CURVE SMOOTH",
"1461 1912 OFFCURVE",
"1262 2111 OFFCURVE",
"1262 2356 CURVE SMOOTH",
"1262 2925 LINE SMOOTH",
"1262 3170 OFFCURVE",
"1461 3370 OFFCURVE",
"1707 3370 CURVE SMOOTH"
);
},
{
closed = 1;
nodes = (
"1262 2356 LINE SMOOTH",
"1262 2601 OFFCURVE",
"1461 2801 OFFCURVE",
"1707 2801 CURVE SMOOTH",
"1952 2801 OFFCURVE",
"2151 2602 OFFCURVE",
"2151 2356 CURVE SMOOTH",
"2151 569 LINE SMOOTH",
"2151 323 OFFCURVE",
"1952 124 OFFCURVE",
"1707 124 CURVE SMOOTH",
"1462 124 OFFCURVE",
"1262 323 OFFCURVE",
"1262 569 CURVE SMOOTH"
);
}
);
width = 2275;
}
);
leftKerningGroup = c;
rightKerningGroup = c;
unicode = 0064;
},
